M48
;Layer_Color=9474304
;FILE_FORMAT=4:4
METRIC,LZ
;TYPE=PLATED
T01F00S00C0.7000
T02F00S00C0.8500
T03F00S00C0.9000
T04F00S00C1.7780
T05F00S00C2.0000
%
T01
X0020066Y0003429
X0027686
X0027559Y0021463
X0019939
Y0029464
X0027559
X0033274
X0040894
X005207Y0026924
Y0034544
X0008509Y0033909
Y0026289
T02
X0010414Y000635
Y001397
X0030861Y0009271
Y0016891
T03
X0002794Y0008509
Y0011049
X0019304Y0009271
X0021844
X0024384
X0026924
X0047371Y0012827
Y0015327
X0026924Y0016891
X0024384
X0021844
X0019304
X0027305Y004191
X0029845
X0032385
T04
X0002032Y0001905
X0059944Y0001778
X005969Y0042164
X0001905Y004191
T05
X0052471Y0007727
Y0017927
M30
