M48
;Layer_Color=9474304
;FILE_FORMAT=4:4
METRIC,LZ
;TYPE=PLATED
T01F00S00C0.7000
T02F00S00C0.7900
T03F00S00C0.8500
T04F00S00C0.8890
T05F00S00C0.9000
T06F00S00C1.0000
T07F00S00C1.2700
%
T01
X0071882Y0008001
X0079502
X0095504Y0035941
X0103124
X0115951Y0036195
Y0043815
X0116332Y0024638
Y0017018
X0079502Y0017907
X0071882
X0055499Y0026797
Y0034417
X0111125Y0054102
Y0061722
X0120396Y0061849
Y0054229
T02
X0045466Y0069342
Y0071882
Y0074422
Y0076962
Y0079502
Y0082042
Y0084582
Y0087122
X0053086
Y0084582
Y0082042
Y0079502
Y0076962
Y0074422
Y0071882
Y0069342
T03
X0039624Y0012192
X00953453Y0047371
Y0049911
Y0052451
X01032828
Y0049911
Y0047371
X0127762Y0045085
Y0037465
X0039497
Y0029845
X0039624Y0019812
X0039497Y0047371
X0007239Y0038481
Y0030861
X0039497Y0054991
X0039624Y0061722
Y0069342
X0038735Y0076835
Y0084455
X0096012Y0077089
X0103632
X01032828Y0054991
X00953453
X0127889Y0060706
Y0068326
T04
X0096012Y0019939
Y0023749
Y0027559
X0086233Y0042418
Y0044958
Y0047498
Y0050038
Y0052578
X0068453
Y0050038
Y0047498
Y0044958
Y0042418
Y0055118
Y0057658
Y0060198
Y0062738
Y0065278
Y0067818
Y0070358
Y0072898
Y0075438
Y0077978
Y0080518
Y0083058
Y0085598
Y0088138
Y0090678
X0086233
Y0088138
Y0085598
Y0083058
Y0080518
Y0077978
Y0075438
Y0072898
Y0070358
Y0067818
Y0065278
Y0062738
Y0060198
Y0057658
Y0055118
X0095885Y0063119
Y0066929
Y0070739
T05
X0127762Y0019177
Y0021717
X0079121Y0027051
Y0029591
Y0032131
Y0034671
X0071501
Y0032131
Y0029591
Y0027051
X0007239Y0018034
Y0015494
X0063246Y0068326
Y0070866
Y0073406
Y0075946
Y0078486
Y0081026
Y0083566
Y0086106
Y0088646
X0127889Y0087757
Y0085217
Y0082677
Y0080137
T06
X0096012Y0008763
X0098552
X0101092
X0013537Y0050582
X0007037
Y0055082
X0013537
T07
X003048Y0014351
Y0016891
Y0032131
Y0034671
Y0049911
Y0052451
Y0064008
Y0066548
X0030226Y0079629
Y0082169
M30
