G04*
G04 #@! TF.GenerationSoftware,Altium Limited,Altium Designer,26.4.1 (12)*
G04*
G04 Layer_Color=16711935*
%FSLAX44Y44*%
%MOMM*%
G71*
G04*
G04 #@! TF.SameCoordinates,B310F62A-042E-47FD-AD67-7B7DF690AD95*
G04*
G04*
G04 #@! TF.FilePolarity,Negative*
G04*
G01*
G75*
%ADD15C,1.5000*%
%ADD16R,1.5000X1.5000*%
%ADD17O,1.9050X1.2700*%
%ADD18R,1.5000X1.5000*%
%ADD19R,1.9050X1.2700*%
%ADD20R,1.6000X1.6000*%
%ADD21C,1.6000*%
%ADD22C,1.2000*%
%ADD23C,1.2900*%
%ADD24R,1.2900X1.2900*%
%ADD25C,1.3500*%
%ADD26R,1.3500X1.3500*%
%ADD27C,1.7780*%
%ADD28C,1.4000*%
%ADD29C,1.6510*%
D15*
X1278890Y877570D02*
D03*
Y852170D02*
D03*
Y826770D02*
D03*
X715010Y321310D02*
D03*
Y295910D02*
D03*
Y270510D02*
D03*
X791210Y346710D02*
D03*
Y321310D02*
D03*
Y295910D02*
D03*
Y270510D02*
D03*
X1277620Y217170D02*
D03*
X632460Y861060D02*
D03*
Y835660D02*
D03*
Y810260D02*
D03*
Y784860D02*
D03*
Y759460D02*
D03*
Y734060D02*
D03*
Y708660D02*
D03*
Y683260D02*
D03*
X135370Y550820D02*
D03*
Y505820D02*
D03*
X72390Y154940D02*
D03*
D16*
X1278890Y801370D02*
D03*
X1277620Y191770D02*
D03*
X632460Y886460D02*
D03*
X72390Y180340D02*
D03*
D17*
X684530Y779780D02*
D03*
Y881380D02*
D03*
Y855980D02*
D03*
Y830580D02*
D03*
Y805180D02*
D03*
Y754380D02*
D03*
Y728980D02*
D03*
Y703580D02*
D03*
Y678180D02*
D03*
Y652780D02*
D03*
Y627380D02*
D03*
Y601980D02*
D03*
Y576580D02*
D03*
Y551180D02*
D03*
Y525780D02*
D03*
Y500380D02*
D03*
Y474980D02*
D03*
Y449580D02*
D03*
Y424180D02*
D03*
X862330Y906780D02*
D03*
Y881380D02*
D03*
Y855980D02*
D03*
Y830580D02*
D03*
Y805180D02*
D03*
Y779780D02*
D03*
Y754380D02*
D03*
Y728980D02*
D03*
Y703580D02*
D03*
Y678180D02*
D03*
Y652780D02*
D03*
Y627380D02*
D03*
Y601980D02*
D03*
Y576580D02*
D03*
Y551180D02*
D03*
Y525780D02*
D03*
Y500380D02*
D03*
Y474980D02*
D03*
Y449580D02*
D03*
Y424180D02*
D03*
D18*
X715010Y346710D02*
D03*
X70370Y550820D02*
D03*
D19*
X684530Y906780D02*
D03*
D20*
X1010920Y87630D02*
D03*
D21*
X985520D02*
D03*
X960120D02*
D03*
D22*
X1163320Y170180D02*
D03*
Y246380D02*
D03*
X795020Y80010D02*
D03*
X718820D02*
D03*
X795020Y179070D02*
D03*
X718820D02*
D03*
X955040Y359410D02*
D03*
X1031240D02*
D03*
X1111250Y617220D02*
D03*
Y541020D02*
D03*
X1203960Y618490D02*
D03*
Y542290D02*
D03*
X554990Y267970D02*
D03*
Y344170D02*
D03*
X1159510Y361950D02*
D03*
Y438150D02*
D03*
D23*
X454660Y693420D02*
D03*
Y718820D02*
D03*
Y744220D02*
D03*
Y769620D02*
D03*
Y795020D02*
D03*
Y820420D02*
D03*
Y845820D02*
D03*
Y871220D02*
D03*
X530860D02*
D03*
Y845820D02*
D03*
Y820420D02*
D03*
Y795020D02*
D03*
Y769620D02*
D03*
Y744220D02*
D03*
Y718820D02*
D03*
D24*
Y693420D02*
D03*
D25*
X953453Y473710D02*
D03*
Y499110D02*
D03*
Y524510D02*
D03*
Y549910D02*
D03*
X1032828D02*
D03*
Y524510D02*
D03*
Y499110D02*
D03*
D26*
Y473710D02*
D03*
D27*
X304800Y143510D02*
D03*
Y168910D02*
D03*
Y321310D02*
D03*
Y346710D02*
D03*
Y499110D02*
D03*
Y524510D02*
D03*
Y640080D02*
D03*
Y665480D02*
D03*
X302260Y796290D02*
D03*
Y821690D02*
D03*
D28*
X396240Y198120D02*
D03*
Y121920D02*
D03*
X394970Y549910D02*
D03*
Y473710D02*
D03*
X1036320Y770890D02*
D03*
X960120D02*
D03*
X394970Y298450D02*
D03*
Y374650D02*
D03*
X1278890Y683260D02*
D03*
Y607060D02*
D03*
X396240Y617220D02*
D03*
Y693420D02*
D03*
X1277620Y450850D02*
D03*
Y374650D02*
D03*
X387350Y768350D02*
D03*
Y844550D02*
D03*
X72390Y384810D02*
D03*
Y308610D02*
D03*
D29*
X960120Y275590D02*
D03*
Y199390D02*
D03*
Y237490D02*
D03*
X958850Y707390D02*
D03*
Y631190D02*
D03*
Y669290D02*
D03*
M02*
