G04*
G04 #@! TF.GenerationSoftware,Altium Limited,Altium Designer,26.4.1 (12)*
G04*
G04 Layer_Physical_Order=2*
G04 Layer_Color=16711680*
%FSLAX44Y44*%
%MOMM*%
G71*
G04*
G04 #@! TF.SameCoordinates,B310F62A-042E-47FD-AD67-7B7DF690AD95*
G04*
G04*
G04 #@! TF.FilePolarity,Positive*
G04*
G01*
G75*
%ADD13C,0.2540*%
%ADD15C,1.5000*%
%ADD16R,1.5000X1.5000*%
%ADD17O,1.9050X1.2700*%
%ADD18R,1.5000X1.5000*%
%ADD19R,1.9050X1.2700*%
%ADD20R,1.6000X1.6000*%
%ADD21C,1.6000*%
%ADD22C,1.2000*%
%ADD23C,1.2900*%
%ADD24R,1.2900X1.2900*%
%ADD25C,1.3500*%
%ADD26R,1.3500X1.3500*%
%ADD27C,1.7780*%
%ADD28C,1.4000*%
%ADD29C,1.6510*%
%ADD31C,0.2032*%
D13*
X1278890Y877570D02*
Y887610D01*
Y867530D02*
Y877570D01*
X1268850D02*
X1278890D01*
X1288930D01*
X1278890Y597520D02*
Y607060D01*
X1288430D01*
X1278890D02*
Y616600D01*
X1269350Y607060D02*
X1278890D01*
X1203960Y542290D02*
Y550830D01*
Y542290D02*
X1212500D01*
X1195420D02*
X1203960D01*
X1111250Y541020D02*
X1119790D01*
X1111250D02*
Y549560D01*
X1102710Y541020D02*
X1111250D01*
X958850Y631190D02*
X969645D01*
X862330Y855980D02*
X874395D01*
X862330D02*
Y864870D01*
Y847090D02*
Y855980D01*
X850265D02*
X862330D01*
X958850Y631190D02*
Y641985D01*
Y620395D02*
Y631190D01*
X948055D02*
X958850D01*
X862330Y728980D02*
X874395D01*
X862330D02*
Y737870D01*
Y720090D02*
Y728980D01*
X850265D02*
X862330D01*
Y601980D02*
X874395D01*
X862330D02*
Y610870D01*
Y593090D02*
Y601980D01*
X850265D02*
X862330D01*
X1203960Y533750D02*
Y542290D01*
X1111250Y532480D02*
Y541020D01*
X1277620Y374650D02*
Y384190D01*
Y374650D02*
X1287160D01*
X1268080D02*
X1277620D01*
Y365110D02*
Y374650D01*
Y207130D02*
Y217170D01*
X1287660D01*
X1277620D02*
Y227210D01*
X1267580Y217170D02*
X1277620D01*
X1163320Y246380D02*
Y254920D01*
X1154780Y246380D02*
X1163320D01*
X1171860D01*
X1163320Y237840D02*
Y246380D01*
X953453Y489820D02*
Y499110D01*
X962742D01*
X944163D02*
X953453D01*
X862330Y466090D02*
Y474980D01*
X874395D01*
X862330D02*
Y483870D01*
X850265Y474980D02*
X862330D01*
X960120Y188595D02*
Y199390D01*
X970915D01*
X985520Y87630D02*
X996060D01*
X985520D02*
Y98170D01*
X974980Y87630D02*
X985520D01*
Y77090D02*
Y87630D01*
X949325Y199390D02*
X960120D01*
Y210185D01*
X715010Y321310D02*
Y331350D01*
X704970Y321310D02*
X715010D01*
X725050D01*
X715010Y311270D02*
Y321310D01*
Y260470D02*
Y270510D01*
X704970D02*
X715010D01*
X718820Y179070D02*
X727360D01*
X718820Y80010D02*
X727360D01*
X718820Y170530D02*
Y179070D01*
Y80010D02*
Y88550D01*
Y71470D02*
Y80010D01*
X715010Y270510D02*
X725050D01*
X718820Y179070D02*
Y187610D01*
X710280Y179070D02*
X718820D01*
X710280Y80010D02*
X718820D01*
X684530Y855980D02*
X696595D01*
X684530D02*
Y864870D01*
Y847090D02*
Y855980D01*
X672465D02*
X684530D01*
Y720090D02*
Y728980D01*
Y737870D01*
Y728980D02*
X696595D01*
X672465D02*
X684530D01*
Y601980D02*
X696595D01*
X684530D02*
Y610870D01*
X672465Y601980D02*
X684530D01*
Y593090D02*
Y601980D01*
X454660Y845820D02*
Y854810D01*
Y845820D02*
X463650D01*
X454660Y836830D02*
Y845820D01*
Y871220D02*
X463650D01*
X454660Y862230D02*
Y871220D01*
X445670Y845820D02*
X454660D01*
Y871220D02*
Y880210D01*
X445670Y871220D02*
X454660D01*
Y820420D02*
Y829410D01*
Y820420D02*
X463650D01*
X454660Y795020D02*
Y804010D01*
X445670Y820420D02*
X454660D01*
Y811430D02*
Y820420D01*
X302260Y821690D02*
X313690D01*
X290830D02*
X302260D01*
Y810260D02*
Y821690D01*
Y833120D01*
X454660Y795020D02*
X463650D01*
X445670D02*
X454660D01*
Y786030D02*
Y795020D01*
Y769620D02*
Y778610D01*
X445670Y769620D02*
X454660D01*
Y718820D02*
Y727810D01*
Y744220D02*
Y753210D01*
Y769620D02*
X463650D01*
X454660Y744220D02*
X463650D01*
X454660Y760630D02*
Y769620D01*
X445670Y744220D02*
X454660D01*
Y735230D02*
Y744220D01*
X445670Y718820D02*
X454660D01*
Y709830D02*
Y718820D01*
X463650D01*
X454660Y693420D02*
X463650D01*
X454660Y684430D02*
Y693420D01*
Y702410D01*
X445670Y693420D02*
X454660D01*
X304800Y665480D02*
Y676910D01*
X293370Y665480D02*
X304800D01*
X316230D01*
X304800Y654050D02*
Y665480D01*
X684530Y474980D02*
X696595D01*
X672465D02*
X684530D01*
Y466090D02*
Y474980D01*
Y483870D01*
X304800Y524510D02*
X316230D01*
X304800Y513080D02*
Y524510D01*
Y535940D01*
X293370Y524510D02*
X304800D01*
X135370Y505820D02*
Y515860D01*
X70370Y505820D02*
X80410D01*
X125330D02*
X135370D01*
X70370D02*
Y515860D01*
X60330Y505820D02*
X70370D01*
X135370D02*
X145410D01*
X70370Y495780D02*
Y505820D01*
X135370Y495780D02*
Y505820D01*
X304800Y346710D02*
X316230D01*
X304800Y168910D02*
X316230D01*
X304800Y346710D02*
Y358140D01*
X293370Y346710D02*
X304800D01*
Y335280D02*
Y346710D01*
Y168910D02*
Y180340D01*
X293370Y168910D02*
X304800D01*
Y157480D02*
Y168910D01*
X62350Y154940D02*
X72390D01*
X82430D01*
X72390D02*
Y164980D01*
Y144900D02*
Y154940D01*
X971042Y759968D02*
X1047750Y683260D01*
X960120Y770890D02*
X971042Y759968D01*
X1159002Y618490D02*
X1203960D01*
X1111250Y617220D02*
X1159002Y618490D01*
X1032828Y549910D02*
X1043940D01*
X1111250Y617220D01*
X912368Y524510D02*
X953453D01*
X898652Y510794D02*
X912368Y524510D01*
X808482Y510794D02*
X898652D01*
X683768Y386080D02*
X808482Y510794D01*
X149860Y386080D02*
X683768D01*
X72390Y308610D02*
X149860Y386080D01*
X1163320Y170180D02*
X1256030D01*
X1277620Y191770D01*
X914400Y283210D02*
X960120Y237490D01*
X785876Y283210D02*
X914400D01*
X773176Y295910D02*
X785876Y283210D01*
X715010Y295910D02*
X773176D01*
X862330Y449580D02*
X1008698D01*
X1032828Y473710D01*
X530860Y871220D02*
X622300D01*
X632460Y861060D01*
X530860Y845820D02*
X622300D01*
X632460Y835660D01*
X530860Y820420D02*
X622300D01*
X632460Y810260D01*
X652780Y830580D02*
X684530D01*
X632460Y810260D02*
X652780Y830580D01*
X530860Y795020D02*
X622300D01*
X632460Y784860D01*
X530860Y693420D02*
X622300D01*
X632460Y683260D01*
X652780Y703580D02*
X684530D01*
X632460Y683260D02*
X652780Y703580D01*
X1022160Y535178D02*
X1032828Y524510D01*
X915670Y535178D02*
X1022160D01*
X906272Y525780D02*
X915670Y535178D01*
X862330Y525780D02*
X906272D01*
X1159510Y438150D02*
X1264920D01*
X1277620Y450850D01*
X779780Y281940D02*
X791210Y270510D01*
X568960Y281940D02*
X779780D01*
X554990Y267970D02*
X568960Y281940D01*
X326390Y121920D02*
X396240D01*
X304800Y143510D02*
X326390Y121920D01*
X530860Y769620D02*
X622300D01*
X632460Y759460D01*
X530860Y744220D02*
X622300D01*
X632460Y734060D01*
X530860Y718820D02*
X622300D01*
X632460Y708660D01*
X998474Y499110D02*
X1032828D01*
X987806Y509778D02*
X998474Y499110D01*
X917194Y509778D02*
X987806D01*
X907796Y500380D02*
X917194Y509778D01*
X862330Y500380D02*
X907796D01*
X72390Y180340D02*
X178308Y286258D01*
X497078D01*
X554990Y344170D01*
X397256Y525780D02*
X684530D01*
X384048Y538988D02*
X397256Y525780D01*
X384048Y538988D02*
Y605028D01*
X396240Y617220D01*
X1032828Y549910D02*
X1043432Y539305D01*
Y519684D02*
Y539305D01*
X1037590Y513842D02*
X1043432Y519684D01*
X991362Y513842D02*
X1037590D01*
X980694Y524510D02*
X991362Y513842D01*
X953453Y524510D02*
X980694D01*
X971042Y662940D02*
Y759968D01*
X965200Y657098D02*
X971042Y662940D01*
X932434Y657098D02*
X965200D01*
X911352Y678180D02*
X932434Y657098D01*
X862330Y678180D02*
X911352D01*
X668782Y881380D02*
X684530D01*
X658622Y871220D02*
X668782Y881380D01*
X658622Y861822D02*
Y871220D01*
X632460Y835660D02*
X658622Y861822D01*
X949198Y717042D02*
X958850Y707390D01*
X949198Y717042D02*
Y777240D01*
X953770Y781812D01*
X1025398D01*
X1036320Y770890D01*
X304800Y640080D02*
X342900D01*
X396240Y693420D01*
X302260Y796290D02*
X339090D01*
X387350Y844550D01*
X1093470Y170180D02*
X1163320D01*
X1010920Y87630D02*
X1093470Y170180D01*
X862330Y703580D02*
X924560D01*
X958850Y669290D01*
X652780Y805180D02*
X684530D01*
X632460Y784860D02*
X652780Y805180D01*
X684530Y779780D02*
X773430D01*
X808990Y815340D01*
X1267460D01*
X1278890Y826770D01*
X632460Y886460D02*
X640080Y894080D01*
X737870D01*
X750316Y881634D01*
Y822960D02*
Y881634D01*
X717296Y789940D02*
X750316Y822960D01*
X672846Y789940D02*
X717296D01*
X666750Y783844D02*
X672846Y789940D01*
X666750Y775716D02*
Y783844D01*
Y775716D02*
X674878Y767588D01*
X768604D01*
X806196Y805180D01*
X862330D01*
X1047750Y683260D02*
X1278890D01*
X791210Y270510D02*
X843280Y218440D01*
X1016000D01*
X1159510Y361950D01*
X262010Y424180D02*
X684530D01*
X135370Y550820D02*
X262010Y424180D01*
X421640Y576580D02*
X684530D01*
X394970Y549910D02*
X421640Y576580D01*
X946658Y801370D02*
X1278890D01*
X912368Y767080D02*
X946658Y801370D01*
X786130Y767080D02*
X912368D01*
X773430Y754380D02*
X786130Y767080D01*
X684530Y754380D02*
X773430D01*
D15*
X1278890Y877570D02*
D03*
Y852170D02*
D03*
Y826770D02*
D03*
X715010Y321310D02*
D03*
Y295910D02*
D03*
Y270510D02*
D03*
X791210Y346710D02*
D03*
Y321310D02*
D03*
Y295910D02*
D03*
Y270510D02*
D03*
X1277620Y217170D02*
D03*
X632460Y861060D02*
D03*
Y835660D02*
D03*
Y810260D02*
D03*
Y784860D02*
D03*
Y759460D02*
D03*
Y734060D02*
D03*
Y708660D02*
D03*
Y683260D02*
D03*
X135370Y550820D02*
D03*
Y505820D02*
D03*
X70370D02*
D03*
X72390Y154940D02*
D03*
D16*
X1278890Y801370D02*
D03*
X1277620Y191770D02*
D03*
X632460Y886460D02*
D03*
X72390Y180340D02*
D03*
D17*
X684530Y779780D02*
D03*
Y881380D02*
D03*
Y855980D02*
D03*
Y830580D02*
D03*
Y805180D02*
D03*
Y754380D02*
D03*
Y728980D02*
D03*
Y703580D02*
D03*
Y678180D02*
D03*
Y652780D02*
D03*
Y627380D02*
D03*
Y601980D02*
D03*
Y576580D02*
D03*
Y551180D02*
D03*
Y525780D02*
D03*
Y500380D02*
D03*
Y474980D02*
D03*
Y449580D02*
D03*
Y424180D02*
D03*
X862330Y906780D02*
D03*
Y881380D02*
D03*
Y855980D02*
D03*
Y830580D02*
D03*
Y805180D02*
D03*
Y779780D02*
D03*
Y754380D02*
D03*
Y728980D02*
D03*
Y703580D02*
D03*
Y678180D02*
D03*
Y652780D02*
D03*
Y627380D02*
D03*
Y601980D02*
D03*
Y576580D02*
D03*
Y551180D02*
D03*
Y525780D02*
D03*
Y500380D02*
D03*
Y474980D02*
D03*
Y449580D02*
D03*
Y424180D02*
D03*
D18*
X715010Y346710D02*
D03*
X70370Y550820D02*
D03*
D19*
X684530Y906780D02*
D03*
D20*
X1010920Y87630D02*
D03*
D21*
X985520D02*
D03*
X960120D02*
D03*
D22*
X1163320Y170180D02*
D03*
Y246380D02*
D03*
X795020Y80010D02*
D03*
X718820D02*
D03*
X795020Y179070D02*
D03*
X718820D02*
D03*
X955040Y359410D02*
D03*
X1031240D02*
D03*
X1111250Y617220D02*
D03*
Y541020D02*
D03*
X1203960Y618490D02*
D03*
Y542290D02*
D03*
X554990Y267970D02*
D03*
Y344170D02*
D03*
X1159510Y361950D02*
D03*
Y438150D02*
D03*
D23*
X454660Y693420D02*
D03*
Y718820D02*
D03*
Y744220D02*
D03*
Y769620D02*
D03*
Y795020D02*
D03*
Y820420D02*
D03*
Y845820D02*
D03*
Y871220D02*
D03*
X530860D02*
D03*
Y845820D02*
D03*
Y820420D02*
D03*
Y795020D02*
D03*
Y769620D02*
D03*
Y744220D02*
D03*
Y718820D02*
D03*
D24*
Y693420D02*
D03*
D25*
X953453Y473710D02*
D03*
Y499110D02*
D03*
Y524510D02*
D03*
Y549910D02*
D03*
X1032828D02*
D03*
Y524510D02*
D03*
Y499110D02*
D03*
D26*
Y473710D02*
D03*
D27*
X304800Y143510D02*
D03*
Y168910D02*
D03*
Y321310D02*
D03*
Y346710D02*
D03*
Y499110D02*
D03*
Y524510D02*
D03*
Y640080D02*
D03*
Y665480D02*
D03*
X302260Y796290D02*
D03*
Y821690D02*
D03*
D28*
X396240Y198120D02*
D03*
Y121920D02*
D03*
X394970Y549910D02*
D03*
Y473710D02*
D03*
X1036320Y770890D02*
D03*
X960120D02*
D03*
X394970Y298450D02*
D03*
Y374650D02*
D03*
X1278890Y683260D02*
D03*
Y607060D02*
D03*
X396240Y617220D02*
D03*
Y693420D02*
D03*
X1277620Y450850D02*
D03*
Y374650D02*
D03*
X387350Y768350D02*
D03*
Y844550D02*
D03*
X72390Y384810D02*
D03*
Y308610D02*
D03*
D29*
X960120Y275590D02*
D03*
Y199390D02*
D03*
Y237490D02*
D03*
X958850Y707390D02*
D03*
Y631190D02*
D03*
Y669290D02*
D03*
D31*
X1289946Y877570D02*
G03*
X1289946Y877570I-11056J0D01*
G01*
Y826770D02*
G03*
X1268444Y823149I-11056J0D01*
G01*
X1275269Y816324D02*
G03*
X1289946Y826770I3621J10446D01*
G01*
Y852170D02*
G03*
X1289946Y852170I-11056J0D01*
G01*
X1289446Y683260D02*
G03*
X1269502Y688086I-10556J0D01*
G01*
Y678434D02*
G03*
X1289446Y683260I9388J4826D01*
G01*
Y607060D02*
G03*
X1289446Y607060I-10556J0D01*
G01*
X1195712Y613664D02*
G03*
X1213516Y618490I8248J4826D01*
G01*
D02*
G03*
X1195712Y623316I-9556J0D01*
G01*
X1119367Y622264D02*
G03*
X1102005Y614800I-8117J-5044D01*
G01*
X1108830Y607975D02*
G03*
X1119623Y612615I2420J9245D01*
G01*
X1028818Y785217D02*
G03*
X1025398Y786638I-3420J-3405D01*
G01*
X1046876Y770890D02*
G03*
X1033094Y780941I-10556J0D01*
G01*
X1028811Y785225D02*
G03*
X1025398Y786638I-3413J-3413D01*
G01*
X1026269Y774116D02*
G03*
X1046876Y770890I10051J-3226D01*
G01*
X970676D02*
G03*
X968738Y776986I-10556J0D01*
G01*
X970171Y767664D02*
G03*
X970676Y770890I-10051J3226D01*
G01*
X1044330Y679855D02*
G03*
X1047750Y678434I3420J3405D01*
G01*
X1044337Y679847D02*
G03*
X1047750Y678434I3413J3413D01*
G01*
X974447Y659520D02*
G03*
X975868Y662940I-3405J3420D01*
G01*
X974454Y659528D02*
G03*
X975868Y662940I-3413J3413D01*
G01*
X965200Y652272D02*
G03*
X968613Y653686I0J4826D01*
G01*
X1044451Y545111D02*
G03*
X1047360Y546505I-511J4799D01*
G01*
X1044451Y545111D02*
G03*
X1047353Y546497I-511J4799D01*
G01*
X970661Y631190D02*
G03*
X970661Y631190I-11811J0D01*
G01*
X965200Y652272D02*
G03*
X968620Y653693I0J4826D01*
G01*
X865505Y896874D02*
G03*
X875411Y906780I0J9906D01*
G01*
D02*
G03*
X865505Y916686I-9906J0D01*
G01*
X875411Y855980D02*
G03*
X865505Y865886I-9906J0D01*
G01*
X875411Y881380D02*
G03*
X865505Y891286I-9906J0D01*
G01*
Y871474D02*
G03*
X875411Y881380I0J9906D01*
G01*
Y805180D02*
G03*
X873852Y810514I-9906J0D01*
G01*
X865505Y846074D02*
G03*
X875411Y855980I0J9906D01*
G01*
Y830580D02*
G03*
X865505Y840486I-9906J0D01*
G01*
Y820674D02*
G03*
X875411Y830580I0J9906D01*
G01*
X859155Y916686D02*
G03*
X859155Y896874I0J-9906D01*
G01*
Y891286D02*
G03*
X859155Y871474I0J-9906D01*
G01*
Y865886D02*
G03*
X859155Y846074I0J-9906D01*
G01*
Y840486D02*
G03*
X859155Y820674I0J-9906D01*
G01*
X808990Y820166D02*
G03*
X805577Y818753I0J-4826D01*
G01*
X808990Y820166D02*
G03*
X805570Y818745I0J-4826D01*
G01*
X946658Y806196D02*
G03*
X943245Y804782I0J-4826D01*
G01*
X946658Y806196D02*
G03*
X943238Y804775I0J-4826D01*
G01*
X953770Y786638D02*
G03*
X950358Y785225I0J-4826D01*
G01*
X953770Y786638D02*
G03*
X950350Y785217I0J-4826D01*
G01*
X945793Y780660D02*
G03*
X944372Y777240I3405J-3420D01*
G01*
X945786Y780652D02*
G03*
X944372Y777240I3413J-3413D01*
G01*
X865505Y795274D02*
G03*
X875411Y805180I0J9906D01*
G01*
X850504Y800354D02*
G03*
X859155Y795274I8651J4826D01*
G01*
X875411Y779780D02*
G03*
X865505Y789686I-9906J0D01*
G01*
X871516Y771906D02*
G03*
X875411Y779780I-6011J7874D01*
G01*
X859155Y789686D02*
G03*
X853144Y771906I0J-9906D01*
G01*
X741283Y897493D02*
G03*
X737870Y898906I-3413J-3413D01*
G01*
X741290Y897485D02*
G03*
X737870Y898906I-3420J-3405D01*
G01*
X697611Y881380D02*
G03*
X693716Y889254I-9906J0D01*
G01*
X755142Y881634D02*
G03*
X753721Y885054I-4826J0D01*
G01*
X755142Y881634D02*
G03*
X753728Y885046I-4826J0D01*
G01*
Y819548D02*
G03*
X755142Y822960I-3413J3413D01*
G01*
X753721Y819540D02*
G03*
X755142Y822960I-3405J3420D01*
G01*
X786130Y771906D02*
G03*
X782718Y770492I0J-4826D01*
G01*
X786130Y771906D02*
G03*
X782710Y770485I0J-4826D01*
G01*
X717296Y785114D02*
G03*
X720716Y786535I0J4826D01*
G01*
X717296Y785114D02*
G03*
X720708Y786527I0J4826D01*
G01*
X694329Y772414D02*
G03*
X696356Y774954I-6623J7366D01*
G01*
X954024Y762272D02*
G03*
X963346Y760839I6096J8618D01*
G01*
X966216Y716623D02*
G03*
X954640Y718425I-7366J-9233D01*
G01*
X944372Y717042D02*
G03*
X945793Y713622I4826J0D01*
G01*
X944372Y717042D02*
G03*
X945786Y713630I4826J0D01*
G01*
X947815Y711600D02*
G03*
X966216Y698157I11035J-4210D01*
G01*
X912368Y762254D02*
G03*
X915788Y763675I0J4826D01*
G01*
X912368Y762254D02*
G03*
X915780Y763668I0J4826D01*
G01*
X875411Y754380D02*
G03*
X871516Y762254I-9906J0D01*
G01*
X865505Y744474D02*
G03*
X875411Y754380I0J9906D01*
G01*
X927972Y706992D02*
G03*
X924560Y708406I-3413J-3413D01*
G01*
X927980Y706985D02*
G03*
X924560Y708406I-3420J-3405D01*
G01*
X865505Y693674D02*
G03*
X874156Y698754I0J9906D01*
G01*
X966216Y678523D02*
G03*
X954640Y680325I-7366J-9233D01*
G01*
X947815Y673500D02*
G03*
X949617Y661924I11035J-4210D01*
G01*
X956296Y540004D02*
G03*
X963758Y549910I-2843J9906D01*
G01*
X914772Y681585D02*
G03*
X911352Y683006I-3420J-3405D01*
G01*
X914764Y681592D02*
G03*
X911352Y683006I-3413J-3413D01*
G01*
X865505Y668274D02*
G03*
X874156Y673354I0J9906D01*
G01*
X929014Y653693D02*
G03*
X932434Y652272I3420J3405D01*
G01*
X929022Y653686D02*
G03*
X932434Y652272I3413J3413D01*
G01*
X865505Y566674D02*
G03*
X875411Y576580I0J9906D01*
G01*
Y551180D02*
G03*
X865505Y561086I-9906J0D01*
G01*
Y541274D02*
G03*
X875411Y551180I0J9906D01*
G01*
X853144Y762254D02*
G03*
X859155Y744474I6011J-7874D01*
G01*
Y738886D02*
G03*
X859155Y719074I0J-9906D01*
G01*
X875411Y728980D02*
G03*
X865505Y738886I-9906J0D01*
G01*
Y719074D02*
G03*
X875411Y728980I0J9906D01*
G01*
X874156Y708406D02*
G03*
X865505Y713486I-8651J-4826D01*
G01*
X859155D02*
G03*
X859155Y693674I0J-9906D01*
G01*
X768604Y762762D02*
G03*
X772024Y764183I0J4826D01*
G01*
X768604Y762762D02*
G03*
X772017Y764175I0J4826D01*
G01*
X773430Y749554D02*
G03*
X776850Y750975I0J4826D01*
G01*
X773430Y749554D02*
G03*
X776842Y750967I0J4826D01*
G01*
X875411Y652780D02*
G03*
X865505Y662686I-9906J0D01*
G01*
X874156Y683006D02*
G03*
X865505Y688086I-8651J-4826D01*
G01*
Y642874D02*
G03*
X875411Y652780I0J9906D01*
G01*
X865505Y617474D02*
G03*
X875411Y627380I0J9906D01*
G01*
D02*
G03*
X865505Y637286I-9906J0D01*
G01*
X875411Y601980D02*
G03*
X865505Y611886I-9906J0D01*
G01*
Y592074D02*
G03*
X875411Y601980I0J9906D01*
G01*
Y576580D02*
G03*
X865505Y586486I-9906J0D01*
G01*
X859155Y662686D02*
G03*
X859155Y642874I0J-9906D01*
G01*
Y688086D02*
G03*
X859155Y668274I0J-9906D01*
G01*
Y637286D02*
G03*
X859155Y617474I0J-9906D01*
G01*
Y586486D02*
G03*
X859155Y566674I0J-9906D01*
G01*
Y561086D02*
G03*
X859155Y541274I0J-9906D01*
G01*
Y611886D02*
G03*
X859155Y592074I0J-9906D01*
G01*
X1288176Y450850D02*
G03*
X1267569Y447624I-10556J0D01*
G01*
X1213516Y542290D02*
G03*
X1213516Y542290I-9556J0D01*
G01*
X1120806Y541020D02*
G03*
X1120806Y541020I-9556J0D01*
G01*
X1046844Y516272D02*
G03*
X1048258Y519684I-3413J3413D01*
G01*
Y539305D02*
G03*
X1046844Y542718I-4826J0D01*
G01*
X1046837Y516264D02*
G03*
X1048258Y519684I-3405J3420D01*
G01*
Y539305D02*
G03*
X1046837Y542725I-4826J0D01*
G01*
X1274394Y440799D02*
G03*
X1288176Y450850I3226J10051D01*
G01*
X1264920Y433324D02*
G03*
X1268340Y434745I0J4826D01*
G01*
X1264920Y433324D02*
G03*
X1268333Y434738I0J4826D01*
G01*
X1288176Y374650D02*
G03*
X1288176Y374650I-10556J0D01*
G01*
X1167758Y442976D02*
G03*
X1167758Y433324I-8248J-4826D01*
G01*
X1038606Y533044D02*
G03*
X1029801Y534362I-5778J-8534D01*
G01*
X1041934Y554736D02*
G03*
X1035854Y540058I-9106J-4826D01*
G01*
X1025572Y538591D02*
G03*
X1022160Y540004I-3413J-3413D01*
G01*
X1025579Y538583D02*
G03*
X1022160Y540004I-3420J-3405D01*
G01*
X1037590Y509016D02*
G03*
X1041010Y510437I0J4826D01*
G01*
X1043133Y499110D02*
G03*
X1035671Y509016I-10306J0D01*
G01*
X1023721Y494284D02*
G03*
X1043133Y499110I9106J4826D01*
G01*
X1037590Y509016D02*
G03*
X1041003Y510429I0J4826D01*
G01*
X1029984Y509016D02*
G03*
X1023721Y503936I2843J-9906D01*
G01*
X1022976Y527537D02*
G03*
X1024337Y518668I9852J-3027D01*
G01*
X1008698Y444754D02*
G03*
X1012117Y446175I0J4826D01*
G01*
X1008698Y444754D02*
G03*
X1012110Y446167I0J4826D01*
G01*
X1288676Y217170D02*
G03*
X1288676Y217170I-11056J0D01*
G01*
X1169066Y361950D02*
G03*
X1150265Y359530I-9556J0D01*
G01*
X1157090Y352705D02*
G03*
X1169066Y361950I2420J9245D01*
G01*
X1172876Y246380D02*
G03*
X1172876Y246380I-9556J0D01*
G01*
X1256030Y165354D02*
G03*
X1259450Y166775I0J4826D01*
G01*
X1256030Y165354D02*
G03*
X1259443Y166768I0J4826D01*
G01*
X1171568Y175006D02*
G03*
X1155072Y175006I-8248J-4826D01*
G01*
Y165354D02*
G03*
X1171568Y165354I8248J4826D01*
G01*
X1093470Y175006D02*
G03*
X1090058Y173592I0J-4826D01*
G01*
X1093470Y175006D02*
G03*
X1090050Y173585I0J-4826D01*
G01*
X1040796Y359410D02*
G03*
X1040796Y359410I-9556J0D01*
G01*
X1016000Y213614D02*
G03*
X1019420Y215035I0J4826D01*
G01*
X1016000Y213614D02*
G03*
X1019413Y215028I0J4826D01*
G01*
X963758Y549910D02*
G03*
X950609Y540004I-10306J0D01*
G01*
X962559Y529336D02*
G03*
X961943Y530352I-9106J-4826D01*
G01*
X944962D02*
G03*
X944346Y529336I8490J-5842D01*
G01*
X984114Y527915D02*
G03*
X980694Y529336I-3420J-3405D01*
G01*
X984107Y527923D02*
G03*
X980694Y529336I-3413J-3413D01*
G01*
X944346Y519684D02*
G03*
X950609Y514604I9106J4826D01*
G01*
X956296D02*
G03*
X962559Y519684I-2843J9906D01*
G01*
X915670Y540004D02*
G03*
X912250Y538583I0J-4826D01*
G01*
X915670Y540004D02*
G03*
X912258Y538591I0J-4826D01*
G01*
X917194Y514604D02*
G03*
X913774Y513183I0J-4826D01*
G01*
X917194Y514604D02*
G03*
X913782Y513190I0J-4826D01*
G01*
X963758Y499110D02*
G03*
X961943Y504952I-10306J0D01*
G01*
X944962D02*
G03*
X963758Y499110I8490J-5842D01*
G01*
X995061Y495698D02*
G03*
X998474Y494284I3413J3413D01*
G01*
X995054Y495705D02*
G03*
X998474Y494284I3420J3405D01*
G01*
X963758Y473710D02*
G03*
X963758Y473710I-10306J0D01*
G01*
X898652Y505968D02*
G03*
X902072Y507389I0J4826D01*
G01*
X898652Y505968D02*
G03*
X902065Y507382I0J4826D01*
G01*
X907796Y495554D02*
G03*
X911216Y496975I0J4826D01*
G01*
X907796Y495554D02*
G03*
X911208Y496968I0J4826D01*
G01*
X874156Y530606D02*
G03*
X865505Y535686I-8651J-4826D01*
G01*
Y515874D02*
G03*
X874156Y520954I0J9906D01*
G01*
Y505206D02*
G03*
X873684Y505968I-8651J-4826D01*
G01*
X865505Y490474D02*
G03*
X874156Y495554I0J9906D01*
G01*
X875411Y474980D02*
G03*
X865505Y484886I-9906J0D01*
G01*
Y465074D02*
G03*
X875411Y474980I0J9906D01*
G01*
X850976Y505968D02*
G03*
X859155Y490474I8179J-5588D01*
G01*
Y484886D02*
G03*
X859155Y465074I0J-9906D01*
G01*
Y535686D02*
G03*
X859155Y515874I0J-9906D01*
G01*
X808482Y515620D02*
G03*
X805070Y514207I0J-4826D01*
G01*
X808482Y515620D02*
G03*
X805062Y514199I0J-4826D01*
G01*
X874156Y454406D02*
G03*
X865505Y459486I-8651J-4826D01*
G01*
Y439674D02*
G03*
X874156Y444754I0J9906D01*
G01*
X859155Y459486D02*
G03*
X859155Y439674I0J-9906D01*
G01*
X964596Y359410D02*
G03*
X964596Y359410I-9556J0D01*
G01*
X917812Y286623D02*
G03*
X914400Y288036I-3413J-3413D01*
G01*
X971931Y275590D02*
G03*
X971931Y275590I-11811J0D01*
G01*
X917820Y286615D02*
G03*
X914400Y288036I-3420J-3405D01*
G01*
X971931Y237490D02*
G03*
X955910Y248525I-11811J0D01*
G01*
X949085Y241700D02*
G03*
X971931Y237490I11035J-4210D01*
G01*
X865505Y414274D02*
G03*
X875411Y424180I0J9906D01*
G01*
D02*
G03*
X865505Y434086I-9906J0D01*
G01*
X859155D02*
G03*
X859155Y414274I0J-9906D01*
G01*
X798971Y288036D02*
G03*
X802266Y295910I-7761J7874D01*
G01*
Y270510D02*
G03*
X798971Y278384I-11056J0D01*
G01*
X801656Y266889D02*
G03*
X802266Y270510I-10446J3621D01*
G01*
X971676Y87630D02*
G03*
X971676Y87630I-11556J0D01*
G01*
X971931Y199390D02*
G03*
X971931Y199390I-11811J0D01*
G01*
X997076Y87630D02*
G03*
X997076Y87630I-11556J0D01*
G01*
X839860Y215035D02*
G03*
X843280Y213614I3420J3405D01*
G01*
X839867Y215028D02*
G03*
X843280Y213614I3413J3413D01*
G01*
X802266Y346710D02*
G03*
X802266Y346710I-11056J0D01*
G01*
Y321310D02*
G03*
X802266Y321310I-11056J0D01*
G01*
Y295910D02*
G03*
X780155Y295756I-11056J0D01*
G01*
X776589Y299322D02*
G03*
X773176Y300736I-3413J-3413D01*
G01*
X776596Y299315D02*
G03*
X773176Y300736I-3420J-3405D01*
G01*
X726066Y321310D02*
G03*
X726066Y321310I-11056J0D01*
G01*
X780764Y274131D02*
G03*
X794831Y260064I10446J-3621D01*
G01*
X804576Y179070D02*
G03*
X804576Y179070I-9556J0D01*
G01*
Y80010D02*
G03*
X804576Y80010I-9556J0D01*
G01*
X726066Y270510D02*
G03*
X723877Y277114I-11056J0D01*
G01*
X721225Y286766D02*
G03*
X724957Y291084I-6215J9144D01*
G01*
Y300736D02*
G03*
X708795Y286766I-9947J-4826D01*
G01*
X706143Y277114D02*
G03*
X726066Y270510I8867J-6604D01*
G01*
X728376Y179070D02*
G03*
X728376Y179070I-9556J0D01*
G01*
Y80010D02*
G03*
X728376Y80010I-9556J0D01*
G01*
X675344Y889254D02*
G03*
X672704Y886206I6011J-7874D01*
G01*
X687705Y871474D02*
G03*
X697611Y881380I0J9906D01*
G01*
X672704Y876554D02*
G03*
X681355Y871474I8651J4826D01*
G01*
X697611Y855980D02*
G03*
X687705Y865886I-9906J0D01*
G01*
Y846074D02*
G03*
X697611Y855980I0J9906D01*
G01*
X681355Y865886D02*
G03*
X681355Y846074I0J-9906D01*
G01*
X668782Y886206D02*
G03*
X665369Y884792I0J-4826D01*
G01*
X668782Y886206D02*
G03*
X665362Y884785I0J-4826D01*
G01*
X655210Y874632D02*
G03*
X653796Y871220I3413J-3413D01*
G01*
X662035Y858410D02*
G03*
X663448Y861822I-3413J3413D01*
G01*
X662027Y858402D02*
G03*
X663448Y861822I-3405J3420D01*
G01*
X655217Y874640D02*
G03*
X653796Y871220I3405J-3420D01*
G01*
X643516Y835660D02*
G03*
X642906Y839281I-11056J0D01*
G01*
X697611Y830580D02*
G03*
X687705Y840486I-9906J0D01*
G01*
Y820674D02*
G03*
X697611Y830580I0J9906D01*
G01*
X672704Y825754D02*
G03*
X681355Y820674I8651J4826D01*
G01*
Y840486D02*
G03*
X672704Y835406I0J-9906D01*
G01*
X697611Y805180D02*
G03*
X687705Y815086I-9906J0D01*
G01*
Y795274D02*
G03*
X697611Y805180I0J9906D01*
G01*
X681355Y815086D02*
G03*
X672704Y810006I0J-9906D01*
G01*
Y800354D02*
G03*
X681355Y795274I8651J4826D01*
G01*
X652780Y835406D02*
G03*
X649368Y833992I0J-4826D01*
G01*
X652780Y835406D02*
G03*
X649360Y833985I0J-4826D01*
G01*
X643516Y810260D02*
G03*
X642906Y813881I-11056J0D01*
G01*
X672846Y794766D02*
G03*
X669434Y793353I0J-4826D01*
G01*
X672846Y794766D02*
G03*
X669426Y793345I0J-4826D01*
G01*
X663345Y787264D02*
G03*
X661924Y783844I3405J-3420D01*
G01*
X652780Y810006D02*
G03*
X649368Y808593I0J-4826D01*
G01*
X652780Y810006D02*
G03*
X649360Y808585I0J-4826D01*
G01*
X643516Y784860D02*
G03*
X642906Y788481I-11056J0D01*
G01*
X640080Y898906D02*
G03*
X636691Y897516I0J-4826D01*
G01*
X640080Y898906D02*
G03*
X636691Y897516I0J-4826D01*
G01*
X643516Y861060D02*
G03*
X628839Y871506I-11056J0D01*
G01*
X622014Y864681D02*
G03*
X643516Y861060I10446J-3621D01*
G01*
X625720Y874625D02*
G03*
X624705Y875404I-3420J-3405D01*
G01*
X625713Y874632D02*
G03*
X624705Y875404I-3413J-3413D01*
G01*
X625720Y849225D02*
G03*
X622300Y850646I-3420J-3405D01*
G01*
X625713Y849232D02*
G03*
X622300Y850646I-3413J-3413D01*
G01*
X636081Y846106D02*
G03*
X628839Y846106I-3621J-10446D01*
G01*
X622014Y839281D02*
G03*
X643516Y835660I10446J-3621D01*
G01*
X625720Y823825D02*
G03*
X622300Y825246I-3420J-3405D01*
G01*
X625713Y823832D02*
G03*
X622300Y825246I-3413J-3413D01*
G01*
X636081Y820706D02*
G03*
X628839Y820706I-3621J-10446D01*
G01*
X636081Y795306D02*
G03*
X628839Y795306I-3621J-10446D01*
G01*
X622014Y813881D02*
G03*
X643516Y810260I10446J-3621D01*
G01*
X625713Y798432D02*
G03*
X622300Y799846I-3413J-3413D01*
G01*
X622014Y788481D02*
G03*
X643516Y784860I10446J-3621D01*
G01*
X625720Y798425D02*
G03*
X622300Y799846I-3420J-3405D01*
G01*
X687705Y744474D02*
G03*
X696356Y749554I0J9906D01*
G01*
Y759206D02*
G03*
X692984Y762762I-8651J-4826D01*
G01*
X697611Y728980D02*
G03*
X687705Y738886I-9906J0D01*
G01*
X676076Y762762D02*
G03*
X681355Y744474I5279J-8382D01*
G01*
Y738886D02*
G03*
X681355Y719074I0J-9906D01*
G01*
X697611Y703580D02*
G03*
X687705Y713486I-9906J0D01*
G01*
Y719074D02*
G03*
X697611Y728980I0J9906D01*
G01*
X687705Y693674D02*
G03*
X697611Y703580I0J9906D01*
G01*
Y678180D02*
G03*
X687705Y688086I-9906J0D01*
G01*
Y668274D02*
G03*
X697611Y678180I0J9906D01*
G01*
X681355Y713486D02*
G03*
X672704Y708406I0J-9906D01*
G01*
Y698754D02*
G03*
X681355Y693674I8651J4826D01*
G01*
Y688086D02*
G03*
X681355Y668274I0J-9906D01*
G01*
X661924Y775716D02*
G03*
X663345Y772296I4826J0D01*
G01*
X661924Y775716D02*
G03*
X663337Y772303I4826J0D01*
G01*
Y787256D02*
G03*
X661924Y783844I3413J-3413D01*
G01*
X671466Y764175D02*
G03*
X674878Y762762I3413J3413D01*
G01*
X671458Y764183D02*
G03*
X674878Y762762I3420J3405D01*
G01*
X652780Y708406D02*
G03*
X649368Y706992I0J-4826D01*
G01*
X652780Y708406D02*
G03*
X649360Y706985I0J-4826D01*
G01*
X643516Y683260D02*
G03*
X642906Y686881I-11056J0D01*
G01*
X697611Y652780D02*
G03*
X687705Y662686I-9906J0D01*
G01*
Y642874D02*
G03*
X697611Y652780I0J9906D01*
G01*
Y627380D02*
G03*
X687705Y637286I-9906J0D01*
G01*
Y592074D02*
G03*
X697611Y601980I0J9906D01*
G01*
D02*
G03*
X687705Y611886I-9906J0D01*
G01*
X697611Y576580D02*
G03*
X687705Y586486I-9906J0D01*
G01*
Y617474D02*
G03*
X697611Y627380I0J9906D01*
G01*
Y551180D02*
G03*
X687705Y561086I-9906J0D01*
G01*
Y541274D02*
G03*
X697611Y551180I0J9906D01*
G01*
X687705Y566674D02*
G03*
X697611Y576580I0J9906D01*
G01*
X681355Y611886D02*
G03*
X681355Y592074I0J-9906D01*
G01*
Y662686D02*
G03*
X681355Y642874I0J-9906D01*
G01*
Y637286D02*
G03*
X681355Y617474I0J-9906D01*
G01*
Y586486D02*
G03*
X672704Y581406I0J-9906D01*
G01*
Y571754D02*
G03*
X681355Y566674I8651J4826D01*
G01*
Y561086D02*
G03*
X681355Y541274I0J-9906D01*
G01*
X643516Y759460D02*
G03*
X628839Y769906I-11056J0D01*
G01*
X625720Y773025D02*
G03*
X622300Y774446I-3420J-3405D01*
G01*
X625713Y773033D02*
G03*
X622300Y774446I-3413J-3413D01*
G01*
X622014Y763081D02*
G03*
X643516Y759460I10446J-3621D01*
G01*
X625720Y747625D02*
G03*
X622300Y749046I-3420J-3405D01*
G01*
X625713Y747633D02*
G03*
X622300Y749046I-3413J-3413D01*
G01*
X643516Y734060D02*
G03*
X628839Y744506I-11056J0D01*
G01*
X643516Y708660D02*
G03*
X628839Y719106I-11056J0D01*
G01*
X625713Y722233D02*
G03*
X622300Y723646I-3413J-3413D01*
G01*
X622014Y737681D02*
G03*
X643516Y734060I10446J-3621D01*
G01*
X625720Y722225D02*
G03*
X622300Y723646I-3420J-3405D01*
G01*
X622014Y686881D02*
G03*
X643516Y683260I10446J-3621D01*
G01*
X622014Y712281D02*
G03*
X643516Y708660I10446J-3621D01*
G01*
X625713Y696833D02*
G03*
X622300Y698246I-3413J-3413D01*
G01*
X625720Y696825D02*
G03*
X622300Y698246I-3420J-3405D01*
G01*
X636081Y693706D02*
G03*
X628839Y693706I-3621J-10446D01*
G01*
X464666Y871220D02*
G03*
X464666Y871220I-10006J0D01*
G01*
X539625Y876046D02*
G03*
X539625Y866394I-8765J-4826D01*
G01*
Y850646D02*
G03*
X539625Y840994I-8765J-4826D01*
G01*
X464666Y845820D02*
G03*
X464666Y845820I-10006J0D01*
G01*
X397906Y844550D02*
G03*
X377299Y841324I-10556J0D01*
G01*
X384124Y834499D02*
G03*
X397906Y844550I3226J10051D01*
G01*
X539625Y825246D02*
G03*
X539625Y815594I-8765J-4826D01*
G01*
Y799846D02*
G03*
X539625Y790194I-8765J-4826D01*
G01*
X464666Y820420D02*
G03*
X464666Y820420I-10006J0D01*
G01*
Y795020D02*
G03*
X464666Y795020I-10006J0D01*
G01*
X314706Y821690D02*
G03*
X314706Y821690I-12446J0D01*
G01*
X313732Y801116D02*
G03*
X313732Y791464I-11472J-4826D01*
G01*
X539625Y774446D02*
G03*
X539625Y764794I-8765J-4826D01*
G01*
X464666Y769620D02*
G03*
X464666Y769620I-10006J0D01*
G01*
X539625Y749046D02*
G03*
X539625Y739394I-8765J-4826D01*
G01*
X464666Y744220D02*
G03*
X464666Y744220I-10006J0D01*
G01*
X539625Y723646D02*
G03*
X539625Y713994I-8765J-4826D01*
G01*
X464666Y718820D02*
G03*
X464666Y718820I-10006J0D01*
G01*
Y693420D02*
G03*
X464666Y693420I-10006J0D01*
G01*
X397906Y768350D02*
G03*
X397906Y768350I-10556J0D01*
G01*
X393014Y683369D02*
G03*
X406796Y693420I3226J10051D01*
G01*
X393014Y607169D02*
G03*
X406796Y617220I3226J10051D01*
G01*
Y693420D02*
G03*
X386189Y690194I-10556J0D01*
G01*
X406796Y617220D02*
G03*
X386189Y613994I-10556J0D01*
G01*
X339090Y791464D02*
G03*
X342503Y792878I0J4826D01*
G01*
X339090Y791464D02*
G03*
X342510Y792885I0J4826D01*
G01*
X317246Y665480D02*
G03*
X317246Y665480I-12446J0D01*
G01*
X342900Y635254D02*
G03*
X346312Y636668I0J4826D01*
G01*
X380643Y608448D02*
G03*
X379222Y605028I3405J-3420D01*
G01*
X380635Y608441D02*
G03*
X379222Y605028I3413J-3413D01*
G01*
X342900Y635254D02*
G03*
X346320Y636675I0J4826D01*
G01*
X316272Y644906D02*
G03*
X316272Y635254I-11472J-4826D01*
G01*
X421640Y581406D02*
G03*
X418228Y579992I0J-4826D01*
G01*
X421640Y581406D02*
G03*
X418220Y579985I0J-4826D01*
G01*
X405526Y549910D02*
G03*
X405021Y553136I-10556J0D01*
G01*
X398196Y559961D02*
G03*
X388874Y558528I-3226J-10051D01*
G01*
Y541292D02*
G03*
X405526Y549910I6096J8618D01*
G01*
X146426Y550820D02*
G03*
X138991Y540374I-11056J0D01*
G01*
X145816Y547199D02*
G03*
X146426Y550820I-10446J3621D01*
G01*
X379222Y538988D02*
G03*
X380643Y535568I4826J0D01*
G01*
X379222Y538988D02*
G03*
X380635Y535575I4826J0D01*
G01*
X687705Y515874D02*
G03*
X697611Y525780I0J9906D01*
G01*
D02*
G03*
X687705Y535686I-9906J0D01*
G01*
X697611Y474980D02*
G03*
X687705Y484886I-9906J0D01*
G01*
Y490474D02*
G03*
X697611Y500380I0J9906D01*
G01*
X687705Y465074D02*
G03*
X697611Y474980I0J9906D01*
G01*
Y500380D02*
G03*
X687705Y510286I-9906J0D01*
G01*
Y439674D02*
G03*
X697611Y449580I0J9906D01*
G01*
D02*
G03*
X687705Y459486I-9906J0D01*
G01*
X681355Y535686D02*
G03*
X672704Y530606I0J-9906D01*
G01*
Y520954D02*
G03*
X681355Y515874I8651J4826D01*
G01*
Y459486D02*
G03*
X681355Y439674I0J-9906D01*
G01*
Y510286D02*
G03*
X681355Y490474I0J-9906D01*
G01*
Y484886D02*
G03*
X681355Y465074I0J-9906D01*
G01*
X697611Y424180D02*
G03*
X687705Y434086I-9906J0D01*
G01*
X681355D02*
G03*
X672704Y429006I0J-9906D01*
G01*
X687705Y414274D02*
G03*
X697611Y424180I0J9906D01*
G01*
X672704Y419354D02*
G03*
X681355Y414274I8651J4826D01*
G01*
X683768Y381254D02*
G03*
X687188Y382675I0J4826D01*
G01*
X683768Y381254D02*
G03*
X687180Y382668I0J4826D01*
G01*
X552570Y334925D02*
G03*
X564546Y344170I2420J9245D01*
G01*
X568960Y286766D02*
G03*
X565547Y285352I0J-4826D01*
G01*
X568960Y286766D02*
G03*
X565540Y285345I0J-4826D01*
G01*
X564546Y344170D02*
G03*
X545745Y341750I-9556J0D01*
G01*
X557410Y277215D02*
G03*
X564546Y267970I-2420J-9245D01*
G01*
X497078Y281432D02*
G03*
X500498Y282853I0J4826D01*
G01*
X497078Y281432D02*
G03*
X500490Y282845I0J4826D01*
G01*
X564546Y267970D02*
G03*
X564235Y270390I-9556J0D01*
G01*
X317246Y524510D02*
G03*
X317246Y524510I-12446J0D01*
G01*
X393843Y522368D02*
G03*
X397256Y520954I3413J3413D01*
G01*
X405526Y473710D02*
G03*
X405526Y473710I-10556J0D01*
G01*
X393836Y522375D02*
G03*
X397256Y520954I3420J3405D01*
G01*
X317246Y499110D02*
G03*
X317246Y499110I-12446J0D01*
G01*
X258590Y420775D02*
G03*
X262010Y419354I3420J3405D01*
G01*
X258597Y420768D02*
G03*
X262010Y419354I3413J3413D01*
G01*
X149860Y390906D02*
G03*
X146447Y389492I0J-4826D01*
G01*
X149860Y390906D02*
G03*
X146440Y389485I0J-4826D01*
G01*
X146426Y505820D02*
G03*
X146426Y505820I-11056J0D01*
G01*
X81426D02*
G03*
X81426Y505820I-11056J0D01*
G01*
X82946Y384810D02*
G03*
X82946Y384810I-10556J0D01*
G01*
X405526Y374650D02*
G03*
X403205Y381254I-10556J0D01*
G01*
X386735D02*
G03*
X405526Y374650I8235J-6604D01*
G01*
X317246Y346710D02*
G03*
X317246Y346710I-12446J0D01*
G01*
Y321310D02*
G03*
X317246Y321310I-12446J0D01*
G01*
X405526Y298450D02*
G03*
X387409Y291084I-10556J0D01*
G01*
X406796Y198120D02*
G03*
X406796Y198120I-10556J0D01*
G01*
X402531Y291084D02*
G03*
X405526Y298450I-7561J7366D01*
G01*
X178308Y291084D02*
G03*
X174888Y289663I0J-4826D01*
G01*
X178308Y291084D02*
G03*
X174895Y289671I0J-4826D01*
G01*
X406796Y121920D02*
G03*
X386852Y126746I-10556J0D01*
G01*
Y117094D02*
G03*
X406796Y121920I9388J4826D01*
G01*
X317246Y168910D02*
G03*
X317246Y168910I-12446J0D01*
G01*
Y143510D02*
G03*
X309500Y131985I-12446J0D01*
G01*
X322970Y118515D02*
G03*
X326390Y117094I3420J3405D01*
G01*
X316325Y138810D02*
G03*
X317246Y143510I-11525J4700D01*
G01*
X322977Y118507D02*
G03*
X326390Y117094I3413J3413D01*
G01*
X82946Y308610D02*
G03*
X82441Y311836I-10556J0D01*
G01*
X75616Y318661D02*
G03*
X82946Y308610I-3226J-10051D01*
G01*
X83446Y154940D02*
G03*
X83446Y154940I-11056J0D01*
G01*
X1316920Y981964D02*
X1369314Y929569D01*
X1309735Y981964D02*
X1369314Y922385D01*
X1295367Y981964D02*
X1369314Y908017D01*
X1360025Y981964D02*
X1369314Y972675D01*
X1324104Y981964D02*
X1369314Y936754D01*
X1259446Y981964D02*
X1369314Y872096D01*
X1252262Y981964D02*
X1369314Y864912D01*
X1245077Y981964D02*
X1369314Y857727D01*
X1288183Y981964D02*
X1369314Y900833D01*
X1280998Y981964D02*
X1369314Y893648D01*
X1223525Y981964D02*
X1369314Y836175D01*
X1216340Y981964D02*
X1369314Y828990D01*
X1209156Y981964D02*
X1369314Y821806D01*
X1237893Y981964D02*
X1369314Y850543D01*
X1230709Y981964D02*
X1369314Y843359D01*
X1195451Y820166D02*
X1357249Y981964D01*
X1202635Y820166D02*
X1364433Y981964D01*
X1181082Y820166D02*
X1342880Y981964D01*
X1188267Y820166D02*
X1350065Y981964D01*
X1345656D02*
X1369314Y958306D01*
X1338472Y981964D02*
X1369314Y951122D01*
X1331288Y981964D02*
X1369314Y943938D01*
X1367209Y981964D02*
X1369314Y979859D01*
X1352841Y981964D02*
X1369314Y965490D01*
X1289674Y849731D02*
X1369314Y929371D01*
X1289120Y856362D02*
X1369314Y936555D01*
X1289834Y828339D02*
X1369314Y907819D01*
X1302551Y981964D02*
X1369314Y915201D01*
X1289890Y878684D02*
X1369314Y958108D01*
X1273814Y981964D02*
X1369314Y886464D01*
X1266630Y981964D02*
X1369314Y879280D01*
X1287941Y883919D02*
X1369314Y965292D01*
X1278261Y888608D02*
X1369314Y979661D01*
X1284138Y887301D02*
X1369314Y972477D01*
X1283802Y836675D02*
X1369314Y922187D01*
X1287726Y833415D02*
X1369314Y915003D01*
X1281341Y862951D02*
X1369314Y950924D01*
X1286114Y860540D02*
X1369314Y943740D01*
X1187604Y981964D02*
X1281182Y888386D01*
X1180419Y981964D02*
X1274617Y887767D01*
X1166051Y981964D02*
X1268088Y879927D01*
X1173235Y981964D02*
X1270467Y884732D01*
X1166714Y820166D02*
X1328512Y981964D01*
X1159530Y820166D02*
X1321328Y981964D01*
X1173898Y820166D02*
X1335696Y981964D01*
X1209819Y820166D02*
X1267852Y878199D01*
X1158867Y981964D02*
X1270853Y869978D01*
X1151683Y981964D02*
X1272473Y861173D01*
X1130130Y981964D02*
X1274982Y837112D01*
X1137314Y981964D02*
X1267859Y851419D01*
X1144498Y981964D02*
X1269119Y857343D01*
X1145161Y820166D02*
X1306959Y981964D01*
X1152346Y820166D02*
X1314144Y981964D01*
X1130793Y820166D02*
X1292591Y981964D01*
X1137977Y820166D02*
X1299775Y981964D01*
X1271298Y869532D02*
X1277672Y863159D01*
X1272105Y860900D02*
X1277776Y866570D01*
X1277705Y837762D02*
X1281329Y841386D01*
X1278139Y841140D02*
X1281858Y837420D01*
X1224188Y820166D02*
X1272541Y868519D01*
X1231372Y820166D02*
X1270160Y858954D01*
X1217003Y820166D02*
X1269159Y872322D01*
X1238556Y820166D02*
X1268109Y849719D01*
X1245740Y820166D02*
X1270520Y844946D01*
X1252924Y820166D02*
X1274698Y841939D01*
X1260109Y820166D02*
X1267898Y827955D01*
X1265461Y820166D02*
X1268444Y823149D01*
X1289946Y799714D02*
X1369314Y879082D01*
X1289706Y879862D02*
X1369314Y800254D01*
X1289087Y873297D02*
X1369314Y793069D01*
X1288290Y812426D02*
X1369314Y893450D01*
X1289946Y806898D02*
X1369314Y886266D01*
X1289879Y850952D02*
X1369314Y771517D01*
X1287893Y845753D02*
X1369314Y764333D01*
X1284063Y842399D02*
X1369314Y757148D01*
X1289946Y792530D02*
X1369314Y871898D01*
X1286052Y869147D02*
X1369314Y785885D01*
X1281247Y866768D02*
X1369314Y778701D01*
X1194788Y981964D02*
X1369314Y807438D01*
X1192687Y688086D02*
X1369314Y864713D01*
X1201972Y981964D02*
X1369314Y814622D01*
X1281106Y812426D02*
X1369314Y900634D01*
X1214239Y688086D02*
X1369314Y843161D01*
X1221423Y688086D02*
X1369314Y835976D01*
X1199871Y688086D02*
X1369314Y857529D01*
X1207055Y688086D02*
X1369314Y850345D01*
X1289540Y829738D02*
X1369314Y749964D01*
X1281659Y816066D02*
X1285300Y812426D01*
X1289946Y790314D02*
Y812426D01*
X1273921D02*
X1277321Y815826D01*
X1274743Y815798D02*
X1278115Y812426D01*
X1289946Y807779D02*
X1369314Y728411D01*
X1289946Y800595D02*
X1369314Y721227D01*
X1289232Y822862D02*
X1369314Y742780D01*
X1286324Y818586D02*
X1369314Y735596D01*
X1271371Y812426D02*
X1275269Y816324D01*
X1228608Y688086D02*
X1369314Y828792D01*
X1271371Y812426D02*
X1289946D01*
X1267834Y806196D02*
Y810528D01*
X1265659Y810514D02*
X1267834Y808339D01*
X1250160Y688086D02*
X1369314Y807240D01*
X1257345Y688086D02*
X1369314Y800055D01*
X1235792Y688086D02*
X1369314Y821608D01*
X1242976Y688086D02*
X1369314Y814424D01*
X1174297Y806196D02*
X1178615Y810514D01*
X1172264D02*
X1176582Y806196D01*
X1179448Y810514D02*
X1183766Y806196D01*
X1165080Y810514D02*
X1169398Y806196D01*
X1167112D02*
X1171430Y810514D01*
X1193817D02*
X1198135Y806196D01*
X1188665D02*
X1192983Y810514D01*
X1195849Y806196D02*
X1200167Y810514D01*
X1181481Y806196D02*
X1185799Y810514D01*
X1186633D02*
X1190951Y806196D01*
X1143527Y810514D02*
X1147845Y806196D01*
X1138376D02*
X1142694Y810514D01*
X1145560Y806196D02*
X1149878Y810514D01*
X1131191Y806196D02*
X1135509Y810514D01*
X1136343D02*
X1140661Y806196D01*
X1157896Y810514D02*
X1162214Y806196D01*
X1159928D02*
X1164246Y810514D01*
X1150712D02*
X1155030Y806196D01*
X1152744D02*
X1157062Y810514D01*
X1244106D02*
X1248424Y806196D01*
X1238954D02*
X1243272Y810514D01*
X1246139Y806196D02*
X1250457Y810514D01*
X1231770Y806196D02*
X1236088Y810514D01*
X1236922D02*
X1241240Y806196D01*
X1258475Y810514D02*
X1262793Y806196D01*
X1260507D02*
X1264825Y810514D01*
X1251291D02*
X1255609Y806196D01*
X1253323D02*
X1257641Y810514D01*
X1210218Y806196D02*
X1214536Y810514D01*
X1208185D02*
X1212503Y806196D01*
X1215369Y810514D02*
X1219687Y806196D01*
X1201001Y810514D02*
X1205319Y806196D01*
X1203034D02*
X1207352Y810514D01*
X1224586Y806196D02*
X1228904Y810514D01*
X1229738D02*
X1234056Y806196D01*
X1217402D02*
X1221720Y810514D01*
X1222554D02*
X1226872Y806196D01*
X979924Y820166D02*
X1141722Y981964D01*
X979261D02*
X1141059Y820166D01*
X986446Y981964D02*
X1148244Y820166D01*
X972077Y981964D02*
X1133875Y820166D01*
X972740D02*
X1134538Y981964D01*
X1000814D02*
X1162612Y820166D01*
X994293D02*
X1156091Y981964D01*
X1001477Y820166D02*
X1163275Y981964D01*
X987109Y820166D02*
X1148907Y981964D01*
X993630D02*
X1155428Y820166D01*
X950525Y981964D02*
X1112323Y820166D01*
X944003D02*
X1105801Y981964D01*
X951188Y820166D02*
X1112986Y981964D01*
X936819Y820166D02*
X1098617Y981964D01*
X943340D02*
X1105138Y820166D01*
X964893Y981964D02*
X1126691Y820166D01*
X965556D02*
X1127354Y981964D01*
X957709D02*
X1119507Y820166D01*
X958372D02*
X1120170Y981964D01*
X1115761D02*
X1268186Y829539D01*
X1108577Y981964D02*
X1267918Y822623D01*
X1122946Y981964D02*
X1270706Y834204D01*
X1037398Y820166D02*
X1199196Y981964D01*
X1043919D02*
X1205717Y820166D01*
X1051767D02*
X1213565Y981964D01*
X1058288D02*
X1220086Y820166D01*
X1044582D02*
X1206380Y981964D01*
X1051104D02*
X1212902Y820166D01*
X1015845D02*
X1177644Y981964D01*
X1015183D02*
X1176981Y820166D01*
X1022367Y981964D02*
X1184165Y820166D01*
X1007998Y981964D02*
X1169796Y820166D01*
X1008661D02*
X1170459Y981964D01*
X1030214Y820166D02*
X1192012Y981964D01*
X1036735D02*
X1198533Y820166D01*
X1023030D02*
X1184828Y981964D01*
X1029551D02*
X1191349Y820166D01*
X875398Y880877D02*
X976486Y981964D01*
X872185Y863295D02*
X990854Y981964D01*
X874972Y858897D02*
X998038Y981964D01*
X873929Y886592D02*
X969301Y981964D01*
X875398Y880877D02*
X976486Y981964D01*
X875411Y830600D02*
X1026775Y981964D01*
X873729Y836102D02*
X1019591Y981964D01*
X871498D02*
X1033296Y820166D01*
X873755Y850496D02*
X1005222Y981964D01*
X869900Y839458D02*
X1012407Y981964D01*
X867407Y865702D02*
X983670Y981964D01*
X828393D02*
X990191Y820166D01*
X835577Y981964D02*
X997375Y820166D01*
X806840Y981964D02*
X968638Y820166D01*
X821209Y981964D02*
X983007Y820166D01*
X857130Y981964D02*
X1018928Y820166D01*
X864314Y981964D02*
X1026112Y820166D01*
X842762Y981964D02*
X1004559Y820166D01*
X849946Y981964D02*
X1011744Y820166D01*
X915267D02*
X1077065Y981964D01*
X914604D02*
X1076402Y820166D01*
X921788Y981964D02*
X1083586Y820166D01*
X907419Y981964D02*
X1069217Y820166D01*
X908082D02*
X1069880Y981964D01*
X929635Y820166D02*
X1091433Y981964D01*
X936156D02*
X1097954Y820166D01*
X922451D02*
X1084249Y981964D01*
X928972D02*
X1090770Y820166D01*
X885867Y981964D02*
X1047665Y820166D01*
X879345D02*
X1041143Y981964D01*
X886530Y820166D02*
X1048328Y981964D01*
X872161Y820166D02*
X1033959Y981964D01*
X878682D02*
X1040480Y820166D01*
X900235Y981964D02*
X1062033Y820166D01*
X900898D02*
X1062696Y981964D01*
X893051D02*
X1054849Y820166D01*
X893714D02*
X1055512Y981964D01*
X1101393D02*
X1263191Y820166D01*
X1094872D02*
X1256670Y981964D01*
X1102056Y820166D02*
X1263854Y981964D01*
X1087688Y820166D02*
X1249486Y981964D01*
X1094209D02*
X1256007Y820166D01*
X1116424D02*
X1278223Y981964D01*
X1109240Y820166D02*
X1271038Y981964D01*
X1123609Y820166D02*
X1285407Y981964D01*
X1093238Y810514D02*
X1097556Y806196D01*
X1095270D02*
X1099588Y810514D01*
X1072656Y981964D02*
X1234454Y820166D01*
X1066135D02*
X1227933Y981964D01*
X808990Y820166D02*
X1265461D01*
X1058951D02*
X1220749Y981964D01*
X1065472D02*
X1227270Y820166D01*
X1080503D02*
X1242301Y981964D01*
X1087025D02*
X1248823Y820166D01*
X1073319D02*
X1235117Y981964D01*
X1079840D02*
X1241638Y820166D01*
X1109639Y806196D02*
X1113957Y810514D01*
X1107606D02*
X1111924Y806196D01*
X1114790Y810514D02*
X1119108Y806196D01*
X1100422Y810514D02*
X1104740Y806196D01*
X1102455D02*
X1106773Y810514D01*
X1124007Y806196D02*
X1128325Y810514D01*
X1129159D02*
X1133477Y806196D01*
X1116823D02*
X1121141Y810514D01*
X1121975D02*
X1126293Y806196D01*
X946658D02*
X1267834D01*
X873852Y810514D02*
X1267460D01*
X1049376Y688459D02*
X1157460Y796544D01*
X1088086Y806196D02*
X1092404Y810514D01*
X1045784Y692051D02*
X1150276Y796544D01*
X1056187Y688086D02*
X1164645Y796544D01*
X1056918D02*
X1165376Y688086D01*
X1042550Y796544D02*
X1151008Y688086D01*
X1049734Y796544D02*
X1158192Y688086D01*
X1001876Y806196D02*
X1006193Y810514D01*
X999843D02*
X1004161Y806196D01*
X1007027Y810514D02*
X1011345Y806196D01*
X992659Y810514D02*
X996977Y806196D01*
X994691D02*
X999009Y810514D01*
X1021396D02*
X1025714Y806196D01*
X1016244D02*
X1020562Y810514D01*
X1023428Y806196D02*
X1027746Y810514D01*
X1009060Y806196D02*
X1013378Y810514D01*
X1014212D02*
X1018530Y806196D01*
X971106Y810514D02*
X975424Y806196D01*
X814025Y981964D02*
X975823Y820166D01*
X973139Y806196D02*
X977457Y810514D01*
X963922D02*
X968240Y806196D01*
X965955D02*
X970273Y810514D01*
X985475D02*
X989793Y806196D01*
X987507D02*
X991825Y810514D01*
X978290D02*
X982608Y806196D01*
X980323D02*
X984641Y810514D01*
X1066534Y806196D02*
X1070852Y810514D01*
X1064501D02*
X1068819Y806196D01*
X1071685Y810514D02*
X1076003Y806196D01*
X1057317Y810514D02*
X1061635Y806196D01*
X1059349D02*
X1063667Y810514D01*
X1080902Y806196D02*
X1085220Y810514D01*
X1086054D02*
X1090372Y806196D01*
X1073718D02*
X1078036Y810514D01*
X1078869D02*
X1083187Y806196D01*
X1037797D02*
X1042115Y810514D01*
X1035764D02*
X1040082Y806196D01*
X1042948Y810514D02*
X1047266Y806196D01*
X1028580Y810514D02*
X1032898Y806196D01*
X1030612D02*
X1034930Y810514D01*
X1052165Y806196D02*
X1056483Y810514D01*
X1040790Y780453D02*
X1056881Y796544D01*
X1044981Y806196D02*
X1049299Y810514D01*
X1050133D02*
X1054451Y806196D01*
X1258076Y796544D02*
X1369314Y685306D01*
X1250892Y796544D02*
X1369314Y678122D01*
X1289946Y793411D02*
X1369314Y714043D01*
X1265260Y796544D02*
X1267834Y793970D01*
Y790314D02*
Y796544D01*
X1229339D02*
X1369314Y656569D01*
X1222155Y796544D02*
X1369314Y649385D01*
X1214971Y796544D02*
X1369314Y642201D01*
X1243708Y796544D02*
X1369314Y670938D01*
X1236524Y796544D02*
X1369314Y663754D01*
X1171866Y796544D02*
X1275244Y693166D01*
X1164681Y796544D02*
X1270978Y690248D01*
X1179050Y796544D02*
X1282367Y693227D01*
X1149581Y688086D02*
X1258039Y796544D01*
X1150313D02*
X1258771Y688086D01*
X1207787Y796544D02*
X1369314Y635017D01*
X1200603Y796544D02*
X1369314Y627833D01*
X1156766Y688086D02*
X1265224Y796544D01*
X1157497D02*
X1265955Y688086D01*
X1278675Y790314D02*
X1369314Y699675D01*
X1277327Y693700D02*
X1369314Y785687D01*
X1283545Y692734D02*
X1369314Y778503D01*
X1267834Y790314D02*
X1289946D01*
X1285859D02*
X1369314Y706859D01*
X1287443Y689447D02*
X1369314Y771319D01*
X1271490Y790314D02*
X1369314Y692490D01*
X1289402Y684222D02*
X1369314Y764134D01*
X1178318Y688086D02*
X1280546Y790314D01*
X1171134Y688086D02*
X1273362Y790314D01*
X1185502Y688086D02*
X1287730Y790314D01*
X1163950Y688086D02*
X1267834Y791970D01*
X1049749Y688086D02*
X1269502D01*
X1264529D02*
X1369314Y792871D01*
X1047750Y678434D02*
X1269502D01*
X1204475Y628032D02*
X1254877Y678434D01*
X1209733Y626105D02*
X1262061Y678434D01*
X1121576Y796544D02*
X1230034Y688086D01*
X1120844D02*
X1229303Y796544D01*
X1128029Y688086D02*
X1236487Y796544D01*
X1113660Y688086D02*
X1222118Y796544D01*
X1114392D02*
X1222850Y688086D01*
X1142397D02*
X1250855Y796544D01*
X1135945D02*
X1244403Y688086D01*
X1143129Y796544D02*
X1251587Y688086D01*
X1128760Y796544D02*
X1237218Y688086D01*
X1135213D02*
X1243671Y796544D01*
X1070555Y688086D02*
X1179013Y796544D01*
X1064102D02*
X1172561Y688086D01*
X1071287Y796544D02*
X1179745Y688086D01*
X1046806Y772101D02*
X1071250Y796544D01*
X1063371Y688086D02*
X1171829Y796544D01*
X1084923Y688086D02*
X1193382Y796544D01*
X1085655D02*
X1194113Y688086D01*
X1077739D02*
X1186197Y796544D01*
X1078471D02*
X1186929Y688086D01*
X1146292Y678434D02*
X1198437Y626288D01*
X1107208Y796544D02*
X1215666Y688086D01*
X1153476Y678434D02*
X1203864Y628046D01*
X1109697Y626649D02*
X1161482Y678434D01*
X1115836Y625604D02*
X1168666Y678434D01*
X1131923D02*
X1187041Y623316D01*
X1159002D02*
X1195712D01*
X1110370Y678434D02*
X1165488Y623316D01*
X1117555Y678434D02*
X1172673Y623316D01*
X1092839Y796544D02*
X1201297Y688086D01*
X1092108D02*
X1200566Y796544D01*
X1099292Y688086D02*
X1207750Y796544D01*
X1046874Y770668D02*
X1129455Y688086D01*
X1045190Y765167D02*
X1122271Y688086D01*
X1100024Y796544D02*
X1208482Y688086D01*
X1106476D02*
X1214934Y796544D01*
X1052897Y678434D02*
X1106076Y625254D01*
X1060081Y678434D02*
X1111752Y626763D01*
X1285291Y615454D02*
X1369314Y699476D01*
X1280189Y617536D02*
X1369314Y706661D01*
X1210949Y678434D02*
X1273343Y616041D01*
X1212838Y622026D02*
X1269245Y678434D01*
X1203765D02*
X1269790Y612409D01*
X1289252Y605046D02*
X1369314Y685108D01*
X1206863Y551394D02*
X1369314Y713845D01*
X1288796Y679613D02*
X1369314Y599096D01*
X1288484Y611462D02*
X1369314Y692292D01*
X1288857Y686737D02*
X1369314Y606280D01*
X1185390Y623316D02*
X1240508Y678434D01*
X1178206Y623316D02*
X1233324Y678434D01*
X1192575Y623316D02*
X1247693Y678434D01*
X1163838Y623316D02*
X1218956Y678434D01*
X1171022Y623316D02*
X1226140Y678434D01*
X1186234Y796544D02*
X1369314Y613464D01*
X1198199Y549915D02*
X1369314Y721029D01*
X1193418Y796544D02*
X1369314Y620648D01*
X1196581Y678434D02*
X1268341Y606674D01*
X1268423Y678434D02*
X1369314Y577543D01*
X1261239Y678434D02*
X1369314Y570359D01*
X1285878Y675348D02*
X1369314Y591912D01*
X1281103Y672939D02*
X1369314Y584727D01*
X1254055Y678434D02*
X1369314Y563175D01*
X1218134Y678434D02*
X1278952Y617616D01*
X1246870Y678434D02*
X1369314Y555990D01*
X1212760Y614764D02*
X1272703Y674707D01*
X1239686Y678434D02*
X1369314Y548806D01*
X1232502Y678434D02*
X1369314Y541622D01*
X1211191Y548537D02*
X1268414Y605761D01*
X1213427Y543590D02*
X1270496Y600659D01*
X1149211Y623057D02*
X1204587Y678434D01*
X1141830Y622861D02*
X1197403Y678434D01*
X1156591Y623254D02*
X1211771Y678434D01*
X1124739D02*
X1179857Y623316D01*
X1139107Y678434D02*
X1194225Y623316D01*
X1134450Y622665D02*
X1190219Y678434D01*
X1127069Y622468D02*
X1183035Y678434D01*
X1119689Y622272D02*
X1175851Y678434D01*
X1119623Y612615D02*
X1159066Y613664D01*
X1096002Y678434D02*
X1151322Y623114D01*
X1088818Y678434D02*
X1144324Y622927D01*
X1103186Y678434D02*
X1158321Y623300D01*
X1074449Y678434D02*
X1130328Y622555D01*
X1081634Y678434D02*
X1137326Y622741D01*
X1119367Y622264D02*
X1158874Y623314D01*
X1112560Y550486D02*
X1175738Y613664D01*
X1067265Y678434D02*
X1123330Y622369D01*
X1159066Y613664D02*
X1195712D01*
X1139734Y613150D02*
X1201389Y551494D01*
X1132735Y612964D02*
X1196933Y548766D01*
X1117504Y548245D02*
X1182923Y613664D01*
X1125737Y612778D02*
X1194552Y543963D01*
X1120357Y543914D02*
X1190107Y613664D01*
X1047360Y546505D02*
X1108830Y607975D01*
X1080172Y579317D02*
X1109147Y550342D01*
X1076580Y575725D02*
X1104510Y547794D01*
X1072988Y572133D02*
X1101941Y543179D01*
X1047073Y542473D02*
X1112325Y607725D01*
X1044756Y777235D02*
X1064066Y796544D01*
X1034428Y781275D02*
X1049697Y796544D01*
X1027823Y710012D02*
X1114355Y796544D01*
X1025423Y786638D02*
X1035329Y796544D01*
X1030002Y784033D02*
X1042513Y796544D01*
X1038599Y699236D02*
X1135908Y796544D01*
X1028182D02*
X1136639Y688086D01*
X1042191Y695643D02*
X1143092Y796544D01*
X1031415Y706420D02*
X1121539Y796544D01*
X1035007Y702828D02*
X1128724Y796544D01*
X1020997D02*
X1036098Y781444D01*
X1009863Y727972D02*
X1078434Y796544D01*
X948657D02*
X1267834D01*
X1013813D02*
X1023719Y786638D01*
X1018239D02*
X1028145Y796544D01*
X1020639Y717196D02*
X1099987Y796544D01*
X1024231Y713604D02*
X1107171Y796544D01*
X1013455Y724380D02*
X1085618Y796544D01*
X1017047Y720788D02*
X1092803Y796544D01*
X1028818Y785217D02*
X1033094Y780941D01*
X1023399Y776986D02*
X1026269Y774116D01*
X1011818Y776986D02*
X1100718Y688086D01*
X1019003Y776986D02*
X1025786Y770202D01*
X1006270Y731565D02*
X1035109Y760404D01*
X999086Y738749D02*
X1026757Y766420D01*
X970325Y768190D02*
X1050429Y688086D01*
X1002678Y735157D02*
X1029975Y762454D01*
X953770Y786638D02*
X1025398D01*
X995494Y742341D02*
X1025935Y772782D01*
X990266Y776986D02*
X1079166Y688086D01*
X1004634Y776986D02*
X1093534Y688086D01*
X983082Y776986D02*
X1071982Y688086D01*
X974462Y763373D02*
X1049749Y688086D01*
X989502Y786638D02*
X999408Y796544D01*
X985076D02*
X994982Y786638D01*
X992260Y796544D02*
X1002166Y786638D01*
X977892Y796544D02*
X987798Y786638D01*
X982318D02*
X992224Y796544D01*
X1006629D02*
X1016535Y786638D01*
X1003870D02*
X1013776Y796544D01*
X1011054Y786638D02*
X1020960Y796544D01*
X996686Y786638D02*
X1006592Y796544D01*
X999445D02*
X1009351Y786638D01*
X967949D02*
X977855Y796544D01*
X963523D02*
X973429Y786638D01*
X970708Y796544D02*
X980614Y786638D01*
X956339Y796544D02*
X966245Y786638D01*
X960765D02*
X970671Y796544D01*
X973941Y763894D02*
X987034Y776986D01*
X968738D02*
X1023399D01*
X975133Y786638D02*
X985039Y796544D01*
X970349Y767486D02*
X979850Y776986D01*
X988310Y749525D02*
X1015771Y776986D01*
X984718Y753117D02*
X1008587Y776986D01*
X991902Y745933D02*
X1022955Y776986D01*
X977534Y760301D02*
X994218Y776986D01*
X981126Y756709D02*
X1001402Y776986D01*
X975868Y701162D02*
X999445Y724740D01*
X975868Y693978D02*
X1003037Y721148D01*
X975868Y715530D02*
X992261Y731924D01*
X975868Y708346D02*
X995853Y728332D01*
X970171Y767664D02*
X974447Y763388D01*
X970076Y774397D02*
X972665Y776986D01*
X975868Y744267D02*
X977893Y746292D01*
X975868Y729899D02*
X985077Y739108D01*
X975868Y722715D02*
X988669Y735516D01*
X954024Y755754D02*
X966216Y743562D01*
X975868Y737083D02*
X981485Y742700D01*
X1041488Y761685D02*
X1115087Y688086D01*
X1035366Y796544D02*
X1143824Y688086D01*
X1035632Y760356D02*
X1107903Y688086D01*
X975897Y776986D02*
X1064797Y688086D01*
X997450Y776986D02*
X1086350Y688086D01*
X975868Y697989D02*
X1080531Y593326D01*
X975868Y705173D02*
X1084123Y596918D01*
X1035678Y559814D02*
X1154298Y678434D01*
X975868Y690805D02*
X1076939Y589734D01*
X975868Y683621D02*
X1073347Y586142D01*
X975868Y741094D02*
X1101953Y615009D01*
X975868Y748279D02*
X1102686Y621460D01*
X975868Y733910D02*
X1098492Y611287D01*
X968796Y776903D02*
X1057613Y688086D01*
X975868Y726726D02*
X1094899Y607694D01*
X975868Y719542D02*
X1091307Y604102D01*
X963483Y552277D02*
X1089640Y678434D01*
X975868Y712357D02*
X1087715Y600510D01*
X960976Y556954D02*
X1082456Y678434D01*
X1040180Y557132D02*
X1101821Y618773D01*
X1027267Y558587D02*
X1147114Y678434D01*
X1041941Y554736D02*
X1102005Y614800D01*
X975868Y676436D02*
X1069755Y582550D01*
X975868Y669252D02*
X1066163Y578958D01*
X994315Y540004D02*
X1132745Y678434D01*
X1001499Y540004D02*
X1139929Y678434D01*
X979947Y540004D02*
X1118377Y678434D01*
X987131Y540004D02*
X1125561Y678434D01*
X956571Y559733D02*
X1075272Y678434D01*
X948717Y559063D02*
X1068087Y678434D01*
X975800Y662135D02*
X1062570Y575365D01*
X972839Y657912D02*
X1058978Y571773D01*
X969247Y654320D02*
X1055386Y568181D01*
X965578Y540004D02*
X1104008Y678434D01*
X972763Y540004D02*
X1111192Y678434D01*
X922473Y540004D02*
X1060903Y678434D01*
X958394Y540004D02*
X1096824Y678434D01*
X975868Y748317D02*
X1044330Y679855D01*
X975868Y686794D02*
X1006630Y717555D01*
X975868Y679610D02*
X1010222Y713963D01*
X975868Y665241D02*
X1017406Y706779D01*
X975868Y672425D02*
X1013814Y710371D01*
X975868Y662940D02*
Y748317D01*
X969150Y636970D02*
X1028182Y696003D01*
X965762Y640767D02*
X1024590Y699595D01*
X970660Y631297D02*
X1031774Y692411D01*
X960671Y642860D02*
X1020998Y703187D01*
X899924Y673354D02*
X1022554Y550724D01*
X878371Y673354D02*
X1011721Y540004D01*
X885556Y673354D02*
X1018906Y540004D01*
X872925Y671617D02*
X1004537Y540004D01*
X868590Y668767D02*
X997353Y540004D01*
X970660Y631355D02*
X1044610Y557405D01*
X969246Y625585D02*
X1034807Y560024D01*
X965919Y621728D02*
X1028420Y559226D01*
X968620Y653693D02*
X974447Y659520D01*
X1015868Y540004D02*
X1022924Y547060D01*
X1044451Y545111D02*
X1046837Y542725D01*
X964111Y652272D02*
X1051794Y564589D01*
X956927Y652272D02*
X1048202Y560997D01*
X960903Y619559D02*
X1024492Y555970D01*
X956296Y540004D02*
X1022160D01*
X963469Y552335D02*
X975800Y540004D01*
X962878Y545742D02*
X968616Y540004D01*
X875085Y909300D02*
X947749Y981964D01*
X870236Y890083D02*
X962117Y981964D01*
X869525Y897727D02*
X947086Y820166D01*
X867827Y916410D02*
X933380Y981964D01*
X872447Y913847D02*
X940564Y981964D01*
X875395Y906225D02*
X961454Y820166D01*
X873502Y900934D02*
X954270Y820166D01*
X874467Y885601D02*
X939902Y820166D01*
X874834Y878049D02*
X932717Y820166D01*
X871891Y873808D02*
X925533Y820166D01*
X864255Y891286D02*
X954933Y981964D01*
X860918Y916686D02*
X926196Y981964D01*
X863194Y896874D02*
X869726Y890342D01*
X866937Y871578D02*
X918349Y820166D01*
X875411Y855920D02*
X911165Y820166D01*
X873831Y835947D02*
X889612Y820166D01*
X942369Y810514D02*
X946687Y806196D01*
X874962Y827632D02*
X882428Y820166D01*
X874845Y808481D02*
X876878Y810514D01*
X956738D02*
X961056Y806196D01*
X951586D02*
X955904Y810514D01*
X958770Y806196D02*
X963088Y810514D01*
X949554D02*
X953872Y806196D01*
X863744Y840486D02*
X870989Y847730D01*
X863704Y846074D02*
X870872Y838906D01*
X873713Y850434D02*
X903980Y820166D01*
X869873Y847089D02*
X896796Y820166D01*
X872164Y823246D02*
X875244Y820166D01*
X859155Y871474D02*
X865505D01*
X859155Y891286D02*
X865505D01*
X859155Y865886D02*
X865505D01*
X859155Y916686D02*
X865505D01*
X859155Y896874D02*
X865505D01*
X860408Y865886D02*
X866008Y871487D01*
X860408Y865886D02*
X866008Y871487D01*
X859857Y871474D02*
X865445Y865886D01*
X855174Y897709D02*
X861597Y891286D01*
X799656Y981964D02*
X864934Y916686D01*
X856782Y890998D02*
X862659Y896874D01*
X807131Y819794D02*
X858817Y871480D01*
X814688Y820166D02*
X849320Y854798D01*
X859155Y846074D02*
X865505D01*
X856066Y839992D02*
X862148Y846074D01*
X859155Y840486D02*
X865505D01*
X856006Y846588D02*
X862108Y840486D01*
X867374Y820852D02*
X868059Y820166D01*
X859155Y820674D02*
X865505D01*
X850609Y820166D02*
X853147Y822704D01*
X857793Y820166D02*
X858335Y820708D01*
X829056Y820166D02*
X855617Y846727D01*
X821872Y820166D02*
X851454Y849749D01*
X843424Y820166D02*
X850016Y826758D01*
X814688Y820166D02*
X849320Y854798D01*
X836240Y820166D02*
X849743Y833669D01*
X810989Y810514D02*
X850808D01*
X810481Y810006D02*
X850504D01*
X935185Y810514D02*
X942081Y803618D01*
X920817Y810514D02*
X934897Y796434D01*
X928001Y810514D02*
X938489Y800026D01*
X910369Y771906D02*
X943238Y804775D01*
X910112Y771906D02*
X948720Y810514D01*
X953577Y786634D02*
X963487Y796544D01*
X906448Y810514D02*
X927713Y789250D01*
X913633Y810514D02*
X931305Y792842D01*
X892080Y810514D02*
X920528Y782065D01*
X884896Y810514D02*
X916936Y778473D01*
X899264Y810514D02*
X924121Y785658D01*
X874191Y771906D02*
X912799Y810514D01*
X877711D02*
X913344Y774881D01*
X895743Y771906D02*
X934351Y810514D01*
X902928Y771906D02*
X941536Y810514D01*
X881375Y771906D02*
X919983Y810514D01*
X888559Y771906D02*
X927167Y810514D01*
X949155Y796544D02*
X959061Y786638D01*
X945314Y793201D02*
X952155Y786360D01*
X941722Y789609D02*
X948232Y783099D01*
X945793Y780660D02*
X950350Y785217D01*
X944372Y717042D02*
Y777240D01*
X938130Y786017D02*
X944838Y779309D01*
X915788Y763675D02*
X948657Y796544D01*
X927353Y775240D02*
X944372Y758222D01*
X934538Y782425D02*
X944372Y772590D01*
X930946Y778833D02*
X944372Y765406D01*
X866046Y713471D02*
X949118Y796544D01*
X871342Y711584D02*
X956302Y796544D01*
X875349Y708406D02*
X944376Y777433D01*
X923761Y771648D02*
X944372Y751038D01*
X874430Y800882D02*
X884062Y810514D01*
X869553Y788821D02*
X891246Y810514D01*
X844766Y800354D02*
X855963Y789157D01*
X875400Y805641D02*
X909135Y771906D01*
X875397Y780297D02*
X905615Y810514D01*
X873914Y799943D02*
X901951Y771906D01*
X873519Y785603D02*
X898430Y810514D01*
X837582Y800354D02*
X851669Y786267D01*
X830398Y800354D02*
X849378Y781374D01*
X809533Y771906D02*
X837981Y800354D01*
X808195D02*
X850504D01*
X802349Y771906D02*
X830797Y800354D01*
X808845D02*
X837293Y771906D01*
X823214Y800354D02*
X851662Y771906D01*
X823901D02*
X851231Y799236D01*
X816029Y800354D02*
X844477Y771906D01*
X816717D02*
X845165Y800354D01*
X870210Y796463D02*
X894767Y771906D01*
X864215Y795274D02*
X887583Y771906D01*
X863234Y789686D02*
X869803Y796255D01*
X859155Y789686D02*
X865505D01*
X875077Y777228D02*
X880398Y771906D01*
X871516D02*
X910369D01*
X872427Y772693D02*
X873214Y771906D01*
X856729Y795576D02*
X862618Y789686D01*
X855246Y788882D02*
X861638Y795274D01*
X859155D02*
X865505D01*
X804928Y797087D02*
X830109Y771906D01*
X801336Y793495D02*
X822925Y771906D01*
X831086D02*
X855254Y796075D01*
X838270Y771906D02*
X850053Y783689D01*
X845454Y771906D02*
X849872Y776324D01*
X751990Y886785D02*
X847170Y981964D01*
X749367D02*
X849272Y882058D01*
X778103Y981964D02*
X849861Y910207D01*
X744806Y893969D02*
X832801Y981964D01*
X748398Y890377D02*
X839986Y981964D01*
X755142Y832462D02*
X904643Y981964D01*
X755142Y839647D02*
X897459Y981964D01*
X755142Y825278D02*
X911828Y981964D01*
X755142Y854015D02*
X883091Y981964D01*
X755142Y846831D02*
X890275Y981964D01*
X728191Y898906D02*
X811249Y981964D01*
X721006Y898906D02*
X804064Y981964D01*
X735375Y898906D02*
X818433Y981964D01*
X706638Y898906D02*
X789696Y981964D01*
X713822Y898906D02*
X796880Y981964D01*
X720630D02*
X849763Y852831D01*
X727814Y981964D02*
X850004Y859774D01*
X741213Y897560D02*
X825617Y981964D01*
X699077D02*
X849315Y831726D01*
X785288Y981964D02*
X852840Y914412D01*
X763735Y981964D02*
X855226Y890473D01*
X792472Y981964D02*
X857838Y916598D01*
X770919Y981964D02*
X850084Y902799D01*
X756551Y981964D02*
X851214Y887301D01*
X755142Y875610D02*
X810586Y820166D01*
X755142Y868426D02*
X805196Y818371D01*
X755142Y861241D02*
X801604Y814779D01*
X755142Y854057D02*
X798012Y811187D01*
X755142Y875568D02*
X861538Y981964D01*
X742182D02*
X858298Y865849D01*
X755142Y868384D02*
X868722Y981964D01*
X734998D02*
X853124Y863838D01*
X755035Y882645D02*
X854354Y981964D01*
X713446D02*
X855588Y839821D01*
X755142Y861199D02*
X875907Y981964D01*
X706261D02*
X851436Y836789D01*
X754948Y882988D02*
X817770Y820166D01*
X699454Y898906D02*
X782512Y981964D01*
X697611Y911588D02*
X710293Y898906D01*
X697611D02*
X737870D01*
X697611D02*
Y916686D01*
Y904404D02*
X703109Y898906D01*
X741290Y897485D02*
X753721Y885054D01*
X734314Y889254D02*
X745490Y878077D01*
X719945Y889254D02*
X745490Y863709D01*
X697611Y911432D02*
X768143Y981964D01*
X695681Y916686D02*
X760959Y981964D01*
X697611Y904247D02*
X775328Y981964D01*
X695378Y887646D02*
X696986Y889254D01*
X693716D02*
X735871D01*
X696668Y860199D02*
X725723Y889254D01*
X697343Y853689D02*
X732907Y889254D01*
X697533Y882617D02*
X704170Y889254D01*
X712761D02*
X745490Y856525D01*
X735871Y889254D02*
X745490Y879635D01*
X727129Y889254D02*
X745490Y870893D01*
X755142Y822960D02*
Y881634D01*
X745490Y824959D02*
Y879635D01*
X705577Y889254D02*
X745490Y849341D01*
X698392Y889254D02*
X745490Y842157D01*
X697481Y882982D02*
X745490Y834972D01*
X695144Y837122D02*
X741573Y883552D01*
X697467Y832262D02*
X745165Y879960D01*
X696485Y876793D02*
X745490Y827788D01*
X696499Y809740D02*
X745490Y858732D01*
X697461Y854264D02*
X736128Y815597D01*
X695125Y849417D02*
X732536Y812005D01*
X755142Y839689D02*
X790828Y804003D01*
X755142Y846873D02*
X794420Y807595D01*
X755142Y832505D02*
X787236Y800411D01*
X755142Y825320D02*
X783644Y796819D01*
X753729Y819548D02*
X780051Y793226D01*
X764759Y784606D02*
X853441Y873288D01*
X757575Y784606D02*
X850173Y877204D01*
X768096Y759206D02*
X809244Y800354D01*
X771431Y784606D02*
X805570Y818745D01*
X772024Y764183D02*
X808195Y800354D01*
X728838Y784606D02*
X849384Y905152D01*
X721654Y784606D02*
X919012Y981964D01*
X736022Y784606D02*
X851687Y900271D01*
X750137Y815956D02*
X776459Y789634D01*
X746545Y812364D02*
X772867Y786042D01*
X743206Y784606D02*
X855993Y897392D01*
X750391Y784606D02*
X849537Y883753D01*
X742953Y808772D02*
X767119Y784606D01*
X739361Y805180D02*
X759935Y784606D01*
X790559Y782719D02*
X801372Y771906D01*
X787980D02*
X816428Y800354D01*
X786130Y771906D02*
X853144D01*
X786967Y779126D02*
X794188Y771906D01*
X783375Y775534D02*
X787004Y771906D01*
X795164D02*
X823612Y800354D01*
X797744Y789903D02*
X815741Y771906D01*
X794152Y786311D02*
X808556Y771906D01*
X696356Y774954D02*
X769145D01*
X696356Y784606D02*
X771431D01*
X694329Y772414D02*
X766605D01*
X759751D02*
X762291Y774954D01*
X762403D02*
X764943Y772414D01*
X771431Y759206D02*
X782710Y770485D01*
X766605Y772414D02*
X769145Y774954D01*
X779783Y771942D02*
X781975Y769750D01*
X720716Y786535D02*
X753721Y819540D01*
X715297Y794766D02*
X745490Y824959D01*
X721401Y787220D02*
X724014Y784606D01*
X735769Y801588D02*
X752751Y784606D01*
X732177Y797996D02*
X745567Y784606D01*
X728585Y794404D02*
X738382Y784606D01*
X724993Y790812D02*
X731198Y784606D01*
X726482Y774954D02*
X729022Y772414D01*
X697473Y803530D02*
X745490Y851547D01*
X695893Y794766D02*
X745490Y844363D01*
X697355Y832818D02*
X725352Y804821D01*
X696655Y826334D02*
X721760Y801229D01*
X695359Y798892D02*
X699486Y794766D01*
X703077D02*
X745490Y837179D01*
X710261Y794766D02*
X745490Y829995D01*
X697529Y803907D02*
X706670Y794766D01*
X696052Y785114D02*
X717296D01*
X738199Y772414D02*
X740739Y774954D01*
X733666D02*
X736206Y772414D01*
X740850Y774954D02*
X743390Y772414D01*
X723830D02*
X726370Y774954D01*
X731014Y772414D02*
X733555Y774954D01*
X752567Y772414D02*
X755107Y774954D01*
X755219D02*
X757759Y772414D01*
X745383D02*
X747923Y774954D01*
X748035D02*
X750574Y772414D01*
X702278D02*
X704818Y774954D01*
X697745D02*
X700285Y772414D01*
X704929Y774954D02*
X707469Y772414D01*
X695094D02*
X697634Y774954D01*
X716646Y772414D02*
X719186Y774954D01*
X719298D02*
X721838Y772414D01*
X709462D02*
X712002Y774954D01*
X712113D02*
X714653Y772414D01*
X955622Y761340D02*
X966216Y750746D01*
X954024Y736792D02*
X966216Y748984D01*
X954024Y748570D02*
X966216Y736378D01*
X963346Y760839D02*
X966216Y757969D01*
X963317Y760830D02*
X966216Y757931D01*
Y716623D02*
Y757969D01*
X954024Y722423D02*
X966216Y734615D01*
X954024Y734201D02*
X966216Y722009D01*
X954024Y729608D02*
X966216Y741800D01*
X954024Y741386D02*
X966216Y729194D01*
X954024Y751160D02*
X963524Y760661D01*
X954024Y743976D02*
X966216Y756168D01*
X920169Y768056D02*
X944372Y743853D01*
X954024Y758344D02*
X956613Y760934D01*
X954024Y719041D02*
Y762272D01*
X890050Y762254D02*
X947278Y705026D01*
X904419Y762254D02*
X944372Y722301D01*
X897235Y762254D02*
X945323Y714166D01*
X957952Y719167D02*
X966216Y727431D01*
X954024Y727017D02*
X962380Y718661D01*
X963992Y718023D02*
X966216Y720247D01*
X954024Y719833D02*
X955226Y718631D01*
X954024Y719041D02*
X954640Y718425D01*
X963113Y696375D02*
X966216Y693273D01*
X956487Y695818D02*
X966216Y686088D01*
X951243Y683722D02*
X964588Y697067D01*
X947651Y687314D02*
X956214Y695877D01*
X945793Y713622D02*
X947815Y711600D01*
X929691Y705274D02*
X944372Y719956D01*
X933283Y701682D02*
X945519Y713919D01*
X944059Y690906D02*
X951388Y698235D01*
X936875Y698090D02*
X947073Y708288D01*
X940467Y694498D02*
X948217Y702248D01*
X916577Y764464D02*
X944372Y736669D01*
X911603Y762254D02*
X944372Y729485D01*
X875361Y729971D02*
X907644Y762254D01*
X896901Y708406D02*
X944372Y755877D01*
X889717Y708406D02*
X944372Y763061D01*
X904085Y708406D02*
X944372Y748692D01*
X882533Y708406D02*
X944372Y770245D01*
X875359Y755393D02*
X922346Y708406D01*
X874805Y750967D02*
X886091Y762254D01*
X874705Y758052D02*
X878907Y762254D01*
X871516D02*
X912368D01*
X874105Y749463D02*
X915162Y708406D01*
X870536Y745847D02*
X907977Y708406D01*
X869195Y738173D02*
X893276Y762254D01*
X873299Y735094D02*
X900460Y762254D01*
X918454Y708406D02*
X944372Y734324D01*
X911270Y708406D02*
X944372Y741508D01*
X925538Y708306D02*
X944372Y727140D01*
X900238Y683006D02*
X915986Y698754D01*
X907422Y683006D02*
X922866Y698449D01*
X888893Y698754D02*
X904641Y683006D01*
X893054D02*
X908802Y698754D01*
X875177Y726838D02*
X893609Y708406D01*
X874156D02*
X924560D01*
X874156Y698754D02*
X922561D01*
X872680Y722150D02*
X886425Y708406D01*
X868199Y719447D02*
X879240Y708406D01*
X873070Y684575D02*
X887249Y698754D01*
X885870Y683006D02*
X901618Y698754D01*
X868824Y687513D02*
X880065Y698754D01*
X966216Y678523D02*
Y698157D01*
X955242Y680537D02*
X966216Y691510D01*
X962434Y680544D02*
X966216Y684326D01*
X936630Y661924D02*
X947603Y672898D01*
X942559Y652272D02*
X953245Y641586D01*
X949743Y652272D02*
X959015Y643000D01*
X943814Y661924D02*
X947596Y665706D01*
X935375Y652272D02*
X949388Y638259D01*
X882866Y762254D02*
X966216Y678904D01*
X875682Y762254D02*
X956983Y680953D01*
X927980Y706985D02*
X954640Y680325D01*
X917629Y698754D02*
X947039Y669344D01*
X922561Y698754D02*
X947815Y673500D01*
X910445Y698754D02*
X947275Y661924D01*
X934433D02*
X949617D01*
X931939Y664418D02*
X944418Y676897D01*
X907108Y673354D02*
X947219Y633243D01*
X932434Y652272D02*
X965200D01*
X915670Y540004D02*
X950609D01*
X959713Y541723D02*
X961432Y540004D01*
X929657D02*
X944299Y554646D01*
X944026Y540004D02*
X946409Y542387D01*
X871159Y644646D02*
X955878Y559927D01*
X870412Y559785D02*
X962899Y652272D01*
X865743Y642877D02*
X949285Y559336D01*
X875140Y578881D02*
X948531Y652272D01*
X874032Y556221D02*
X947180Y629369D01*
X875379Y550384D02*
X949273Y624278D01*
X868968Y618099D02*
X947064Y540004D01*
X875329Y626107D02*
X945266Y556170D01*
X873159Y621092D02*
X943209Y551043D01*
X917571Y678786D02*
X930050Y691265D01*
X913887Y682287D02*
X926458Y694857D01*
X896077Y698754D02*
X911851Y682980D01*
X924755Y671602D02*
X937234Y684081D01*
X903261Y698754D02*
X940091Y661924D01*
X928347Y668010D02*
X940826Y680489D01*
X921163Y675194D02*
X933642Y687673D01*
X914772Y681585D02*
X934433Y661924D01*
X881708Y698754D02*
X897456Y683006D01*
X878686D02*
X894434Y698754D01*
X874156Y683006D02*
X911352D01*
X874524Y698754D02*
X890272Y683006D01*
X870853Y695241D02*
X883088Y683006D01*
X868441Y636841D02*
X904955Y673354D01*
X874156D02*
X909353D01*
X875210Y650793D02*
X897770Y673354D01*
X909353D02*
X929014Y653693D01*
X874391Y657159D02*
X890586Y673354D01*
X872832Y634047D02*
X910746Y671961D01*
X875316Y600610D02*
X928706Y654001D01*
X872584Y583510D02*
X941346Y652272D01*
X875231Y629262D02*
X914338Y668369D01*
X874217Y606695D02*
X925114Y657593D01*
X871042Y660994D02*
X883402Y673354D01*
X870732Y610395D02*
X921522Y661185D01*
X868045Y586155D02*
X934162Y652272D01*
X865550Y662686D02*
X876218Y673354D01*
X871455Y594060D02*
X925511Y540004D01*
X866230Y592101D02*
X918327Y540004D01*
X857381Y744634D02*
X863129Y738886D01*
X859155Y744474D02*
X865505D01*
X839761Y762254D02*
X849409Y752606D01*
X846945Y762254D02*
X850326Y758873D01*
X862723Y738886D02*
X868918Y745080D01*
X854226Y737572D02*
X861127Y744474D01*
X864725D02*
X900793Y708406D01*
X832577Y762254D02*
X856350Y738481D01*
X803840Y762254D02*
X854034Y712060D01*
X788129Y762254D02*
X853144D01*
X811024D02*
X859792Y713486D01*
X818208Y762254D02*
X849458Y731004D01*
X825393Y762254D02*
X851910Y735736D01*
X785208Y759333D02*
X856751Y687790D01*
X781616Y755741D02*
X852161Y685196D01*
X789471Y762254D02*
X849319Y702407D01*
X796656Y762254D02*
X850504Y708406D01*
X865236Y693674D02*
X875904Y683006D01*
X861388Y719074D02*
X867107Y713356D01*
X862213Y688086D02*
X868165Y694038D01*
X859155Y719074D02*
X865505D01*
X859155Y738886D02*
X865505D01*
X859155Y713486D02*
X865505D01*
X858872Y713482D02*
X864464Y719074D01*
X859155Y693674D02*
X865505D01*
X859155Y688086D02*
X865505D01*
X857982Y693744D02*
X863639Y688086D01*
X776191Y768350D02*
X778383Y766158D01*
X772599Y764758D02*
X774791Y762566D01*
X724991Y759206D02*
X728547Y762762D01*
X753042D02*
X756598Y759206D01*
X746543D02*
X750099Y762762D01*
X753728Y759206D02*
X757284Y762762D01*
X731490D02*
X735046Y759206D01*
X732175D02*
X735731Y762762D01*
X703438Y759206D02*
X706994Y762762D01*
X702753D02*
X706309Y759206D01*
X709937Y762762D02*
X713493Y759206D01*
X695569Y762762D02*
X699125Y759206D01*
X696319Y759271D02*
X699810Y762762D01*
X717806Y759206D02*
X721363Y762762D01*
X724305D02*
X727861Y759206D01*
X710622D02*
X714178Y762762D01*
X717121D02*
X720677Y759206D01*
X760227Y762762D02*
X763783Y759206D01*
X753728D02*
X757284Y762762D01*
X760912Y759206D02*
X764468Y762762D01*
X739359Y759206D02*
X742915Y762762D01*
X745858D02*
X749414Y759206D01*
X776850Y750975D02*
X788129Y762254D01*
X767411Y762762D02*
X770967Y759206D01*
X738674Y762762D02*
X742230Y759206D01*
X696356D02*
X771431D01*
X696356Y749554D02*
X773430D01*
X694647Y736047D02*
X708155Y749554D01*
X697285Y731500D02*
X715339Y749554D01*
X697598Y703077D02*
X744076Y749554D01*
X694385Y685495D02*
X758444Y749554D01*
X696129Y708792D02*
X736891Y749554D01*
X697598Y703077D02*
X744076Y749554D01*
X861899Y668274D02*
X867743Y662430D01*
X861702Y637286D02*
X867492Y643075D01*
X865039Y611886D02*
X917930Y664777D01*
X864529Y561086D02*
X955715Y652272D01*
X862409Y617474D02*
X868443Y611440D01*
X859155Y662686D02*
X865505D01*
X859155Y668274D02*
X865505D01*
X859155Y642874D02*
X865505D01*
X858331Y662652D02*
X863953Y668274D01*
X858543Y642893D02*
X864150Y637286D01*
X859155D02*
X865505D01*
X859155Y617474D02*
X865505D01*
X853335Y619364D02*
X860813Y611886D01*
X857756Y611787D02*
X863443Y617474D01*
X862920Y566674D02*
X869238Y560356D01*
X861192Y586486D02*
X866875Y592169D01*
X859155Y541274D02*
X865505D01*
X859155Y592074D02*
X865505D01*
X859155Y611886D02*
X865505D01*
X859155Y586486D02*
X865505D01*
X859072Y592074D02*
X864660Y586486D01*
X859155Y566674D02*
X865505D01*
X859155Y561086D02*
X865505D01*
X854654Y567756D02*
X861324Y561086D01*
X857137Y560878D02*
X862933Y566674D01*
X766250Y749554D02*
X854358Y661447D01*
X744698Y749554D02*
X857167Y637085D01*
X773435Y749554D02*
X860303Y662686D01*
X778024Y752149D02*
X849554Y680619D01*
X751882Y749554D02*
X849268Y652168D01*
X737514Y749554D02*
X852422Y634646D01*
X723145Y749554D02*
X851139Y621560D01*
X715961Y749554D02*
X854691Y610823D01*
X701592Y749554D02*
X849249Y601897D01*
X730329Y749554D02*
X849665Y630219D01*
X697611Y652800D02*
X807065Y762254D01*
X695929Y658302D02*
X799881Y762254D01*
X694113Y634934D02*
X821433Y762254D01*
X697172Y681097D02*
X765628Y749554D01*
X695955Y672696D02*
X772812Y749554D01*
X695719Y607803D02*
X850170Y762254D01*
X697598Y602497D02*
X849252Y754151D01*
X697045Y630681D02*
X828618Y762254D01*
X696630Y623082D02*
X835802Y762254D01*
X759066Y749554D02*
X850692Y657928D01*
X708777Y749554D02*
X850890Y607441D01*
X697606Y703251D02*
X849258Y551599D01*
X695585Y748377D02*
X857599Y586363D01*
X693832Y584364D02*
X854902Y745433D01*
X696905Y580252D02*
X850563Y733909D01*
X696881Y732713D02*
X849789Y579805D01*
X697004Y573167D02*
X849739Y725902D01*
X693942Y721284D02*
X855036Y560189D01*
X695499Y557294D02*
X857431Y719225D01*
X696960Y725449D02*
X850331Y572079D01*
X697561Y552171D02*
X849253Y703863D01*
X1213515Y618394D02*
X1369314Y462596D01*
X1189397Y678434D02*
X1369314Y498517D01*
X1211758Y612967D02*
X1369314Y455411D01*
X1225318Y678434D02*
X1369314Y534438D01*
X1289446Y607122D02*
X1369314Y527254D01*
X1199024Y442976D02*
X1369314Y613266D01*
X1191840Y442976D02*
X1369314Y620450D01*
X1206208Y442976D02*
X1369314Y606082D01*
X1184656Y442976D02*
X1369314Y627634D01*
X1207801Y609740D02*
X1369314Y448227D01*
X1175028Y678434D02*
X1369314Y484148D01*
X1167844Y678434D02*
X1369314Y476964D01*
X1160660Y678434D02*
X1369314Y469780D01*
X1182213Y678434D02*
X1369314Y491333D01*
X1119284Y612046D02*
X1271724Y459606D01*
X1160588Y447645D02*
X1369314Y656371D01*
X1165622Y445495D02*
X1369314Y649187D01*
X1115490Y608656D02*
X1268314Y455833D01*
X1109039Y607923D02*
X1267111Y449851D01*
X1278504Y596511D02*
X1369314Y505701D01*
X1274436Y460914D02*
X1369314Y555792D01*
X1281409Y460703D02*
X1369314Y548608D01*
X1287871Y601512D02*
X1369314Y520069D01*
X1284239Y597960D02*
X1369314Y512885D01*
X1287975Y452901D02*
X1369314Y534240D01*
X1285623Y457733D02*
X1369314Y541424D01*
X1256498Y442976D02*
X1267556Y454034D01*
X1262921Y442976D02*
X1267569Y447624D01*
X1220577Y442976D02*
X1369314Y591713D01*
X1213392Y442976D02*
X1369314Y598898D01*
X1205633Y532882D02*
X1277121Y461394D01*
X1105316Y604462D02*
X1264862Y444916D01*
X1167758Y442976D02*
X1262921D01*
X1242129D02*
X1369314Y570161D01*
X1249314Y442976D02*
X1369314Y562976D01*
X1227761Y442976D02*
X1369314Y584529D01*
X1234945Y442976D02*
X1369314Y577345D01*
X1118837Y535210D02*
X1196345Y612718D01*
X1083764Y582909D02*
X1223697Y442976D01*
X1069396Y568540D02*
X1194960Y442976D01*
X1065803Y564948D02*
X1187776Y442976D01*
X1101724Y600869D02*
X1259618Y442976D01*
X1098132Y597277D02*
X1252434Y442976D01*
X1094540Y593685D02*
X1245249Y442976D01*
X1090948Y590093D02*
X1238065Y442976D01*
X1087356Y586501D02*
X1230881Y442976D01*
X1042674Y502152D02*
X1154052Y613531D01*
X1039922Y506585D02*
X1146672Y613334D01*
X1048258Y522105D02*
X1139291Y613138D01*
X1048258Y529289D02*
X1131911Y612942D01*
X1048258Y536473D02*
X1124530Y612746D01*
X1062211Y561356D02*
X1180592Y442976D01*
X1058619Y557764D02*
X1173407Y442976D01*
X1041868Y494162D02*
X1161370Y613664D01*
X1055027Y554172D02*
X1161762Y447437D01*
X1051435Y550580D02*
X1155291Y446724D01*
X1048258Y519684D02*
Y539305D01*
X1120572Y538917D02*
X1216513Y442976D01*
X1118024Y534280D02*
X1209328Y442976D01*
X1047843Y546988D02*
X1151488Y443343D01*
X1113409Y531711D02*
X1202144Y442976D01*
X1041010Y510437D02*
X1046837Y516264D01*
X1043133Y473875D02*
X1104025Y534766D01*
X1043133Y466691D02*
X1108356Y531913D01*
X1043133Y481059D02*
X1101784Y539710D01*
X1043133Y463404D02*
Y484016D01*
X1288164Y450351D02*
X1369314Y369201D01*
X1288159Y374059D02*
X1369314Y455213D01*
X1286376Y444954D02*
X1369314Y362017D01*
X1210436Y535263D02*
X1369314Y376385D01*
X1286792Y379875D02*
X1369314Y462397D01*
Y4826D02*
Y981964D01*
X1271686Y438092D02*
X1369314Y340464D01*
X1268086Y434508D02*
X1369314Y333280D01*
X1282603Y441544D02*
X1369314Y354832D01*
X1276621Y440341D02*
X1369314Y347648D01*
X1048258Y525020D02*
X1369314Y203964D01*
X1048258Y532204D02*
X1369314Y211148D01*
X1047991Y518102D02*
X1369314Y196780D01*
X1171891Y250606D02*
X1369314Y448029D01*
X1172610Y244141D02*
X1369314Y440845D01*
X1042789Y501752D02*
X1369314Y175227D01*
X1042302Y495055D02*
X1369314Y168043D01*
X1044741Y514168D02*
X1369314Y189596D01*
X1041149Y510576D02*
X1369314Y182411D01*
X1247717Y433324D02*
X1369314Y311727D01*
X1240533Y433324D02*
X1369314Y304543D01*
X1197428Y433324D02*
X1369314Y261438D01*
X1262086Y433324D02*
X1369314Y326096D01*
X1254901Y433324D02*
X1369314Y318911D01*
X1175875Y433324D02*
X1369314Y239885D01*
X1168691Y433324D02*
X1369314Y232701D01*
X1190244Y433324D02*
X1369314Y254254D01*
X1183059Y433324D02*
X1369314Y247069D01*
X1117844Y175006D02*
X1369314Y426476D01*
X1110659Y175006D02*
X1369314Y433661D01*
X1125028Y175006D02*
X1369314Y419292D01*
X1164703Y430128D02*
X1369314Y225517D01*
X1159041Y428605D02*
X1369314Y218333D01*
X1146581Y175006D02*
X1369314Y397739D01*
X1153765Y175006D02*
X1369314Y390555D01*
X1132212Y175006D02*
X1369314Y412108D01*
X1139396Y175006D02*
X1369314Y404924D01*
X1189509Y613664D02*
X1369314Y433859D01*
X1182325Y613664D02*
X1369314Y426675D01*
X1200930Y609427D02*
X1369314Y441043D01*
X1170287Y442976D02*
X1369314Y642003D01*
X1177471Y442976D02*
X1369314Y634818D01*
X1277753Y385205D02*
X1369314Y476766D01*
X1213164Y539720D02*
X1369314Y383569D01*
X1283288Y383555D02*
X1369314Y469582D01*
X1175140Y613664D02*
X1369314Y419490D01*
X1167956Y613664D02*
X1369314Y412306D01*
X1160772Y613664D02*
X1369314Y405122D01*
X1153730Y613522D02*
X1369314Y397938D01*
X1146732Y613336D02*
X1369314Y390754D01*
X1048257Y539389D02*
X1149966Y437681D01*
X1039179Y490994D02*
X1158701Y371472D01*
X1040074Y363053D02*
X1274488Y597466D01*
X1040142Y355936D02*
X1280904Y596698D01*
X1043133Y479855D02*
X1153560Y369428D01*
X1043133Y472671D02*
X1150545Y365259D01*
X1268340Y434745D02*
X1274394Y440799D01*
X1226165Y433324D02*
X1274696Y384793D01*
X1233349Y433324D02*
X1282858Y383815D01*
X1218980Y433324D02*
X1270173Y382131D01*
X1167758Y433324D02*
X1264920D01*
X1162866Y370897D02*
X1225293Y433324D01*
X1211796D02*
X1267493Y377627D01*
X1155327Y370542D02*
X1218109Y433324D01*
X1169037Y362699D02*
X1239662Y433324D01*
X1204612D02*
X1268368Y369568D01*
X1043133Y465487D02*
X1149678Y358943D01*
X1167017Y367863D02*
X1232477Y433324D01*
X1035854Y540058D02*
X1038606Y537307D01*
X1033642Y539636D02*
X1038606Y534672D01*
X1032214Y534798D02*
X1036665Y539248D01*
X1022981Y539934D02*
X1025606Y542558D01*
X1027197Y536965D02*
X1030182Y539949D01*
X1038906Y484016D02*
X1168554Y613664D01*
X1038606Y533044D02*
Y537307D01*
X1025579Y538583D02*
X1029801Y534362D01*
X1038016Y533415D02*
X1038606Y534005D01*
X915272Y539988D02*
X1053719Y678434D01*
X892740Y673354D02*
X1031380Y534714D01*
X891522Y530606D02*
X1042551Y681634D01*
X898707Y530606D02*
X1046659Y678559D01*
X877154Y530606D02*
X1035367Y688819D01*
X884338Y530606D02*
X1038959Y685226D01*
X1035671Y509016D02*
X1037590D01*
X1034105Y488884D02*
X1038972Y484016D01*
X1029346Y463404D02*
X1043133D01*
X1031722Y484016D02*
X1037775Y490069D01*
X1024538Y484016D02*
X1029785Y489263D01*
X1022905Y503936D02*
X1027985Y509016D01*
X995393D02*
X1029984D01*
X1021157D02*
X1024711Y505461D01*
X1014336Y494284D02*
X1024604Y484016D01*
X1021520Y494284D02*
X1031788Y484016D01*
X1022522D02*
X1043133D01*
X987744Y454406D02*
X1025352Y492015D01*
X1012117Y446175D02*
X1029346Y463404D01*
X1014189Y530352D02*
X1022941Y521600D01*
X1008684Y540004D02*
X1024150Y555471D01*
X1020161Y530352D02*
X1022976Y527537D01*
X1008900Y518668D02*
X1020372Y530140D01*
X1016085Y518668D02*
X1022540Y525123D01*
X1023269Y518668D02*
X1023923Y519322D01*
X1015721Y503936D02*
X1020801Y509016D01*
X1008537Y503936D02*
X1013617Y509016D01*
X1013972D02*
X1019053Y503936D01*
X1001716Y518668D02*
X1013400Y530352D01*
X961943D02*
X1020161D01*
X993361Y518668D02*
X1024337D01*
X994532D02*
X1006216Y530352D01*
X999821D02*
X1011505Y518668D01*
X1007005Y530352D02*
X1018689Y518668D01*
X1006788Y509016D02*
X1011868Y503936D01*
X999604Y509016D02*
X1004684Y503936D01*
X1001352D02*
X1006432Y509016D01*
X1000473Y503936D02*
X1023721D01*
X998474Y494284D02*
X1023721D01*
X1022522Y482000D02*
X1024538Y484016D01*
X1007152Y494284D02*
X1022522Y478914D01*
X999968Y494284D02*
X1022522Y471730D01*
X1002112Y454406D02*
X1022522Y474816D01*
X1006699Y454406D02*
X1022522Y470229D01*
Y484016D01*
X974931Y504952D02*
X1016088Y463795D01*
X967747Y504952D02*
X1012496Y460203D01*
X982115Y504952D02*
X1019680Y467388D01*
X963270Y502245D02*
X1008904Y456611D01*
X874156Y454406D02*
X1006699D01*
X980559D02*
X1020437Y494284D01*
X994928Y454406D02*
X1022522Y482000D01*
X966191Y454406D02*
X1006069Y494284D01*
X973375Y454406D02*
X1013253Y494284D01*
X964596Y359416D02*
X1277928Y672748D01*
X962876Y364880D02*
X1207686Y609690D01*
X1036927Y367090D02*
X1202660Y532823D01*
X958944Y368132D02*
X1200424Y609612D01*
X1031612Y368959D02*
X1197712Y535059D01*
X955097Y249338D02*
X1369314Y663555D01*
X954154Y97527D02*
X1369314Y512687D01*
X962704Y98893D02*
X1369314Y505503D01*
X971165Y279775D02*
X1369314Y677924D01*
X971663Y273089D02*
X1369314Y670740D01*
X919176Y285259D02*
X1369314Y735397D01*
X914755Y288023D02*
X1369314Y742582D01*
X922768Y281667D02*
X1369314Y728213D01*
X900400Y288036D02*
X1369314Y756950D01*
X907584Y288036D02*
X1369314Y749766D01*
X847085Y4826D02*
X1369314Y527055D01*
X854269Y4826D02*
X1369314Y519871D01*
X926360Y278075D02*
X1196336Y548051D01*
X929952Y274483D02*
X1194856Y539387D01*
X979314Y223266D02*
X1189372Y433324D01*
X972130Y223266D02*
X1182188Y433324D01*
X986498Y223266D02*
X1196556Y433324D01*
X1038032Y463404D02*
X1146086Y355350D01*
X971931Y237435D02*
X1164489Y429994D01*
X970625Y92445D02*
X1369314Y491134D01*
X984505Y99141D02*
X1369314Y483950D01*
X993682Y223266D02*
X1203740Y433324D01*
X1000867Y223266D02*
X1210925Y433324D01*
X967510Y96514D02*
X1369314Y498318D01*
X964946Y223266D02*
X1175004Y433324D01*
X970478Y243166D02*
X1156419Y429108D01*
X962080Y249137D02*
X1150015Y437072D01*
X967126Y246999D02*
X1152165Y432038D01*
X839900Y4826D02*
X1275570Y440495D01*
X832716Y4826D02*
X1261214Y433324D01*
X818348Y4826D02*
X1246846Y433324D01*
X825532Y4826D02*
X1254030Y433324D01*
X1030848Y463404D02*
X1142493Y351758D01*
X952143Y368517D02*
X1117060Y533433D01*
X956103Y444754D02*
X1031915Y368942D01*
X948919Y444754D02*
X1026165Y367507D01*
X1026505Y460563D02*
X1138901Y348166D01*
X1022913Y456970D02*
X1135309Y344574D01*
X1019321Y453378D02*
X1131717Y340982D01*
X1015729Y449786D02*
X1128125Y337390D01*
X1012137Y446194D02*
X1124533Y333798D01*
X864479Y288036D02*
X1039847Y463404D01*
X857295Y288036D02*
X1032663Y463404D01*
X941734Y444754D02*
X1022730Y363758D01*
X850110Y288036D02*
X1006828Y444754D01*
X934550D02*
X1021896Y357408D01*
X884262Y444754D02*
X1059876Y269141D01*
X891446Y444754D02*
X1063468Y272733D01*
X784436Y479923D02*
X1027547Y236812D01*
X780844Y476331D02*
X1023955Y233220D01*
X999208Y444754D02*
X1117349Y326614D01*
X992024Y444754D02*
X1113756Y323022D01*
X1006392Y444754D02*
X1120941Y330206D01*
X977656Y444754D02*
X1106572Y315837D01*
X984840Y444754D02*
X1110164Y319429D01*
X963287Y444754D02*
X1099388Y308653D01*
X970471Y444754D02*
X1102980Y312245D01*
X920183Y444754D02*
X1077836Y287101D01*
X927367Y444754D02*
X1081428Y290693D01*
X905815Y444754D02*
X1070652Y279917D01*
X898631Y444754D02*
X1067060Y276325D01*
X912999Y444754D02*
X1074244Y283509D01*
X874156Y444754D02*
X1008698D01*
X875385Y424894D02*
X1045507Y254772D01*
X874004Y419091D02*
X1041915Y251180D01*
X870364Y415547D02*
X1038323Y247588D01*
X857040Y414502D02*
X1031139Y240404D01*
X864453Y414274D02*
X1034731Y243996D01*
X1286785Y379888D02*
X1369314Y297359D01*
X1287763Y371726D02*
X1369314Y290175D01*
X1272538Y365398D02*
X1369314Y268622D01*
X1211238Y175006D02*
X1369314Y333082D01*
X1218423Y175006D02*
X1369314Y325897D01*
X1285101Y367203D02*
X1369314Y282990D01*
X1280598Y364523D02*
X1369314Y275806D01*
X1170071Y176944D02*
X1369314Y376187D01*
X1165441Y179498D02*
X1369314Y383371D01*
X1175317Y175006D02*
X1369314Y369003D01*
X1168507Y254406D02*
X1278211Y364111D01*
X1156503Y352118D02*
X1280888Y227732D01*
X1196870Y175006D02*
X1369314Y347450D01*
X1204054Y175006D02*
X1369314Y340266D01*
X1182502Y175006D02*
X1369314Y361819D01*
X1189686Y175006D02*
X1369314Y354634D01*
X1287364Y222395D02*
X1369314Y304345D01*
X1283991Y226206D02*
X1369314Y311529D01*
X1288656Y216502D02*
X1369314Y297161D01*
X1278767Y228166D02*
X1369314Y318713D01*
X1280556Y206511D02*
X1284241Y202826D01*
X1288676Y194970D02*
X1369314Y275608D01*
X1288676Y202154D02*
X1369314Y282792D01*
X1288676Y187786D02*
X1369314Y268424D01*
X1282164Y202826D02*
X1369314Y289976D01*
X1288676Y180714D02*
Y202826D01*
X1266564D02*
X1288676D01*
X1273389Y180714D02*
X1288676D01*
X1272526Y207358D02*
X1277057Y202826D01*
X1274979D02*
X1278288Y206134D01*
X1162840Y255924D02*
X1272395Y365478D01*
X1152910Y348526D02*
X1273867Y227569D01*
X1149318Y344933D02*
X1269538Y224714D01*
X1145726Y341341D02*
X1266961Y220106D01*
X1171972Y250438D02*
X1247404Y175006D01*
X1142134Y337749D02*
X1267808Y212076D01*
X1138542Y334157D02*
X1269873Y202826D01*
X1131358Y326973D02*
X1266564Y191767D01*
X1134950Y330565D02*
X1266564Y198951D01*
X1113397Y309012D02*
X1167378Y255032D01*
X1127766Y323381D02*
X1265086Y186061D01*
X1124174Y319789D02*
X1261494Y182469D01*
X1120582Y316196D02*
X1257902Y178876D01*
X1116989Y312604D02*
X1254309Y175284D01*
X1267795Y202826D02*
X1272395Y207426D01*
X1266564Y201595D02*
X1267795Y202826D01*
X1247159Y175006D02*
X1266564Y194411D01*
Y187539D02*
Y202826D01*
X1239975Y175006D02*
X1266564Y201595D01*
X1254031Y175006D02*
X1266564Y187539D01*
X1259450Y166775D02*
X1273389Y180714D01*
X1169197Y238845D02*
X1233035Y175006D01*
X1164008Y236849D02*
X1225851Y175006D01*
X1225607D02*
X1266624Y216023D01*
X1232791Y175006D02*
X1268584Y210799D01*
X1172249Y242976D02*
X1240219Y175006D01*
X1171568D02*
X1254031D01*
X1288676Y198391D02*
X1369314Y117753D01*
X1285164Y209088D02*
X1369314Y124938D01*
X1288676Y191207D02*
X1369314Y110569D01*
X1288182Y220438D02*
X1369314Y139306D01*
X1288019Y213417D02*
X1369314Y132122D01*
X1206295Y4826D02*
X1369314Y167845D01*
X1199111Y4826D02*
X1369314Y175029D01*
X1227848Y4826D02*
X1369314Y146292D01*
X1288676Y184023D02*
X1369314Y103385D01*
X1191927Y4826D02*
X1369314Y182213D01*
X1162819Y352985D02*
X1369314Y146490D01*
X1120085Y4826D02*
X1369314Y254055D01*
X1127269Y4826D02*
X1369314Y246871D01*
X1169032Y361141D02*
X1369314Y160859D01*
X1166988Y356001D02*
X1369314Y153674D01*
X1177558Y4826D02*
X1369314Y196582D01*
X1184743Y4826D02*
X1369314Y189397D01*
X1134453Y4826D02*
X1369314Y239687D01*
X1141637Y4826D02*
X1369314Y232503D01*
X1328427Y4826D02*
X1369314Y45713D01*
X1321243Y4826D02*
X1369314Y52897D01*
X1335611Y4826D02*
X1369314Y38529D01*
X1306874Y4826D02*
X1369314Y67266D01*
X1314058Y4826D02*
X1369314Y60082D01*
X1357164Y4826D02*
X1369314Y16976D01*
X1364348Y4826D02*
X1369314Y9792D01*
X1342795Y4826D02*
X1369314Y31345D01*
X1349980Y4826D02*
X1369314Y24160D01*
X1256585Y4826D02*
X1369314Y117555D01*
X1249400Y4826D02*
X1369314Y124740D01*
X1263769Y4826D02*
X1369314Y110371D01*
X1235032Y4826D02*
X1369314Y139108D01*
X1242216Y4826D02*
X1369314Y131924D01*
X1292506Y4826D02*
X1369314Y81634D01*
X1299690Y4826D02*
X1369314Y74450D01*
X1278137Y4826D02*
X1369314Y96003D01*
X1285322Y4826D02*
X1369314Y88818D01*
X1271911Y179236D02*
X1369314Y81832D01*
X1268319Y175644D02*
X1369314Y74648D01*
X1264726Y172052D02*
X1369314Y67464D01*
X1284801Y180714D02*
X1369314Y96201D01*
X1277617Y180714D02*
X1369314Y89017D01*
X1261134Y168459D02*
X1369314Y60280D01*
X1256964Y165445D02*
X1369314Y53096D01*
X1206768Y165354D02*
X1367296Y4826D01*
X1192399Y165354D02*
X1352927Y4826D01*
X1199583Y165354D02*
X1360111Y4826D01*
X1148822D02*
X1369314Y225318D01*
X1112900Y4826D02*
X1369314Y261239D01*
X1156006Y4826D02*
X1369314Y218134D01*
X1149294Y165354D02*
X1309822Y4826D01*
X1163190D02*
X1369314Y210950D01*
X1170374Y4826D02*
X1369314Y203766D01*
X1178031Y165354D02*
X1338559Y4826D01*
X1185215Y165354D02*
X1345743Y4826D01*
X1235503Y165354D02*
X1369314Y31543D01*
X1228319Y165354D02*
X1369314Y24359D01*
X1221134Y165354D02*
X1369314Y17175D01*
X1249871Y165354D02*
X1369314Y45911D01*
X1242687Y165354D02*
X1369314Y38727D01*
X1220664Y4826D02*
X1369314Y153476D01*
X1270953Y4826D02*
X1369314Y103187D01*
X1213950Y165354D02*
X1369314Y9990D01*
X1213480Y4826D02*
X1369314Y160660D01*
X1127741Y165354D02*
X1288269Y4826D01*
X1120557Y165354D02*
X1281085Y4826D01*
X1134925Y165354D02*
X1295453Y4826D01*
X1171568Y165354D02*
X1256030D01*
X1113373D02*
X1273901Y4826D01*
X1171291Y164909D02*
X1331374Y4826D01*
X1167452Y161564D02*
X1324190Y4826D01*
X1142110Y165354D02*
X1302638Y4826D01*
X1160895Y160937D02*
X1317006Y4826D01*
X1109805Y305420D02*
X1159916Y255309D01*
X1081069Y276684D02*
X1182747Y175006D01*
X1077477Y273092D02*
X1175563Y175006D01*
X1106213Y301828D02*
X1155785Y252257D01*
X1102621Y298236D02*
X1153789Y247068D01*
X1099029Y294644D02*
X1218667Y175006D01*
X1095437Y291052D02*
X1211482Y175006D01*
X1091845Y287460D02*
X1204298Y175006D01*
X1088253Y283868D02*
X1197115Y175006D01*
X1084661Y280276D02*
X1189931Y175006D01*
X1040772Y360085D02*
X1095796Y305061D01*
X1008051Y223266D02*
X1150918Y366133D01*
X1039337Y354335D02*
X1092204Y301469D01*
X1035588Y350900D02*
X1088612Y297877D01*
X1029238Y350066D02*
X1085020Y294285D01*
X1073885Y269500D02*
X1163654Y179730D01*
X1070293Y265908D02*
X1158049Y178151D01*
X1014001Y223266D02*
X1150265Y359530D01*
X1019420Y215035D02*
X1157090Y352705D01*
X1096291Y175006D02*
X1159094Y237809D01*
X1066701Y262316D02*
X1154010Y175006D01*
X1093470D02*
X1155072D01*
X1063109Y258724D02*
X1146826Y175006D01*
X1059516Y255131D02*
X1139642Y175006D01*
X1103475D02*
X1165559Y237090D01*
X1095469Y165354D02*
X1155072D01*
X1052332Y247947D02*
X1125273Y175006D01*
X1048740Y244355D02*
X1118089Y175006D01*
X1045148Y240763D02*
X1110905Y175006D01*
X1041556Y237171D02*
X1103721Y175006D01*
X1037964Y233579D02*
X1096536Y175006D01*
X1055924Y251539D02*
X1132458Y175006D01*
X1006103Y99186D02*
X1153776Y246859D01*
X1034372Y229987D02*
X1090430Y173928D01*
X1030779Y226395D02*
X1086820Y170354D01*
X968308Y284102D02*
X1034714Y350508D01*
X971592Y278397D02*
X1020362Y229627D01*
X971228Y271577D02*
X1016770Y226035D01*
X968427Y267194D02*
X1012355Y223266D01*
X1027187Y222802D02*
X1083227Y166762D01*
X1023595Y219210D02*
X1079635Y163170D01*
X1020003Y215618D02*
X1076043Y159578D01*
X964391Y357441D02*
X1056283Y265548D01*
X961895Y352752D02*
X1052691Y261956D01*
X963826Y286805D02*
X1027597Y350575D01*
X933544Y270891D02*
X1021691Y359038D01*
X956747Y286909D02*
X1023560Y353723D01*
X957331Y350133D02*
X1049099Y258364D01*
X845279Y223266D02*
X1014001D01*
X964002Y264435D02*
X1005171Y223266D01*
X892692Y213614D02*
X1007120Y99186D01*
X1007639Y213614D02*
X1068859Y152394D01*
X1000455Y213614D02*
X1065267Y148802D01*
X1014823Y213614D02*
X1072451Y155986D01*
X986086Y213614D02*
X1058083Y141618D01*
X993271Y213614D02*
X1061675Y145210D01*
X971718Y213614D02*
X1050899Y134433D01*
X978902Y213614D02*
X1054491Y138026D01*
X971926Y199038D02*
X1043714Y127249D01*
X970329Y193450D02*
X1040122Y123657D01*
X966886Y189709D02*
X1036530Y120065D01*
X964534Y213614D02*
X1047306Y130841D01*
X961723Y187688D02*
X1032938Y116473D01*
X843280Y213614D02*
X1016000D01*
X928613D02*
X1029346Y112881D01*
X914244Y213614D02*
X1022162Y105697D01*
X921429Y213614D02*
X1025754Y109289D01*
X899876Y213614D02*
X1014304Y99186D01*
X907060Y213614D02*
X1018569Y102105D01*
X1069795Y4826D02*
X1230323Y165354D01*
X1062611Y4826D02*
X1223139Y165354D01*
X1076979Y4826D02*
X1237507Y165354D01*
X1048243Y4826D02*
X1208771Y165354D01*
X1055427Y4826D02*
X1215955Y165354D01*
X1105716Y4826D02*
X1281604Y180714D01*
X1098532Y4826D02*
X1274420Y180714D01*
X1099004Y165354D02*
X1259532Y4826D01*
X1084164D02*
X1244692Y165354D01*
X1091348Y4826D02*
X1251876Y165354D01*
X994560Y94828D02*
X1268715Y368982D01*
X990572Y98023D02*
X1267065Y374517D01*
X1012321Y4826D02*
X1172850Y165354D01*
X811164Y4826D02*
X1158761Y352423D01*
X1013287Y99186D02*
X1155294Y241193D01*
X1033874Y4826D02*
X1194402Y165354D01*
X1041058Y4826D02*
X1201586Y165354D01*
X1019506Y4826D02*
X1180034Y165354D01*
X1026690Y4826D02*
X1187218Y165354D01*
X1082868Y152753D02*
X1230796Y4826D01*
X1079276Y149161D02*
X1223611Y4826D01*
X1075684Y145569D02*
X1216427Y4826D01*
X1072092Y141977D02*
X1209243Y4826D01*
X1068500Y138385D02*
X1202059Y4826D01*
X1106189Y165354D02*
X1266717Y4826D01*
X1093644Y163530D02*
X1252348Y4826D01*
X1090052Y159937D02*
X1245164Y4826D01*
X1086460Y156345D02*
X1237980Y4826D01*
X1050539Y120424D02*
X1166137Y4826D01*
X1005137D02*
X1161178Y160867D01*
X1046947Y116832D02*
X1158953Y4826D01*
X997953D02*
X1156556Y163429D01*
X1043355Y113240D02*
X1151769Y4826D01*
X1064908Y134793D02*
X1194874Y4826D01*
X1061316Y131201D02*
X1187690Y4826D01*
X1057723Y127608D02*
X1180506Y4826D01*
X1054131Y124016D02*
X1173322Y4826D01*
X1022476Y86823D02*
X1101007Y165354D01*
X1022476Y92361D02*
X1095469Y165354D01*
X1022476Y79638D02*
X1108192Y165354D01*
X1015651Y99186D02*
X1090050Y173585D01*
X999364Y99186D02*
X1015651D01*
X990769Y4826D02*
X1151297Y165354D01*
X983585Y4826D02*
X1144113Y165354D01*
X1039763Y109648D02*
X1144585Y4826D01*
X1036171Y106056D02*
X1137401Y4826D01*
X1032579Y102464D02*
X1130217Y4826D01*
X750165Y277114D02*
X1022453Y4826D01*
X742981Y277114D02*
X1015269Y4826D01*
X803979D02*
X1012767Y213614D01*
X735797Y277114D02*
X1008085Y4826D01*
X796795D02*
X1005583Y213614D01*
X969216Y4826D02*
X1129744Y165354D01*
X976401Y4826D02*
X1136928Y165354D01*
X954848Y4826D02*
X1115376Y165354D01*
X962032Y4826D02*
X1122560Y165354D01*
X1022476Y91014D02*
X1108664Y4826D01*
X1008679Y76074D02*
X1079927Y4826D01*
X1015863Y76074D02*
X1087111Y4826D01*
X1022476Y76074D02*
Y92361D01*
X1001495Y76074D02*
X1072743Y4826D01*
X1028987Y98872D02*
X1123032Y4826D01*
X1025395Y95280D02*
X1115848Y4826D01*
X1022476Y83830D02*
X1101480Y4826D01*
X1022476Y76645D02*
X1094295Y4826D01*
X964649Y76999D02*
X1036822Y4826D01*
X958235Y76229D02*
X1029638Y4826D01*
X999364Y76074D02*
X1022476D01*
X940479Y4826D02*
X1011727Y76074D01*
X947664Y4826D02*
X1018912Y76074D01*
X992191Y78194D02*
X1065559Y4826D01*
X987028Y76173D02*
X1058374Y4826D01*
X971302Y84714D02*
X1051190Y4826D01*
X968814Y80018D02*
X1044006Y4826D01*
X976463Y529336D02*
X977479Y530352D01*
X971084D02*
X972100Y529336D01*
X978268Y530352D02*
X979284Y529336D01*
X963900Y530352D02*
X964916Y529336D01*
X969279D02*
X970295Y530352D01*
X990354Y521675D02*
X999032Y530352D01*
X985452D02*
X997136Y518668D01*
X992636Y530352D02*
X1004321Y518668D01*
X983039Y528728D02*
X984663Y530352D01*
X986762Y525267D02*
X991847Y530352D01*
X875155Y655018D02*
X990169Y540004D01*
X874455Y648534D02*
X982984Y540004D01*
X917669Y530352D02*
X944962D01*
X962394Y529635D02*
X963111Y530352D01*
X962559Y529336D02*
X980694D01*
X916653D02*
X944346D01*
X984114Y527915D02*
X993361Y518668D01*
X961731Y514604D02*
X966811Y519684D01*
X962559D02*
X978695D01*
X983775Y514604D01*
X974568Y519684D02*
X979648Y514604D01*
X976099D02*
X979937Y518442D01*
X967383Y519684D02*
X972464Y514604D01*
X968915D02*
X973995Y519684D01*
X940178Y514604D02*
X944678Y519104D01*
X917194Y514604D02*
X950609D01*
X938647Y519684D02*
X943727Y514604D01*
X914367Y519684D02*
X944346D01*
X961637Y518246D02*
X965279Y514604D01*
X956296D02*
X983775D01*
X947363D02*
X948327Y515569D01*
X936842Y540004D02*
X943630Y546792D01*
X920794Y530352D02*
X921810Y529336D01*
X926173D02*
X927189Y530352D01*
X916653Y529336D02*
X917669Y530352D01*
X918989Y529336D02*
X920005Y530352D01*
X940542Y529336D02*
X941558Y530352D01*
X935163D02*
X936179Y529336D01*
X942347Y530352D02*
X943363Y529336D01*
X927979Y530352D02*
X928995Y529336D01*
X933358D02*
X934374Y530352D01*
X874965Y604918D02*
X939879Y540004D01*
X874613Y598086D02*
X932695Y540004D01*
X875378Y575769D02*
X912410Y538736D01*
X904273Y530606D02*
X912250Y538583D01*
X874156Y530606D02*
X904273D01*
X874681Y554913D02*
X898988Y530606D01*
X874760Y547649D02*
X891804Y530606D01*
X925810Y514604D02*
X930890Y519684D01*
X924278D02*
X929358Y514604D01*
X931462Y519684D02*
X936542Y514604D01*
X917094Y519684D02*
X922174Y514604D01*
X918626D02*
X923706Y519684D01*
X932994Y514604D02*
X938074Y519684D01*
X912138Y517455D02*
X915354Y514240D01*
X894271Y520954D02*
X898129Y517096D01*
X883721Y515620D02*
X889055Y520954D01*
X874156D02*
X901987D01*
X876536Y515620D02*
X881870Y520954D01*
X879903D02*
X885237Y515620D01*
X896653D02*
X901987Y520954D01*
X908546Y513863D02*
X911500Y510909D01*
X887087Y520954D02*
X892421Y515620D01*
X890905D02*
X896239Y520954D01*
X997321Y507088D02*
X999248Y509016D01*
X995393D02*
X1000473Y503936D01*
X961943Y504952D02*
X985807D01*
X963378Y501883D02*
X966447Y504952D01*
X985807D02*
X995054Y495705D01*
X962203Y479155D02*
X986904Y503856D01*
X963757Y473525D02*
X990496Y500263D01*
X961932Y493252D02*
X973632Y504952D01*
X958538Y482674D02*
X980816Y504952D01*
X919193D02*
X944962D01*
X911140Y496901D02*
X953635Y454406D01*
X951823D02*
X994088Y496671D01*
X924642Y504952D02*
X947483Y482111D01*
X931826Y504952D02*
X952784Y483994D01*
X959007Y454406D02*
X998885Y494284D01*
X955036Y488926D02*
X989556Y454406D01*
X957965Y464445D02*
X968004Y454406D01*
X963029Y495302D02*
X1003925Y454406D01*
X959997Y491149D02*
X996740Y454406D01*
X963737Y473041D02*
X982372Y454406D01*
X961853Y467740D02*
X975188Y454406D01*
X952665Y483986D02*
X959310Y490630D01*
X915901Y454406D02*
X950679Y489184D01*
X905303Y495554D02*
X946451Y454406D01*
X908717D02*
X946149Y491838D01*
X951665Y463560D02*
X960819Y454406D01*
X944638D02*
X953638Y463406D01*
X937454Y454406D02*
X948008Y464960D01*
X877078Y444754D02*
X953071Y368761D01*
X904954Y510271D02*
X907908Y507317D01*
X902072Y507389D02*
X914367Y519684D01*
X894889Y505968D02*
X895651Y505206D01*
X911216Y496975D02*
X919193Y504952D01*
X902044Y505206D02*
X916522Y519684D01*
X939010Y504952D02*
X943269Y500693D01*
X905797Y505206D02*
X913774Y513183D01*
X901289Y506752D02*
X902835Y505206D01*
X887705Y505968D02*
X888467Y505206D01*
X887675D02*
X888437Y505968D01*
X874156Y505206D02*
X905797D01*
X880491D02*
X881253Y505968D01*
X880520D02*
X881283Y505206D01*
X887165Y454406D02*
X937710Y504952D01*
X894349Y454406D02*
X944895Y504952D01*
X894859Y505206D02*
X895621Y505968D01*
X879980Y454406D02*
X930526Y504952D01*
X918325Y504084D02*
X944187Y478223D01*
X914733Y500492D02*
X943303Y471923D01*
X890935Y495554D02*
X932083Y454406D01*
X901533D02*
X943513Y496386D01*
X930270Y454406D02*
X944489Y468625D01*
X898119Y495554D02*
X939267Y454406D01*
X923086D02*
X943177Y474497D01*
X874156Y495554D02*
X907796D01*
X874131Y470109D02*
X899576Y495554D01*
X875409Y475159D02*
X896163Y454406D01*
X874914Y478077D02*
X892392Y495554D01*
X873808Y469577D02*
X888979Y454406D01*
X876568Y495554D02*
X917716Y454406D01*
X883750Y495554D02*
X924898Y454406D01*
X874782Y427655D02*
X891881Y444754D01*
X874626Y420314D02*
X899065Y444754D01*
X872327Y532963D02*
X958743Y619380D01*
X867634Y535454D02*
X953070Y620890D01*
X873385Y570577D02*
X908815Y535148D01*
X869334Y567444D02*
X905222Y531555D01*
X866695Y541346D02*
X877435Y530606D01*
X872627Y518894D02*
X874686Y520954D01*
X871742Y543484D02*
X884619Y530606D01*
X873601Y520072D02*
X878053Y515620D01*
X869352D02*
X872391Y518658D01*
X869688Y516800D02*
X870869Y515620D01*
X860681Y535686D02*
X866301Y541306D01*
X859155Y535686D02*
X865505D01*
X696754Y529811D02*
X860617Y693674D01*
X859583Y541274D02*
X865171Y535686D01*
X808482Y515620D02*
X896653D01*
X696591Y479359D02*
X860106Y642874D01*
X859155Y515874D02*
X865505D01*
X873684Y505968D02*
X898652D01*
X867208Y484739D02*
X878023Y495554D01*
X872060Y482407D02*
X885207Y495554D01*
X860171Y484886D02*
X865762Y490477D01*
X860095Y490474D02*
X865685Y484884D01*
X859155Y484886D02*
X865505D01*
X859155Y490474D02*
X865505D01*
X859155Y465074D02*
X865505D01*
X697247Y523120D02*
X849620Y675493D01*
X697095Y675026D02*
X849917Y522205D01*
X811879Y515620D02*
X849457Y553198D01*
X697609Y652960D02*
X834949Y515620D01*
X697217Y624615D02*
X806596Y515236D01*
X697505Y501825D02*
X849283Y653604D01*
X697410Y472993D02*
X849515Y625099D01*
X697585Y602694D02*
X795571Y504708D01*
X697325Y574217D02*
X781203Y490340D01*
X697528Y552462D02*
X770426Y479563D01*
X696426Y682878D02*
X849926Y529379D01*
X695801Y697872D02*
X858049Y535624D01*
X694220Y670718D02*
X849317Y515620D01*
X696008Y647377D02*
X827765Y515620D01*
X695409Y633607D02*
X813396Y515620D01*
X695270Y506775D02*
X857005Y668510D01*
X694488Y620160D02*
X802755Y511892D01*
X696204Y596891D02*
X791979Y501116D01*
X694746Y569612D02*
X777611Y486748D01*
X833431Y515620D02*
X859085Y541274D01*
X854984Y515620D02*
X855817Y516453D01*
X840615Y515620D02*
X849352Y524356D01*
X847800Y515620D02*
X851578Y519399D01*
X855580Y516542D02*
X856501Y515620D01*
X837417Y505968D02*
X858519Y484866D01*
X844601Y505968D02*
X849290Y501279D01*
X830232Y505968D02*
X853260Y482941D01*
X826247Y515620D02*
X853603Y542976D01*
X819063Y515620D02*
X850261Y546818D01*
X810481Y505968D02*
X850976D01*
X815864D02*
X849653Y472179D01*
X823048Y505968D02*
X850075Y478941D01*
X696390Y546416D02*
X766834Y475971D01*
X697418Y523835D02*
X756058Y465195D01*
X873633Y455243D02*
X923342Y504952D01*
X869741Y458535D02*
X906760Y495554D01*
X867143Y490610D02*
X903347Y454406D01*
X863942Y465074D02*
X871732Y457284D01*
X872020Y492918D02*
X910531Y454406D01*
X801419Y325555D02*
X920618Y444754D01*
X802015Y318967D02*
X927802Y444754D01*
X870032Y466169D02*
X881794Y454406D01*
X873209Y455807D02*
X874610Y454406D01*
X777251Y472738D02*
X962927Y287062D01*
X773659Y469146D02*
X956107Y286698D01*
X770067Y465554D02*
X951724Y283897D01*
X752107Y447594D02*
X911664Y288036D01*
X796072Y305840D02*
X934986Y444754D01*
X759291Y454778D02*
X966926Y247143D01*
X755699Y451186D02*
X957811Y249073D01*
X766475Y461962D02*
X948965Y279472D01*
X762883Y458370D02*
X948708Y272545D01*
X872288Y442360D02*
X948382Y366265D01*
X871784Y431842D02*
X884697Y444754D01*
X867572Y439892D02*
X945763Y361701D01*
X866764Y434006D02*
X877513Y444754D01*
X835742Y288036D02*
X992460Y444754D01*
X842926Y288036D02*
X999644Y444754D01*
X821374Y288036D02*
X978092Y444754D01*
X828558Y288036D02*
X985276Y444754D01*
X800014Y302598D02*
X942170Y444754D01*
X798394Y329714D02*
X913434Y444754D01*
X802145Y297544D02*
X949355Y444754D01*
X793600Y332105D02*
X906249Y444754D01*
X744922Y440410D02*
X897296Y288036D01*
X807005D02*
X963723Y444754D01*
X814189Y288036D02*
X970907Y444754D01*
X799821Y288036D02*
X956539Y444754D01*
X748515Y444002D02*
X904480Y288036D01*
X809580Y505067D02*
X855761Y458886D01*
X798804Y494291D02*
X859010Y434085D01*
X795212Y490699D02*
X853558Y432353D01*
X805988Y501475D02*
X851544Y455920D01*
X802396Y497883D02*
X849342Y450937D01*
X725867Y357766D02*
X858591Y490490D01*
X718682Y357766D02*
X853303Y492387D01*
X791620Y487107D02*
X850236Y428491D01*
X788028Y483515D02*
X849477Y422065D01*
X726066Y350781D02*
X849296Y474012D01*
X697431Y451462D02*
X849348Y603379D01*
X695032Y456247D02*
X856595Y617810D01*
X694995Y519073D02*
X752466Y461603D01*
X697429Y502272D02*
X745282Y454419D01*
X696566Y495951D02*
X741690Y450827D01*
X696417Y428895D02*
X859596Y592074D01*
X711498Y357766D02*
X850099Y496366D01*
X697516Y422810D02*
X849425Y574719D01*
X704314Y357766D02*
X849622Y503074D01*
X863508Y459486D02*
X870376Y466354D01*
X856354Y465478D02*
X862346Y459486D01*
X859155D02*
X865505D01*
X855702Y458865D02*
X861911Y465074D01*
X859155Y439674D02*
X865505D01*
X860605D02*
X866219Y434060D01*
X726066Y336413D02*
X855447Y465794D01*
X859660Y434086D02*
X865248Y439674D01*
X726066Y343597D02*
X851350Y468881D01*
X697495Y473469D02*
X730913Y440050D01*
X695235Y468544D02*
X727321Y436458D01*
X697276Y452135D02*
X720137Y429274D01*
X696730Y445496D02*
X716545Y425682D01*
X717811Y306605D02*
X853014Y441808D01*
X722465Y304075D02*
X858119Y439728D01*
X724238Y327400D02*
X849870Y453033D01*
X726043Y322021D02*
X849948Y445926D01*
X886031Y288036D02*
X949570Y351575D01*
X893216Y288036D02*
X955034Y349854D01*
X878847Y288036D02*
X946318Y355506D01*
X917820Y286615D02*
X955910Y248525D01*
X937136Y267299D02*
X948801Y278964D01*
X878211Y278384D02*
X933329Y223266D01*
X871663Y288036D02*
X945934Y362307D01*
X798971Y288036D02*
X914400D01*
X798971Y278384D02*
X912401D01*
X835106D02*
X890224Y223266D01*
X849998D02*
X905116Y278384D01*
X863843D02*
X918961Y223266D01*
X871027Y278384D02*
X926145Y223266D01*
X856658Y278384D02*
X911777Y223266D01*
X857182D02*
X912300Y278384D01*
X951505Y252930D02*
X962621Y264047D01*
X944321Y260114D02*
X951608Y267402D01*
X947913Y256522D02*
X955935Y264545D01*
X971703Y235181D02*
X983619Y223266D01*
X969773Y244296D02*
X990803Y223266D01*
X969451Y230249D02*
X976434Y223266D01*
X965527Y226989D02*
X969250Y223266D01*
X959643Y225689D02*
X962066Y223266D01*
X912401Y278384D02*
X949085Y241700D01*
X906948Y278384D02*
X948319Y237013D01*
X940728Y263707D02*
X948905Y271884D01*
X840454Y228091D02*
X890748Y278384D01*
X844046Y224499D02*
X897932Y278384D01*
X864367Y223266D02*
X915943Y274842D01*
X871551Y223266D02*
X919535Y271250D01*
X842290Y278384D02*
X897408Y223266D01*
X849474Y278384D02*
X904592Y223266D01*
X859155Y414274D02*
X865505D01*
X859155Y434086D02*
X865505D01*
X802257Y347154D02*
X861375Y288036D01*
X802203Y347892D02*
X869370Y415059D01*
X801957Y318717D02*
X832638Y288036D01*
X802222Y296900D02*
X811085Y288036D01*
X801264Y275110D02*
X804537Y278384D01*
X800230Y353103D02*
X861401Y414274D01*
X797456Y337587D02*
X847007Y288036D01*
X800396Y327462D02*
X839822Y288036D01*
X799498Y313992D02*
X825454Y288036D01*
X800879Y341348D02*
X854191Y288036D01*
X799185Y278384D02*
X854303Y223266D01*
X801056Y290881D02*
X803901Y288036D01*
X826086Y242459D02*
X862011Y278384D01*
X822494Y246051D02*
X854827Y278384D01*
X829678Y238867D02*
X869195Y278384D01*
X815310Y253235D02*
X840458Y278384D01*
X818902Y249643D02*
X847643Y278384D01*
X827922D02*
X883040Y223266D01*
X836862Y231683D02*
X883564Y278384D01*
X820737D02*
X875855Y223266D01*
X833270Y235275D02*
X876379Y278384D01*
X808126Y260420D02*
X826090Y278384D01*
X804533Y264012D02*
X818906Y278384D01*
X811718Y256827D02*
X833274Y278384D01*
X802132Y268795D02*
X811721Y278384D01*
X806369D02*
X861487Y223266D01*
X813553Y278384D02*
X868671Y223266D01*
X802050Y268335D02*
X847119Y223266D01*
X801656Y266889D02*
X845279Y223266D01*
X969629Y206396D02*
X976846Y213614D01*
X957075Y264178D02*
X997987Y223266D01*
X971767Y201351D02*
X984031Y213614D01*
X960065Y211201D02*
X962478Y213614D01*
X965796Y209748D02*
X969662Y213614D01*
X871139D02*
X985567Y99186D01*
X863955Y213614D02*
X979862Y97706D01*
X885507Y213614D02*
X999935Y99186D01*
X849586Y213614D02*
X965182Y98018D01*
X856771Y213614D02*
X976084Y94301D01*
X878323Y213614D02*
X999364Y92573D01*
X804560Y179613D02*
X979348Y4826D01*
X803070Y173920D02*
X972164Y4826D01*
X799286Y170519D02*
X964980Y4826D01*
X996845Y89929D02*
X999364Y92448D01*
X997076Y87677D02*
X999364Y85389D01*
Y76074D02*
Y99186D01*
X995596Y81972D02*
X999364Y78205D01*
X994661Y80561D02*
X999364Y85263D01*
X970508Y92692D02*
X974063Y89138D01*
X897374Y4826D02*
X975127Y82578D01*
X904558Y4826D02*
X978322Y78590D01*
X971590Y86227D02*
X974009Y88645D01*
X890190Y4826D02*
X961524Y76160D01*
X926111Y4826D02*
X999364Y78079D01*
X933295Y4826D02*
X1004543Y76074D01*
X918927Y4826D02*
X992589Y78489D01*
X911743Y4826D02*
X983222Y76305D01*
X914656Y223266D02*
X941088Y249697D01*
X899764Y278384D02*
X954882Y223266D01*
X921840D02*
X944680Y246105D01*
X900288Y223266D02*
X933903Y256882D01*
X907472Y223266D02*
X937495Y253290D01*
X950577Y223266D02*
X954444Y227132D01*
X943393Y223266D02*
X950611Y230484D01*
X957762Y223266D02*
X960175Y225679D01*
X929025Y223266D02*
X948272Y242513D01*
X936209Y223266D02*
X948473Y235530D01*
X892579Y278384D02*
X947698Y223266D01*
X885395Y278384D02*
X940513Y223266D01*
X893103D02*
X930311Y260474D01*
X878735Y223266D02*
X923127Y267658D01*
X885919Y223266D02*
X926719Y264066D01*
X799742Y187378D02*
X833629Y221266D01*
X803332Y183784D02*
X837222Y217673D01*
X957349Y213614D02*
X959768Y211196D01*
X950165Y213614D02*
X954180Y209599D01*
X935797Y213614D02*
X948418Y200993D01*
X942981Y213614D02*
X950439Y206156D01*
X883006Y4826D02*
X955305Y77125D01*
X868637Y4826D02*
X948857Y85045D01*
X875822Y4826D02*
X951236Y80240D01*
X842302Y213714D02*
X957204Y98812D01*
X803832Y83706D02*
X933741Y213614D01*
X803969Y76657D02*
X940925Y213614D01*
X804485Y177752D02*
X840947Y214215D01*
X800664Y87721D02*
X926557Y213614D01*
X861453Y4826D02*
X950223Y93596D01*
X804529Y79066D02*
X878769Y4826D01*
X802432Y73979D02*
X871585Y4826D01*
X798221Y71006D02*
X864401Y4826D01*
X790502Y357743D02*
X851130Y418372D01*
X726310Y300736D02*
X849261Y423687D01*
X796410Y356467D02*
X855089Y415147D01*
X726962Y422449D02*
X791654Y357757D01*
X741330Y436817D02*
X890112Y288036D01*
X737738Y433225D02*
X882927Y288036D01*
X734146Y429633D02*
X875743Y288036D01*
X730554Y426041D02*
X868559Y288036D01*
X726066Y351503D02*
X780245Y297324D01*
X723370Y418857D02*
X785848Y356379D01*
X712594Y408080D02*
X788616Y332057D01*
X709001Y404488D02*
X783892Y329598D01*
X719778Y415265D02*
X782087Y352956D01*
X716186Y411673D02*
X780195Y347663D01*
X698225Y393712D02*
X786181Y305756D01*
X694633Y390120D02*
X782299Y302454D01*
X705409Y400896D02*
X780929Y325377D01*
X701817Y397304D02*
X780481Y318640D01*
X792163Y335695D02*
X797362Y330496D01*
X789941Y306893D02*
X793553Y310505D01*
X784020Y329709D02*
X790029Y335717D01*
X788540Y310581D02*
X792200Y306922D01*
X795277Y311029D02*
X818270Y288036D01*
X776596Y299315D02*
X780155Y295756D01*
X779480Y296432D02*
X780227Y297179D01*
X747863Y300736D02*
X784817Y337690D01*
X740679Y300736D02*
X781453Y341510D01*
X755047Y300736D02*
X782812Y328500D01*
X733494Y300736D02*
X780177Y347418D01*
X762231Y300736D02*
X780415Y318920D01*
X769416Y300736D02*
X782806Y314126D01*
X775815Y299951D02*
X786965Y311101D01*
X726066Y335654D02*
Y357766D01*
X725307Y335654D02*
X726066Y336413D01*
X720538Y330885D02*
X725307Y335654D01*
X713178D02*
X716578Y332254D01*
X714834Y332365D02*
X718123Y335654D01*
X726066Y337134D02*
X762464Y300736D01*
X726066Y344319D02*
X769649Y300736D01*
X720362Y335654D02*
X755280Y300736D01*
X725954Y322878D02*
X748096Y300736D01*
X703954Y357766D02*
X726066D01*
X697554Y423120D02*
X705769Y414906D01*
X703954Y337694D02*
X705994Y335654D01*
X695466Y418024D02*
X702176Y411313D01*
X703954Y335654D02*
Y357766D01*
Y335654D02*
X726066D01*
X705994D02*
X710324Y331324D01*
X741077Y286766D02*
X745395Y291084D01*
X736195D02*
X740513Y286766D01*
X743380Y291084D02*
X747698Y286766D01*
X726709D02*
X731027Y291084D01*
X733893Y286766D02*
X738211Y291084D01*
X762630Y286766D02*
X766948Y291084D01*
X764932D02*
X769250Y286766D01*
X748261D02*
X752579Y291084D01*
X750564D02*
X754882Y286766D01*
X721844Y312619D02*
X733727Y300736D01*
X716868Y310411D02*
X726543Y300736D01*
X709539Y305518D02*
X714299Y310277D01*
X724957Y300736D02*
X773176D01*
X724957Y291084D02*
X771177D01*
X725024Y316624D02*
X740912Y300736D01*
X723760Y289151D02*
X726145Y286766D01*
X794831Y260064D02*
X839860Y215035D01*
X764534Y277114D02*
X949489Y92159D01*
X789192Y259640D02*
X952508Y96324D01*
X793716Y188537D02*
X830037Y224858D01*
X782427Y4826D02*
X991215Y213614D01*
X746506Y4826D02*
X955294Y213614D01*
X789611Y4826D02*
X998399Y213614D01*
X757349Y277114D02*
X948719Y85745D01*
X739322Y4826D02*
X948110Y213614D01*
X728260Y180554D02*
X801301Y253594D01*
X722672Y88755D02*
X847531Y213614D01*
X726625Y85524D02*
X854715Y213614D01*
X722126Y262048D02*
X795564Y188610D01*
X725952Y185430D02*
X797708Y257187D01*
X728613Y277114D02*
X1000901Y4826D01*
X725848Y272694D02*
X993717Y4826D01*
X725182Y266177D02*
X986532Y4826D01*
X728376Y80091D02*
X861899Y213614D01*
X795320Y89561D02*
X919373Y213614D01*
X753690Y4826D02*
X948309Y199445D01*
X760874Y4826D02*
X949762Y193714D01*
X775242Y4826D02*
X958159Y187743D01*
X792860Y169761D02*
X957795Y4826D01*
X768058D02*
X953114Y189881D01*
X790394Y71648D02*
X857216Y4826D01*
X703400D02*
X912188Y213614D01*
X696216Y4826D02*
X905004Y213614D01*
X725614Y172350D02*
X893138Y4826D01*
X721011Y169769D02*
X885953Y4826D01*
X715813Y89080D02*
X796338Y169605D01*
X728149Y176999D02*
X900322Y4826D01*
X727258Y84495D02*
X806927Y4826D01*
X727807Y76762D02*
X799743Y4826D01*
X732137D02*
X798373Y71061D01*
X771177Y291084D02*
X775495Y286766D01*
X757748Y291084D02*
X762066Y286766D01*
X769814D02*
X772654Y289606D01*
X729011Y291084D02*
X733329Y286766D01*
X755446D02*
X759764Y291084D01*
X771718Y277114D02*
X780340Y268492D01*
X723877Y277114D02*
X777781D01*
X780764Y274131D01*
X726003Y271691D02*
X731425Y277114D01*
X721225Y286766D02*
X775495D01*
X697972D02*
X704315Y293109D01*
X705156Y286766D02*
X706845Y288455D01*
X699876Y277114D02*
X704193Y272797D01*
X721562Y188224D02*
X792925Y259588D01*
X724816Y72569D02*
X792559Y4826D01*
X724953D02*
X791324Y71198D01*
X719705Y70495D02*
X785374Y4826D01*
X717297Y259693D02*
X789870Y187120D01*
X710585Y4826D02*
X785469Y79710D01*
X717769Y4826D02*
X787309Y74366D01*
X681313Y916686D02*
X746591Y981964D01*
X674129Y916686D02*
X739407Y981964D01*
X688497Y916686D02*
X753775Y981964D01*
X672385Y886206D02*
X673239Y887059D01*
X693382Y864098D02*
X718539Y889254D01*
X687983Y865882D02*
X711355Y889254D01*
X690821Y839983D02*
X737981Y887144D01*
X648788Y981964D02*
X731846Y898906D01*
X641980D02*
X725038Y981964D01*
X649164Y898906D02*
X732222Y981964D01*
X641603D02*
X724661Y898906D01*
X671449Y916686D02*
X697611D01*
X655972Y981964D02*
X739224Y898712D01*
X669384Y875157D02*
X678951Y865590D01*
X643516Y889254D02*
X675344D01*
X663448Y862900D02*
X674643Y874095D01*
X681355Y865886D02*
X687705D01*
X684139Y840486D02*
X689996Y846342D01*
X684099Y846074D02*
X689943Y840230D01*
X681355Y846074D02*
X687705D01*
X681355Y840486D02*
X687705D01*
X680786Y865870D02*
X686390Y871474D01*
X680182Y871544D02*
X685839Y865886D01*
X681355Y871474D02*
X687705D01*
X665792Y871565D02*
X674361Y862996D01*
X663061Y859928D02*
X682503Y840486D01*
X643515Y835783D02*
X679401Y871669D01*
X659715Y856090D02*
X676557Y839247D01*
X671449Y898906D02*
Y916686D01*
X670717Y898906D02*
X671449Y899638D01*
X668782Y886206D02*
X672704D01*
X656349Y898906D02*
X671449Y914006D01*
X663533Y898906D02*
X671449Y906822D01*
X669656Y889254D02*
X672704Y886206D01*
X655287Y889254D02*
X662559Y881982D01*
X662471Y889254D02*
X666242Y885483D01*
X643516Y878889D02*
X653881Y889254D01*
X640080Y898906D02*
X671449D01*
X648103Y889254D02*
X658967Y878390D01*
X643516Y875404D02*
Y889254D01*
Y886073D02*
X646697Y889254D01*
X643091Y864096D02*
X668249Y889254D01*
X655217Y874640D02*
X665362Y884785D01*
X640481Y868670D02*
X661065Y889254D01*
X643516Y886657D02*
X655375Y874798D01*
X670781Y876554D02*
X672704D01*
X663448Y869221D02*
X670781Y876554D01*
X663448Y861822D02*
Y869221D01*
X653796Y863821D02*
Y871220D01*
X663448Y866725D02*
X671754Y858419D01*
X656123Y852498D02*
X672892Y835728D01*
X643516Y879473D02*
X653796Y869193D01*
X642401Y856222D02*
X653796Y867617D01*
X640400Y875404D02*
X652890Y862915D01*
X642038Y866582D02*
X649298Y859323D01*
X642906Y839281D02*
X662027Y858402D01*
X643160Y858276D02*
X645705Y855730D01*
X640635Y853617D02*
X642113Y852138D01*
X684709Y981964D02*
X846507Y820166D01*
X677525Y981964D02*
X839323Y820166D01*
X693053Y873041D02*
X743312Y822781D01*
X691893Y981964D02*
X853691Y820166D01*
X687476Y815086D02*
X745490Y873100D01*
X693077Y813503D02*
X745490Y865916D01*
X687436Y871474D02*
X739720Y819189D01*
X690790Y846567D02*
X728944Y808413D01*
X671875Y835406D02*
X682543Y846074D01*
X663156Y981964D02*
X824954Y820166D01*
X664691Y835406D02*
X676584Y847299D01*
X670340Y981964D02*
X832138Y820166D01*
X668498Y825754D02*
X679367Y814884D01*
X661313Y825754D02*
X674622Y812446D01*
X660843Y810006D02*
X674382Y823544D01*
X693359Y822446D02*
X718168Y797637D01*
X681355Y795274D02*
X687705D01*
X681355Y820674D02*
X687705D01*
X681355Y815086D02*
X687705D01*
X687943Y820677D02*
X713854Y794766D01*
X691168Y795899D02*
X692301Y794766D01*
X688709D02*
X689355Y795412D01*
X680743Y820693D02*
X686350Y815086D01*
X680227Y815022D02*
X685880Y820674D01*
X668028Y810006D02*
X678984Y820962D01*
X672345Y800354D02*
X673339Y799360D01*
X672846Y794766D02*
X715297D01*
X675535Y797164D02*
X677933Y794766D01*
X674340D02*
X676259Y796685D01*
X657506Y835406D02*
X672907Y850807D01*
X652530Y848905D02*
X666030Y835406D01*
X652780D02*
X672704D01*
X648938Y845313D02*
X658846Y835406D01*
X654779Y825754D02*
X672704D01*
X653659Y810006D02*
X669407Y825754D01*
X654454Y825429D02*
X669877Y810006D01*
X650862Y821837D02*
X662693Y810006D01*
X645346Y841721D02*
X651769Y835299D01*
X642906Y813881D02*
X654779Y825754D01*
X642971Y813687D02*
X655039Y825754D01*
X643492Y836392D02*
X647629Y832254D01*
X642225Y830474D02*
X644037Y828662D01*
X642791Y806322D02*
X662223Y825754D01*
X647270Y818245D02*
X655509Y810006D01*
X643678Y814653D02*
X649558Y808773D01*
X654779Y800354D02*
X672704D01*
X652780Y810006D02*
X672704D01*
X665161Y800354D02*
X671083Y794432D01*
X657977Y800354D02*
X667206Y791125D01*
X663345Y787264D02*
X669426Y793345D01*
X652786Y798361D02*
X663614Y787533D01*
X642906Y788481D02*
X654779Y800354D01*
X643259Y807888D02*
X645961Y805186D01*
X640874Y803088D02*
X642369Y801594D01*
X649194Y794769D02*
X661924Y782038D01*
X645602Y791177D02*
X662020Y774758D01*
X643499Y785477D02*
X658376Y800354D01*
X627235Y981964D02*
X692513Y916686D01*
X626222Y897516D02*
X710670Y981964D01*
X634419D02*
X717477Y898906D01*
X576946Y981964D02*
X660004Y898906D01*
X620051Y981964D02*
X685329Y916686D01*
X597567Y876046D02*
X703485Y981964D01*
X590383Y876046D02*
X696301Y981964D01*
X633406Y897516D02*
X717854Y981964D01*
X576015Y876046D02*
X681933Y981964D01*
X583199Y876046D02*
X689117Y981964D01*
X569761D02*
X652819Y898906D01*
X562577Y981964D02*
X645635Y898906D01*
X4826Y981964D02*
X1369314D01*
X548209D02*
X632657Y897516D01*
X555393Y981964D02*
X638663Y898693D01*
X540094Y876046D02*
X646012Y981964D01*
X547278Y876046D02*
X653196Y981964D01*
X530905Y881226D02*
X631643Y981964D01*
X536410Y879546D02*
X638828Y981964D01*
X624705Y875404D02*
X643516D01*
X629005Y871562D02*
X632847Y875404D01*
X636120Y871493D02*
X640031Y875404D01*
X633216D02*
X637982Y870638D01*
X636355Y850713D02*
X638521Y848546D01*
X598498Y981964D02*
X671449Y909013D01*
X591314Y981964D02*
X671449Y901829D01*
X612867Y981964D02*
X678145Y916686D01*
X584130Y981964D02*
X667188Y898906D01*
X605682Y981964D02*
X671449Y916198D01*
X561646Y876046D02*
X667564Y981964D01*
X568831Y876046D02*
X674749Y981964D01*
X554462Y876046D02*
X660380Y981964D01*
X621404Y897516D02*
X636691D01*
X621404Y876046D02*
Y897516D01*
X541025Y981964D02*
X625472Y897516D01*
X619120Y876046D02*
X621404Y878330D01*
X604752Y876046D02*
X621404Y892698D01*
X611936Y876046D02*
X621404Y885514D01*
X626032Y875404D02*
X629676Y871760D01*
X625720Y874625D02*
X628839Y871506D01*
X621404Y876046D02*
X622300D01*
X533840Y981964D02*
X621404Y894400D01*
X526656Y981964D02*
X621404Y887216D01*
X519472Y981964D02*
X621404Y880032D01*
X490735Y981964D02*
X596653Y876046D01*
X497919Y981964D02*
X603837Y876046D01*
X512288Y981964D02*
X618206Y876046D01*
X539625D02*
X621404D01*
X463753Y849995D02*
X595722Y981964D01*
X505103D02*
X611021Y876046D01*
X620301Y866394D02*
X622014Y864681D01*
X606305Y866394D02*
X622053Y850646D01*
X615273D02*
X622027Y857400D01*
X613489Y866394D02*
X621817Y858066D01*
X608089Y850646D02*
X621958Y864515D01*
X626970Y847975D02*
X629424Y850429D01*
X622455Y850643D02*
X624850Y853039D01*
X586536Y850646D02*
X602284Y866394D01*
X539625D02*
X620301D01*
X539625Y850646D02*
X622300D01*
X579352D02*
X595100Y866394D01*
X584752D02*
X600500Y850646D01*
X599121Y866394D02*
X614869Y850646D01*
X600904D02*
X616652Y866394D01*
X591937D02*
X607685Y850646D01*
X593720D02*
X609468Y866394D01*
X636081Y846106D02*
X653796Y863821D01*
X632887Y846708D02*
X637298Y851119D01*
X638866Y826649D02*
X640445Y825070D01*
X629466Y850417D02*
X633191Y846692D01*
X636081Y820706D02*
X649360Y833985D01*
X635736Y820819D02*
X671465Y856549D01*
X633661Y824669D02*
X636853Y821478D01*
X628638Y820906D02*
X632337Y824605D01*
X625720Y823825D02*
X628839Y820706D01*
X625720Y849225D02*
X628839Y846106D01*
X624981Y824433D02*
X626744Y826196D01*
X618610Y825246D02*
X623115Y829752D01*
X539625Y825246D02*
X622300D01*
X610152Y840994D02*
X630088Y821059D01*
X464534Y822039D02*
X624459Y981964D01*
X636720Y800058D02*
X638777Y798001D01*
X632385Y795916D02*
X636398Y799929D01*
X626715Y797430D02*
X629033Y799749D01*
X630145Y799449D02*
X633754Y795840D01*
X635340Y770134D02*
X665560Y800354D01*
X639967Y767577D02*
X672718Y800328D01*
X636081Y795306D02*
X649360Y808585D01*
X621946Y799846D02*
X624593Y802492D01*
X606816Y815594D02*
X622571Y799838D01*
X539625Y799846D02*
X622300D01*
X610663Y790194D02*
X630514Y770343D01*
X625720Y798425D02*
X628839Y795306D01*
X617337Y840994D02*
X621469Y836861D01*
X602968Y840994D02*
X618716Y825246D01*
X620301Y840994D02*
X622014Y839281D01*
X595784Y840994D02*
X611532Y825246D01*
X597057D02*
X612805Y840994D01*
X611425Y825246D02*
X621412Y835233D01*
X604241Y825246D02*
X619989Y840994D01*
X599631Y815594D02*
X615379Y799846D01*
X592447Y815594D02*
X608195Y799846D01*
X593210D02*
X608958Y815594D01*
X462251Y826939D02*
X617275Y981964D01*
X457984Y829858D02*
X610091Y981964D01*
X539625Y840994D02*
X620301D01*
X464378Y843435D02*
X602907Y981964D01*
X581416Y840994D02*
X597164Y825246D01*
X588600Y840994D02*
X604348Y825246D01*
X589873D02*
X605621Y840994D01*
X582689Y825246D02*
X598437Y840994D01*
X586025Y799846D02*
X601773Y815594D01*
X620301D02*
X622014Y813881D01*
X607578Y799846D02*
X621814Y814081D01*
X614762Y799846D02*
X621900Y806984D01*
X600394Y799846D02*
X616142Y815594D01*
X614000D02*
X621649Y807945D01*
X617847Y790194D02*
X621528Y786513D01*
X620301Y790194D02*
X622014Y788481D01*
X603479Y790194D02*
X619227Y774446D01*
X603731D02*
X619479Y790194D01*
X585263Y815594D02*
X601011Y799846D01*
X539625Y815594D02*
X620301D01*
X539625Y790194D02*
X620301D01*
X581927D02*
X597676Y774446D01*
X582178D02*
X597926Y790194D01*
X596295D02*
X612043Y774446D01*
X596547D02*
X612295Y790194D01*
X589110D02*
X604858Y774446D01*
X589362D02*
X605110Y790194D01*
X692984Y762762D02*
X768604D01*
X690026Y738610D02*
X700970Y749554D01*
X685120Y744474D02*
X691438Y738156D01*
X692436Y712283D02*
X729707Y749554D01*
X686455Y713486D02*
X722523Y749554D01*
X689607Y687902D02*
X751260Y749554D01*
X683118Y738886D02*
X688763Y744531D01*
X681355Y744474D02*
X687705D01*
X681355Y738886D02*
X687705D01*
X676854Y745556D02*
X683524Y738886D01*
X643236Y706188D02*
X681522Y744474D01*
X681783Y719074D02*
X687371Y713486D01*
X681355Y688086D02*
X687705D01*
X685630Y693674D02*
X692403Y686901D01*
X682608Y688086D02*
X688208Y693687D01*
X682608Y688086D02*
X688208Y693687D01*
X681355Y719074D02*
X687705D01*
X678982Y713198D02*
X684859Y719074D01*
X681355Y713486D02*
X687705D01*
X677780Y694342D02*
X684035Y688086D01*
X681355Y693674D02*
X687705D01*
X663345Y772296D02*
X671458Y764183D01*
X661924Y775716D02*
Y783844D01*
X673920Y762858D02*
X674891Y761887D01*
X674878Y762762D02*
X676076D01*
X643462Y735151D02*
X672014Y763703D01*
X643440Y786154D02*
X671989Y757605D01*
X642397Y780013D02*
X672531Y749879D01*
X641521Y740395D02*
X668384Y767257D01*
X642840Y763266D02*
X661924Y782350D01*
X643053Y756295D02*
X661952Y775194D01*
X641105Y752568D02*
X680249Y713424D01*
X642698Y712834D02*
X675945Y746082D01*
X643343Y757514D02*
X671458Y729399D01*
X639697Y717018D02*
X672540Y749861D01*
X667007Y708406D02*
X678193Y719592D01*
X659822Y708406D02*
X673887Y722471D01*
X652780Y708406D02*
X672704D01*
X652636Y708404D02*
X671584Y727352D01*
X658999Y698754D02*
X673516Y684237D01*
X666183Y698754D02*
X677593Y687344D01*
X654779Y698754D02*
X672704D01*
X653297Y697272D02*
X671490Y679079D01*
X643353Y735951D02*
X670898Y708406D01*
X642560Y729562D02*
X663716Y708406D01*
X639446Y725491D02*
X656531Y708406D01*
X643413Y707156D02*
X646472Y704097D01*
X642906Y686881D02*
X654779Y698754D01*
X643407Y684807D02*
X657355Y698754D01*
X641328Y702057D02*
X642880Y700505D01*
X691753Y611021D02*
X842986Y762254D01*
X688719Y586434D02*
X851017Y748732D01*
X691534Y745244D02*
X852691Y584087D01*
X692100Y661658D02*
X792697Y762254D01*
X689172Y637177D02*
X814249Y762254D01*
X693542Y533784D02*
X854562Y694803D01*
X691395Y560373D02*
X852587Y721565D01*
X691888Y694601D02*
X852970Y533518D01*
X688895Y719146D02*
X851098Y556943D01*
X688245Y535671D02*
X850813Y698238D01*
X685944Y662686D02*
X693189Y669930D01*
X682295Y668274D02*
X687885Y662684D01*
X681355Y668274D02*
X687705D01*
X681355Y662686D02*
X687705D01*
X681355Y642874D02*
X687705D01*
X686142D02*
X693932Y635084D01*
X685434Y611886D02*
X692003Y618455D01*
X684923Y561086D02*
X691118Y567281D01*
X682805Y617474D02*
X688419Y611860D01*
X681355Y566674D02*
X687705D01*
X681355Y637286D02*
X687705D01*
X681355Y586486D02*
X687705D01*
X683316Y566674D02*
X688987Y561003D01*
X681355Y535686D02*
X687705D01*
X681355Y561086D02*
X687705D01*
X681355Y541274D02*
X687705D01*
X682097Y637286D02*
X687685Y642874D01*
X681355Y617474D02*
X687705D01*
X681355Y611886D02*
X687705D01*
X678266Y662192D02*
X684348Y668274D01*
X678554Y643278D02*
X684546Y637286D01*
X677446Y611082D02*
X683838Y617474D01*
X649705Y693680D02*
X680719Y662666D01*
X646113Y690088D02*
X675460Y660741D01*
X643222Y685795D02*
X672275Y656741D01*
X642712Y679120D02*
X671853Y649979D01*
X639723Y674924D02*
X677961Y636687D01*
X640585Y581406D02*
X677454Y618274D01*
X647770Y581406D02*
X672253Y605889D01*
X681587Y586486D02*
X687175Y592074D01*
X679240Y592302D02*
X685057Y586486D01*
X681355Y592074D02*
X687705D01*
X679867Y541386D02*
X685567Y535686D01*
X681072Y535682D02*
X686664Y541274D01*
X676426Y559772D02*
X683327Y566674D01*
X669322Y581406D02*
X680074Y592157D01*
X663867Y571754D02*
X676066Y559556D01*
X671052Y571754D02*
X681720Y561086D01*
X654954Y581406D02*
X672072Y598524D01*
X662138Y581406D02*
X675062Y594330D01*
X642315Y571754D02*
X678735Y535333D01*
X668812Y530606D02*
X679631Y541425D01*
X649499Y571754D02*
X671562Y549692D01*
X656683Y571754D02*
X672608Y555829D01*
X628383Y770362D02*
X631843Y773821D01*
X625720Y773025D02*
X628839Y769906D01*
X624664Y773827D02*
X626430Y775593D01*
X626460Y746885D02*
X628654Y749080D01*
X639160Y776065D02*
X677236Y737989D01*
X634113Y773928D02*
X673298Y734743D01*
X637075Y749413D02*
X675170Y711318D01*
X637725Y743782D02*
X664792Y770849D01*
X634931Y719436D02*
X671600Y756105D01*
X621436Y749046D02*
X624343Y751953D01*
X618099Y774446D02*
X622922Y779269D01*
X539625Y749046D02*
X622300D01*
X607327Y764794D02*
X623151Y748970D01*
X631858Y745100D02*
X635625Y748867D01*
X630770Y748534D02*
X634351Y744953D01*
X625720Y747625D02*
X628839Y744506D01*
X624327Y723200D02*
X626125Y724999D01*
X634550Y723203D02*
X650136Y707617D01*
X628128Y719817D02*
X631369Y723058D01*
X625720Y722225D02*
X628839Y719106D01*
X617589Y723646D02*
X622738Y728795D01*
X539625Y723646D02*
X622300D01*
X611175Y739394D02*
X630956Y719613D01*
X620925Y698246D02*
X624102Y701423D01*
X607838Y713994D02*
X623838Y697995D01*
X540866Y698246D02*
X622300D01*
X614510Y764794D02*
X621534Y757770D01*
X610915Y774446D02*
X621404Y784935D01*
X620301Y764794D02*
X622014Y763081D01*
X592959Y764794D02*
X608707Y749046D01*
X599883D02*
X615631Y764794D01*
X607068Y749046D02*
X621558Y763537D01*
X600143Y764794D02*
X615891Y749046D01*
X614252D02*
X621786Y756580D01*
X596036Y723646D02*
X611784Y739394D01*
X596806D02*
X612554Y723646D01*
X592699Y749046D02*
X608447Y764794D01*
X539625Y774446D02*
X622300D01*
X539625Y764794D02*
X620301D01*
X585515Y749046D02*
X601263Y764794D01*
X585775D02*
X601523Y749046D01*
X588852Y723646D02*
X604600Y739394D01*
X589622D02*
X605370Y723646D01*
X581668D02*
X597416Y739394D01*
X582438D02*
X598186Y723646D01*
X620301Y739394D02*
X622014Y737681D01*
X618359Y739394D02*
X621603Y736150D01*
X610404Y723646D02*
X621420Y734662D01*
X603220Y723646D02*
X618968Y739394D01*
X603991D02*
X619739Y723646D01*
X620301Y713994D02*
X622014Y712281D01*
X613741Y698246D02*
X621684Y706189D01*
X615022Y713994D02*
X621459Y707557D01*
X606557Y698246D02*
X621303Y712992D01*
X586285Y713994D02*
X602033Y698246D01*
X539625Y739394D02*
X620301D01*
X539625Y713994D02*
X620301D01*
X579101D02*
X594849Y698246D01*
X585004D02*
X600752Y713994D01*
X599373Y698246D02*
X615121Y713994D01*
X600654D02*
X616402Y698246D01*
X592189D02*
X607937Y713994D01*
X593470D02*
X609218Y698246D01*
X604501Y688594D02*
X681210Y611885D01*
X597317Y688594D02*
X675758Y610153D01*
X625970Y674309D02*
X671542Y628737D01*
X636081Y693706D02*
X649360Y706985D01*
X590133Y688594D02*
X672436Y606291D01*
X582948Y688594D02*
X671677Y599865D01*
X575764Y688594D02*
X678342Y586017D01*
X575928Y581406D02*
X671520Y676998D01*
X575928Y581406D02*
X671520Y676998D01*
X554212Y688594D02*
X661400Y581406D01*
X547191D02*
X664539Y698754D01*
X568580Y688594D02*
X673980Y583194D01*
X547028Y688594D02*
X654215Y581406D01*
X540866Y687571D02*
X647031Y581406D01*
X561559D02*
X675641Y695488D01*
X568743Y581406D02*
X681017Y693680D01*
X554375Y581406D02*
X671723Y698754D01*
X561396Y688594D02*
X668584Y581406D01*
X634971Y672493D02*
X673744Y633720D01*
X619033Y581406D02*
X680535Y642908D01*
X635131Y571754D02*
X674226Y532658D01*
X626217Y581406D02*
X671475Y626664D01*
X633401Y581406D02*
X673431Y621436D01*
X627946Y571754D02*
X669094Y530606D01*
X632891D02*
X673217Y570932D01*
X620762Y571754D02*
X661910Y530606D01*
X625707D02*
X666855Y571754D01*
X590296Y581406D02*
X677817Y668927D01*
X583112Y581406D02*
X673654Y671949D01*
X421640Y581406D02*
X672704D01*
X597480D02*
X671943Y655869D01*
X604664Y581406D02*
X672216Y648958D01*
X611849Y581406D02*
X675347Y644904D01*
X399255Y530606D02*
X672704D01*
X606394Y571754D02*
X647542Y530606D01*
X423639Y571754D02*
X672704D01*
X637421Y698780D02*
X639288Y696913D01*
X626204Y696341D02*
X628286Y698422D01*
X631357Y697659D02*
X634995Y694022D01*
X631303Y694255D02*
X634932Y697884D01*
X625720Y696825D02*
X628839Y693706D01*
X618870Y688594D02*
X621693Y685771D01*
X462134Y737567D02*
X618294Y581406D01*
X457798Y734719D02*
X611110Y581406D01*
X540866Y688594D02*
X620301D01*
X464452Y720880D02*
X603926Y581406D01*
X463673Y714475D02*
X596742Y581406D01*
X504086D02*
X611273Y688594D01*
X511270Y581406D02*
X618458Y688594D01*
X489717Y581406D02*
X596905Y688594D01*
X496901Y581406D02*
X604089Y688594D01*
X620301D02*
X622014Y686881D01*
X611685Y688594D02*
X623509Y676770D01*
X575417Y530606D02*
X616565Y571754D01*
X568233Y530606D02*
X609381Y571754D01*
X570473D02*
X611621Y530606D01*
X592025Y571754D02*
X633173Y530606D01*
X596970D02*
X638118Y571754D01*
X577657D02*
X618805Y530606D01*
X589785D02*
X630933Y571754D01*
X530655Y683414D02*
X632663Y581406D01*
X523471Y683414D02*
X625479Y581406D01*
X532822D02*
X625829Y674413D01*
X518454Y581406D02*
X621465Y684417D01*
X525638Y581406D02*
X622563Y678331D01*
X537839Y683414D02*
X639847Y581406D01*
X540006D02*
X630913Y672313D01*
X561049Y530606D02*
X602197Y571754D01*
X563288D02*
X604436Y530606D01*
X476367Y981964D02*
X582285Y876046D01*
X469182Y981964D02*
X575100Y876046D01*
X483551Y981964D02*
X589469Y876046D01*
X464597Y872392D02*
X574170Y981964D01*
X533801Y855384D02*
X544810Y866394D01*
X548831D02*
X564579Y850646D01*
X543431D02*
X559179Y866394D01*
X550615Y850646D02*
X566363Y866394D01*
X538210Y852609D02*
X551995Y866394D01*
X541647D02*
X557395Y850646D01*
X458356Y880518D02*
X559801Y981964D01*
X447630D02*
X553548Y876046D01*
X462482Y877460D02*
X566986Y981964D01*
X440446D02*
X546364Y876046D01*
X451297Y880644D02*
X552617Y981964D01*
X455201Y855811D02*
X581354Y981964D01*
X460511Y853937D02*
X588538Y981964D01*
X454814D02*
X560732Y876046D01*
X461998Y981964D02*
X567916Y876046D01*
X564983Y850646D02*
X580731Y866394D01*
X563200D02*
X578948Y850646D01*
X570384Y866394D02*
X586132Y850646D01*
X556016Y866394D02*
X571764Y850646D01*
X557799D02*
X573547Y866394D01*
X577568D02*
X593316Y850646D01*
X572168D02*
X587915Y866394D01*
X568320Y825246D02*
X584068Y840994D01*
X559863D02*
X575611Y825246D01*
X561136D02*
X576884Y840994D01*
X539610Y825273D02*
X555331Y840994D01*
X537297Y863560D02*
X550211Y850646D01*
X539125Y840180D02*
X554058Y825246D01*
X536098Y828945D02*
X548147Y840994D01*
X535279Y836843D02*
X546875Y825246D01*
X552679Y840994D02*
X568427Y825246D01*
X553952D02*
X569700Y840994D01*
X545494D02*
X561242Y825246D01*
X546768D02*
X562515Y840994D01*
X426077Y981964D02*
X527424Y880617D01*
X418893Y981964D02*
X523200Y877657D01*
X433261Y981964D02*
X534813Y880412D01*
X411709Y981964D02*
X520965Y872708D01*
X404524Y981964D02*
X530664Y855824D01*
X397267Y848167D02*
X531064Y981964D01*
X397295Y841010D02*
X538249Y981964D01*
X394359Y852443D02*
X523880Y981964D01*
X397340D02*
X525220Y854085D01*
X354236Y981964D02*
X454980Y881221D01*
X347052Y981964D02*
X449329Y879688D01*
X389596Y854864D02*
X516696Y981964D01*
X332684D02*
X444740Y869907D01*
X339868Y981964D02*
X445856Y875976D01*
X368605Y981964D02*
X523438Y827131D01*
X375789Y981964D02*
X527805Y829948D01*
X382973Y981964D02*
X521041Y843897D01*
X390158Y981964D02*
X521883Y850239D01*
X525504Y854272D02*
X532598Y861366D01*
X532347Y861325D02*
X543027Y850646D01*
X530383Y830415D02*
X540963Y840994D01*
X528937Y836001D02*
X535837Y829101D01*
X450431Y829488D02*
X457045Y836102D01*
X574231Y840994D02*
X589979Y825246D01*
X567047Y840994D02*
X582795Y825246D01*
X575504D02*
X591252Y840994D01*
X464661Y871540D02*
X531180Y805021D01*
X578079Y815594D02*
X593827Y799846D01*
X571657D02*
X587405Y815594D01*
X578841Y799846D02*
X594589Y815594D01*
X464629Y821282D02*
X531722Y754189D01*
X570895Y815594D02*
X586642Y799846D01*
X463128Y865889D02*
X525529Y803487D01*
X460210Y803346D02*
X522534Y865670D01*
X463587Y799539D02*
X526341Y862293D01*
X459416Y862416D02*
X522056Y799776D01*
X464514Y793282D02*
X522408Y851176D01*
X464305Y843158D02*
X528198Y779265D01*
X464454Y771669D02*
X528811Y836026D01*
X461634Y838645D02*
X523685Y776594D01*
X462010Y776410D02*
X524071Y838470D01*
X549343Y815594D02*
X565091Y799846D01*
X542920D02*
X558668Y815594D01*
X550104Y799846D02*
X565852Y815594D01*
X537960Y802070D02*
X551484Y815594D01*
X542159D02*
X557907Y799846D01*
X563710Y815594D02*
X579458Y799846D01*
X564473D02*
X580221Y815594D01*
X556527D02*
X572276Y799846D01*
X557289D02*
X573037Y815594D01*
X537571Y812998D02*
X550723Y799846D01*
X533403Y804697D02*
X544300Y815594D01*
X532784Y810601D02*
X543539Y799846D01*
X463320Y815407D02*
X525847Y752880D01*
X463410Y749073D02*
X526007Y811670D01*
X464601Y743079D02*
X532001Y810479D01*
X459898Y752745D02*
X522335Y815182D01*
X459742Y811801D02*
X522241Y749302D01*
X454705Y805026D02*
X520854Y871175D01*
X453347Y861301D02*
X520941Y793707D01*
X397900Y844906D02*
X445038Y797767D01*
X457601Y779184D02*
X521296Y842879D01*
X391718Y777960D02*
X450485Y836727D01*
X457003Y836092D02*
X521132Y771963D01*
X396439Y839182D02*
X446825Y788796D01*
X392879Y835558D02*
X449976Y778462D01*
X361421Y981964D02*
X521041Y822344D01*
X328664Y801116D02*
X509512Y981964D01*
X342510Y792885D02*
X384124Y834499D01*
X335848Y801116D02*
X377036Y842304D01*
X337091Y801116D02*
X377299Y841324D01*
X385274Y778700D02*
X446543Y839969D01*
X378255Y828630D02*
X452828Y754057D01*
X387259Y833994D02*
X446235Y775018D01*
X381847Y832222D02*
X444656Y769413D01*
X454184Y754215D02*
X520865Y820897D01*
X453917Y810442D02*
X520882Y743477D01*
X395722Y774780D02*
X445592Y824649D01*
X397820Y769693D02*
X445222Y817096D01*
X374663Y825038D02*
X448007Y751694D01*
X356702Y807077D02*
X385113Y778666D01*
X353110Y803485D02*
X380347Y776248D01*
X349518Y799893D02*
X377436Y771975D01*
X345926Y796301D02*
X377399Y764828D01*
X363886Y814261D02*
X450315Y727833D01*
X360294Y810669D02*
X446439Y724524D01*
X371071Y821446D02*
X445159Y747357D01*
X367478Y817853D02*
X445843Y739489D01*
X246473Y981964D02*
X378358Y850079D01*
X239289Y981964D02*
X376794Y844459D01*
X309248Y831989D02*
X459222Y981964D01*
X224921D02*
X371430Y835455D01*
X232105Y981964D02*
X375022Y839047D01*
X311073Y805078D02*
X487959Y981964D01*
X306720Y807909D02*
X480775Y981964D01*
X314295Y801116D02*
X495143Y981964D01*
X312781Y828339D02*
X466407Y981964D01*
X314636Y823009D02*
X473591Y981964D01*
X210552D02*
X364246Y828271D01*
X203368Y981964D02*
X360653Y824678D01*
X217736Y981964D02*
X367838Y831863D01*
X189000Y981964D02*
X353469Y817494D01*
X196184Y981964D02*
X357061Y821086D01*
X174631Y981964D02*
X346285Y810310D01*
X181815Y981964D02*
X349877Y813902D01*
X160263Y981964D02*
X339101Y803126D01*
X167447Y981964D02*
X342693Y806718D01*
X325500Y981964D02*
X451998Y855465D01*
X304077Y834003D02*
X452038Y981964D01*
X303947D02*
X455522Y830389D01*
X311131Y981964D02*
X444932Y848163D01*
X318315Y981964D02*
X447485Y852794D01*
X314639Y820403D02*
X333927Y801116D01*
X313732D02*
X337091D01*
X312795Y815063D02*
X326742Y801116D01*
X309269Y811405D02*
X319558Y801116D01*
X289578Y981964D02*
X446041Y825502D01*
X260842Y981964D02*
X387706Y855100D01*
X296763Y981964D02*
X449647Y829080D01*
X253657Y981964D02*
X381982Y853639D01*
X268026Y981964D02*
X447741Y802249D01*
X275210Y981964D02*
X452405Y804769D01*
X282394Y981964D02*
X444682Y819677D01*
X4826Y893962D02*
X92828Y981964D01*
X4826Y901147D02*
X85643Y981964D01*
X4826Y886778D02*
X100012Y981964D01*
X4826Y915515D02*
X71275Y981964D01*
X4826Y908331D02*
X78459Y981964D01*
X4826Y858041D02*
X128749Y981964D01*
X4826Y865226D02*
X121564Y981964D01*
X4826Y850857D02*
X135933Y981964D01*
X4826Y879594D02*
X107196Y981964D01*
X4826Y872410D02*
X114380Y981964D01*
X4826Y958620D02*
X28170Y981964D01*
X4826Y965805D02*
X20985Y981964D01*
X4826Y951436D02*
X35354Y981964D01*
X4826Y980173D02*
X6617Y981964D01*
X4826Y972989D02*
X13801Y981964D01*
X4826Y929884D02*
X56906Y981964D01*
X4826Y922699D02*
X64091Y981964D01*
X4826Y944252D02*
X42538Y981964D01*
X4826Y937068D02*
X49722Y981964D01*
X153078D02*
X300973Y834069D01*
X145894Y981964D02*
X295633Y832225D01*
X131526Y981964D02*
X289952Y823538D01*
X138710Y981964D02*
X291975Y828699D01*
X304108Y809382D02*
X305077Y808413D01*
X300189Y808562D02*
X300941Y809314D01*
X4826Y822120D02*
X164670Y981964D01*
X4826Y829305D02*
X157485Y981964D01*
X4826Y814936D02*
X171854Y981964D01*
X4826Y843673D02*
X143117Y981964D01*
X4826Y836489D02*
X150301Y981964D01*
X117157D02*
X293750Y805372D01*
X124342Y981964D02*
X298238Y808068D01*
X4826Y807752D02*
X179038Y981964D01*
X109973D02*
X290798Y801140D01*
X88421Y981964D02*
X383190Y687195D01*
X81236Y981964D02*
X379598Y683603D01*
X321480Y801116D02*
X502328Y981964D01*
X66868D02*
X372413Y676419D01*
X74052Y981964D02*
X376006Y680011D01*
X52499Y981964D02*
X365229Y669234D01*
X45315Y981964D02*
X361637Y665642D01*
X59684Y981964D02*
X368821Y672826D01*
X30947Y981964D02*
X354453Y658458D01*
X38131Y981964D02*
X358045Y662050D01*
X23763Y981964D02*
X350861Y654866D01*
X4826Y635331D02*
X351459Y981964D01*
X4826Y628147D02*
X358643Y981964D01*
X4826Y642515D02*
X344275Y981964D01*
X16579D02*
X347269Y651274D01*
X4826Y606594D02*
X380196Y981964D01*
X4826Y541936D02*
X444854Y981964D01*
X4826Y620962D02*
X365828Y981964D01*
X4826Y613778D02*
X373012Y981964D01*
X311365Y676054D02*
X448140Y812830D01*
X139074Y561237D02*
X445362Y867524D01*
X315044Y672549D02*
X453041Y810546D01*
X95605Y981964D02*
X385817Y691752D01*
X132004Y561351D02*
X445236Y874583D01*
X143420Y558398D02*
X448420Y863398D01*
X146014Y553809D02*
X453489Y861283D01*
X4826Y914690D02*
X379222Y540294D01*
X146202Y546812D02*
X444669Y845279D01*
X4826Y577857D02*
X408933Y981964D01*
X4826Y585041D02*
X401749Y981964D01*
X4826Y570673D02*
X416117Y981964D01*
X4826Y599410D02*
X387380Y981964D01*
X4826Y592226D02*
X394564Y981964D01*
X4826Y556305D02*
X430485Y981964D01*
X4826Y549120D02*
X437670Y981964D01*
X4826Y563489D02*
X423301Y981964D01*
X4826Y921874D02*
X379222Y547478D01*
X4826Y714357D02*
X272433Y981964D01*
X4826Y721541D02*
X265249Y981964D01*
X102789D02*
X289897Y794856D01*
X4826Y735910D02*
X250880Y981964D01*
X4826Y728726D02*
X258064Y981964D01*
X4826Y649699D02*
X337091Y981964D01*
X4826Y656883D02*
X329907Y981964D01*
X9394D02*
X343677Y647682D01*
X4826Y707173D02*
X279617Y981964D01*
X4826Y699989D02*
X286801Y981964D01*
X4826Y779015D02*
X207775Y981964D01*
X4826Y786199D02*
X200591Y981964D01*
X4826Y771831D02*
X214959Y981964D01*
X4826Y800568D02*
X186222Y981964D01*
X4826Y793383D02*
X193407Y981964D01*
X4826Y750278D02*
X236512Y981964D01*
X4826Y743094D02*
X243696Y981964D01*
X4826Y764647D02*
X222143Y981964D01*
X4826Y757462D02*
X229328Y981964D01*
X4826Y936243D02*
X294303Y646766D01*
X4826Y943427D02*
X297849Y650404D01*
X4826Y950611D02*
X292649Y662789D01*
X4826Y929059D02*
X292430Y641454D01*
X4826Y835664D02*
X303592Y536897D01*
X4826Y828480D02*
X298227Y535079D01*
X4826Y821295D02*
X294551Y531571D01*
X4826Y534752D02*
X289947Y819873D01*
X4826Y678436D02*
X308354Y981964D01*
X4826Y685620D02*
X301170Y981964D01*
X4826Y979348D02*
X306344Y677830D01*
X4826Y692805D02*
X293985Y981964D01*
X4826Y972164D02*
X300019Y676971D01*
X4826Y671252D02*
X315538Y981964D01*
X4826Y664068D02*
X322722Y981964D01*
X4826Y964980D02*
X295765Y674040D01*
X4826Y957795D02*
X293047Y669575D01*
X560625Y774446D02*
X576373Y790194D01*
X560375D02*
X576123Y774446D01*
X567559Y790194D02*
X583307Y774446D01*
X553191Y790194D02*
X568939Y774446D01*
X553441D02*
X569189Y790194D01*
X574994Y774446D02*
X590742Y790194D01*
X574743D02*
X590491Y774446D01*
X578591Y764794D02*
X594339Y749046D01*
X567810Y774446D02*
X583558Y790194D01*
X556778Y749046D02*
X572526Y764794D01*
X546006Y790194D02*
X561754Y774446D01*
X539423Y774796D02*
X554821Y790194D01*
X546257Y774446D02*
X562005Y790194D01*
X539328Y789689D02*
X554570Y774446D01*
X537701Y751522D02*
X550973Y764794D01*
X549594Y749046D02*
X565342Y764794D01*
X549854D02*
X565602Y749046D01*
X542410D02*
X558158Y764794D01*
X542670D02*
X558418Y749046D01*
X571406Y764794D02*
X587154Y749046D01*
X571147D02*
X586894Y764794D01*
X578331Y749046D02*
X594079Y764794D01*
X563962Y749046D02*
X579710Y764794D01*
X564222D02*
X579970Y749046D01*
X574483Y723646D02*
X590231Y739394D01*
X568070D02*
X583818Y723646D01*
X575254Y739394D02*
X591002Y723646D01*
X560885Y739394D02*
X576633Y723646D01*
X567299D02*
X583047Y739394D01*
X557038Y764794D02*
X572786Y749046D01*
X545746Y723646D02*
X561494Y739394D01*
X539520Y739207D02*
X555081Y723646D01*
X537834Y762445D02*
X551233Y749046D01*
X539226Y724309D02*
X554310Y739394D01*
X553701D02*
X569449Y723646D01*
X560115D02*
X575863Y739394D01*
X546517D02*
X562265Y723646D01*
X552931D02*
X568679Y739394D01*
X535777Y778335D02*
X547637Y790194D01*
X529831Y779573D02*
X540452Y790194D01*
X535616Y786216D02*
X547386Y774446D01*
X529547Y785100D02*
X540202Y774446D01*
X464409Y792765D02*
X528605Y728569D01*
X461889Y788101D02*
X523941Y726049D01*
X464358Y721284D02*
X528396Y785322D01*
X461760Y725870D02*
X523810Y787920D01*
X457407Y785398D02*
X521239Y721567D01*
X448437Y787185D02*
X456100Y779522D01*
X449304Y778072D02*
X456398Y785166D01*
X457203Y728497D02*
X521183Y792477D01*
X533203Y759892D02*
X544049Y749046D01*
X532992Y753996D02*
X543789Y764794D01*
X539119Y738571D02*
X539942Y739394D01*
X529242Y728694D02*
X536509Y735961D01*
X535446Y727713D02*
X547126Y739394D01*
X535942Y735601D02*
X547896Y723646D01*
X530117Y734242D02*
X540712Y723646D01*
X449929Y735403D02*
X456720Y728612D01*
X556268Y698246D02*
X572016Y713994D01*
X550364D02*
X566112Y698246D01*
X557548Y713994D02*
X573297Y698246D01*
X543180Y713994D02*
X558928Y698246D01*
X549083D02*
X564831Y713994D01*
X571917D02*
X587665Y698246D01*
X570636D02*
X586384Y713994D01*
X577820Y698246D02*
X593568Y713994D01*
X563452Y698246D02*
X579200Y713994D01*
X564733D02*
X580481Y698246D01*
X539895Y703426D02*
X550463Y713994D01*
X538089Y711901D02*
X551744Y698246D01*
X540866Y701940D02*
X544560Y698246D01*
X532711Y703426D02*
X543279Y713994D01*
X540866Y698246D02*
Y703426D01*
X460364Y710599D02*
X589557Y581406D01*
X454961Y708819D02*
X582373Y581406D01*
X541899Y698246D02*
X557647Y713994D01*
X464568Y692027D02*
X575189Y581406D01*
X503575Y530606D02*
X544723Y571754D01*
X482533Y581406D02*
X589721Y688594D01*
X525128Y530606D02*
X566276Y571754D01*
X540866Y683414D02*
Y688594D01*
X520854Y683414D02*
X540866D01*
X532312Y530606D02*
X573460Y571754D01*
X534552D02*
X575700Y530606D01*
X525128D02*
X566276Y571754D01*
X527367D02*
X568515Y530606D01*
X453796Y581406D02*
X560984Y688594D01*
X446612Y581406D02*
X553800Y688594D01*
X458175Y684052D02*
X560821Y581406D01*
X439428D02*
X546616Y688594D01*
X450892Y684151D02*
X553637Y581406D01*
X468164D02*
X575352Y688594D01*
X475349Y581406D02*
X582537Y688594D01*
X460980Y581406D02*
X568168Y688594D01*
X462369Y687041D02*
X568005Y581406D01*
X524636Y710985D02*
X532196Y703426D01*
X520854D02*
X540866D01*
X464562Y771059D02*
X523025Y712597D01*
X463502Y764936D02*
X525011Y703426D01*
X533607Y709199D02*
X539380Y703426D01*
X464649Y692838D02*
X531442Y759631D01*
X525527Y703426D02*
X530915Y708814D01*
X464497Y742388D02*
X520854Y686031D01*
Y683414D02*
Y703426D01*
X459577Y702134D02*
X522146Y764703D01*
X453631Y703373D02*
X520907Y770649D01*
X463223Y698596D02*
X525684Y761057D01*
X454453Y759616D02*
X520854Y693215D01*
X460058Y761195D02*
X520854Y700399D01*
X539380Y703426D02*
X540866Y701940D01*
X482022Y530606D02*
X523170Y571754D01*
X484262D02*
X525410Y530606D01*
X467654D02*
X508802Y571754D01*
X474838Y530606D02*
X515986Y571754D01*
X496391Y530606D02*
X537539Y571754D01*
X498631D02*
X539779Y530606D01*
X489207D02*
X530354Y571754D01*
X491446D02*
X532594Y530606D01*
X425059Y581406D02*
X527067Y683414D01*
X432243Y581406D02*
X534251Y683414D01*
X433973Y571754D02*
X475121Y530606D01*
X424549D02*
X465697Y571754D01*
X431733Y530606D02*
X472881Y571754D01*
X396749Y703964D02*
X452611Y759826D01*
X395248Y761347D02*
X453267Y703328D01*
X402141Y702172D02*
X444665Y744697D01*
X397666Y766113D02*
X444659Y719121D01*
X336394Y791464D02*
X546452Y581406D01*
X330507Y644906D02*
X447870Y762270D01*
X390975Y758436D02*
X448282Y701129D01*
X342330Y792713D02*
X445391Y689652D01*
X383828Y758399D02*
X445292Y696935D01*
X314284Y657420D02*
X446334Y789470D01*
X313258Y649210D02*
X450141Y786093D01*
X316232Y645000D02*
X446208Y774976D01*
X317095Y667415D02*
X444654Y794975D01*
X311342Y787780D02*
X395197Y703924D01*
X322026Y791464D02*
X532084Y581406D01*
X329210Y791464D02*
X539268Y581406D01*
X314842Y791464D02*
X524900Y581406D01*
X323322Y644906D02*
X445096Y766680D01*
X406748Y692410D02*
X449807Y735470D01*
X403692Y624697D02*
X521084Y742088D01*
X399172Y627361D02*
X455242Y683431D01*
X405549Y698396D02*
X446135Y738982D01*
X406370Y620190D02*
X523558Y737379D01*
X405480Y612117D02*
X527996Y734633D01*
X398758Y606969D02*
X424321Y581406D01*
X391024Y626397D02*
X449484Y684857D01*
X346320Y636675D02*
X393014Y683369D01*
X368462Y658817D02*
X400326Y626953D01*
X388874Y588326D02*
X520986Y720438D01*
X388874Y595510D02*
X401343Y607980D01*
X388874Y603029D02*
X393014Y607169D01*
X388874Y602695D02*
X393270Y607090D01*
X313732Y791464D02*
X339090D01*
X313360Y656445D02*
X324900Y644906D01*
X308895Y653727D02*
X317715Y644906D01*
X340901D02*
X386189Y690194D01*
X337691Y644906D02*
X385696Y692912D01*
X364870Y655225D02*
X392871Y627224D01*
X317150Y667024D02*
X339268Y644906D01*
X316291Y660699D02*
X332084Y644906D01*
X307110Y784828D02*
X390002Y701936D01*
X300826Y783927D02*
X386737Y698016D01*
X305995Y677868D02*
X386007Y757880D01*
X308747Y651883D02*
X312860Y655996D01*
X361278Y651633D02*
X388506Y624405D01*
X357686Y648041D02*
X385989Y619738D01*
X354094Y644449D02*
X385369Y613174D01*
X350502Y640857D02*
X381777Y609582D01*
X380643Y608448D02*
X386189Y613994D01*
X346909Y637265D02*
X379222Y604952D01*
X316272Y644906D02*
X340901D01*
X316272Y635254D02*
X342900D01*
X302109Y653328D02*
X303037Y652401D01*
X301851Y652172D02*
X302865Y653185D01*
X334552Y635254D02*
X379222Y590584D01*
X327367Y635254D02*
X379222Y583399D01*
X341736Y635254D02*
X379222Y597768D01*
X404756Y687182D02*
X510531Y581406D01*
X400836Y683917D02*
X503347Y581406D01*
X394572Y682997D02*
X496163Y581406D01*
X390015Y680370D02*
X488979Y581406D01*
X403425Y609486D02*
X431505Y581406D01*
X406744Y692377D02*
X517715Y581406D01*
X396779Y560310D02*
X520854Y684385D01*
X405973Y621306D02*
X445873Y581406D01*
X406244Y613851D02*
X438689Y581406D01*
X392194Y606349D02*
X418392Y580150D01*
X386423Y676778D02*
X481794Y581406D01*
X382831Y673186D02*
X474610Y581406D01*
X379239Y669594D02*
X467426Y581406D01*
X375646Y666001D02*
X460242Y581406D01*
X372054Y662409D02*
X453058Y581406D01*
X388874Y581142D02*
X521967Y714234D01*
X388874Y573958D02*
X525371Y710454D01*
X388874Y566773D02*
X520854Y698754D01*
X388874Y559589D02*
X520854Y691569D01*
X405021Y553136D02*
X423639Y571754D01*
X398196Y559961D02*
X418220Y579985D01*
X405154Y547132D02*
X429776Y571754D01*
X397533Y532328D02*
X436960Y571754D01*
X390349Y539512D02*
X390976Y540139D01*
X393941Y535920D02*
X397747Y539726D01*
X388874Y595300D02*
X411204Y572970D01*
X388874Y602484D02*
X414797Y576562D01*
X388874Y588116D02*
X407612Y569377D01*
X388874Y580932D02*
X404020Y565785D01*
X388874Y573747D02*
X400428Y562193D01*
X388874Y558528D02*
Y603029D01*
Y566563D02*
X394971Y560466D01*
X315124Y633129D02*
X379222Y569031D01*
X311486Y629582D02*
X379222Y561847D01*
X306174Y627710D02*
X379222Y554663D01*
X81426Y561063D02*
X304391Y784028D01*
X320183Y635254D02*
X379222Y576215D01*
X153386Y539628D02*
X377740Y763982D01*
X149794Y543220D02*
X377000Y770426D01*
X156979Y536036D02*
X380920Y759978D01*
X81426Y553878D02*
X319012Y791464D01*
X160571Y532444D02*
X292411Y664285D01*
X67871Y561876D02*
X293472Y787477D01*
X60687Y561876D02*
X290641Y791830D01*
X75055Y561876D02*
X297836Y784657D01*
X4826Y691980D02*
X134938Y561867D01*
X4826Y634506D02*
X77456Y561876D01*
X81426Y546694D02*
X326196Y791464D01*
X4826Y684795D02*
X129459Y560163D01*
X4826Y677611D02*
X125904Y556533D01*
X4826Y670427D02*
X124314Y550938D01*
X379222Y538988D02*
Y605028D01*
X308273Y536462D02*
X386099Y614288D01*
X81426Y539764D02*
Y561876D01*
X300983Y536356D02*
X387063Y622436D01*
X312929Y533934D02*
X379222Y600227D01*
X4826Y620137D02*
X63088Y561876D01*
X4826Y627322D02*
X70272Y561876D01*
X59314D02*
X81426D01*
X4826Y612953D02*
X59314Y558465D01*
Y560503D02*
X60687Y561876D01*
X59314Y539764D02*
Y561876D01*
Y539764D02*
X81426D01*
X4826Y605769D02*
X59314Y551281D01*
X4826Y598585D02*
X59314Y544097D01*
X691024Y509713D02*
X852320Y671009D01*
X689343Y668410D02*
X842133Y515620D01*
X692232Y643969D02*
X820580Y515620D01*
X689772Y617692D02*
X799163Y508300D01*
X692564Y593347D02*
X788387Y497524D01*
X693242Y483194D02*
X854232Y644184D01*
X690641Y459041D02*
X852064Y620463D01*
X690185Y566989D02*
X774019Y483156D01*
X692885Y542736D02*
X763242Y472379D01*
X690583Y516301D02*
X748874Y458011D01*
X684413Y510286D02*
X690365Y516238D01*
X681355Y515874D02*
X687705D01*
X683826D02*
X689597Y510104D01*
X687750Y484886D02*
X850618Y647755D01*
X687239Y434086D02*
X850434Y597281D01*
X686653Y592074D02*
X784795Y493932D01*
X687163Y541274D02*
X759650Y468787D01*
X693196Y492136D02*
X738098Y447234D01*
X687674Y490474D02*
X734505Y443642D01*
X684337Y465074D02*
X690260Y459151D01*
X681355Y465074D02*
X687705D01*
X681355Y484886D02*
X687705D01*
X681355Y459486D02*
X687705D01*
X681355Y510286D02*
X687705D01*
X681355Y490474D02*
X687705D01*
X683902Y459486D02*
X689692Y465275D01*
X681355Y434086D02*
X687705D01*
X680993Y439681D02*
X686588Y434086D01*
X681355Y439674D02*
X687705D01*
X640075Y530606D02*
X677102Y567633D01*
X618522Y530606D02*
X659670Y571754D01*
X647259Y530606D02*
X672763Y556109D01*
X611338Y530606D02*
X652486Y571754D01*
X613578D02*
X654726Y530606D01*
X661628D02*
X674787Y543765D01*
X635641Y520954D02*
X674482Y482113D01*
X654443Y530606D02*
X671939Y548102D01*
X657194Y520954D02*
X672790Y505357D01*
X556104Y571754D02*
X597252Y530606D01*
X553864D02*
X595012Y571754D01*
X582601Y530606D02*
X623749Y571754D01*
X546680Y530606D02*
X587828Y571754D01*
X548920D02*
X590068Y530606D01*
X604154D02*
X645302Y571754D01*
X606904Y520954D02*
X672983Y454875D01*
X584841Y571754D02*
X625989Y530606D01*
X599210Y571754D02*
X640358Y530606D01*
X680531Y484852D02*
X686153Y490474D01*
X680448Y490516D02*
X686077Y484886D01*
X671562Y520954D02*
X682230Y510286D01*
X679956Y433987D02*
X685643Y439674D01*
X664378Y520954D02*
X676384Y508948D01*
X642825Y520954D02*
X679143Y484636D01*
X650010Y520954D02*
X671491Y499473D01*
X628457Y520954D02*
X671804Y477607D01*
X621273Y520954D02*
X682741Y459486D01*
X599720Y520954D02*
X671456Y449218D01*
X614089Y520954D02*
X676712Y458330D01*
X692932Y432595D02*
X853912Y593575D01*
X672796Y390906D02*
X851816Y569926D01*
X679980Y390906D02*
X856199Y567125D01*
X617501Y429006D02*
X679205Y490710D01*
X624686Y429006D02*
X671483Y475804D01*
X618946Y286766D02*
X838148Y505968D01*
X611761Y286766D02*
X830963Y505968D01*
X626130Y286766D02*
X845332Y505968D01*
X681769Y390906D02*
X805062Y514199D01*
X687188Y382675D02*
X810481Y505968D01*
X592536Y520954D02*
X679567Y433923D01*
X588764Y429006D02*
X676762Y517003D01*
X595949Y429006D02*
X682817Y515874D01*
X585352Y520954D02*
X674746Y431559D01*
X581580Y429006D02*
X673013Y520438D01*
X597393Y286766D02*
X816595Y505968D01*
X604577Y286766D02*
X823779Y505968D01*
X603133Y429006D02*
X671820Y497693D01*
X610317Y429006D02*
X674520Y493209D01*
X693498Y441544D02*
X712953Y422090D01*
X690968Y465627D02*
X723729Y432866D01*
X667791Y429006D02*
X678795Y440010D01*
X688173Y439685D02*
X709361Y418498D01*
X665399Y419354D02*
X687808Y396945D01*
X646238Y429006D02*
X682306Y465074D01*
X639054Y429006D02*
X676432Y466384D01*
X660607Y429006D02*
X674264Y442663D01*
X631870Y429006D02*
X672818Y469955D01*
X653422Y429006D02*
X671715Y447299D01*
X651031Y419354D02*
X679479Y390906D01*
X658215Y419354D02*
X684216Y393353D01*
X643846Y419354D02*
X672294Y390906D01*
X644059D02*
X672507Y419354D01*
X578167Y520954D02*
X670115Y429006D01*
X574396D02*
X666344Y520954D01*
X586586Y390906D02*
X615033Y419354D01*
X579401Y390906D02*
X607849Y419354D01*
X586373D02*
X614821Y390906D01*
X600954D02*
X629402Y419354D01*
X600741D02*
X629189Y390906D01*
X607925Y419354D02*
X636373Y390906D01*
X593557Y419354D02*
X622005Y390906D01*
X593770D02*
X622218Y419354D01*
X556615Y520954D02*
X648563Y429006D01*
X552843D02*
X644791Y520954D01*
X560028Y429006D02*
X651976Y520954D01*
X545659Y429006D02*
X637607Y520954D01*
X549431D02*
X641379Y429006D01*
X567212D02*
X659160Y520954D01*
X570983D02*
X662931Y429006D01*
X563799Y520954D02*
X655747Y429006D01*
X543480Y390906D02*
X571928Y419354D01*
X622294D02*
X650742Y390906D01*
X615322D02*
X643770Y419354D01*
X622507Y390906D02*
X650955Y419354D01*
X608138Y390906D02*
X636586Y419354D01*
X615109D02*
X643558Y390906D01*
X636662Y419354D02*
X665110Y390906D01*
X636875D02*
X665323Y419354D01*
X629478D02*
X657926Y390906D01*
X629691D02*
X658139Y419354D01*
X557849Y390906D02*
X586297Y419354D01*
X557636D02*
X586084Y390906D01*
X564820Y419354D02*
X593268Y390906D01*
X550452Y419354D02*
X578900Y390906D01*
X550664D02*
X579113Y419354D01*
X572217Y390906D02*
X600665Y419354D01*
X579188D02*
X607636Y390906D01*
X565033D02*
X593481Y419354D01*
X572004D02*
X600452Y390906D01*
X505815Y571754D02*
X546963Y530606D01*
X477078Y571754D02*
X518226Y530606D01*
X510759D02*
X551907Y571754D01*
X462710D02*
X503857Y530606D01*
X469894Y571754D02*
X511042Y530606D01*
X539496D02*
X580644Y571754D01*
X520183D02*
X561331Y530606D01*
X541736Y571754D02*
X582884Y530606D01*
X512999Y571754D02*
X554147Y530606D01*
X517943D02*
X559091Y571754D01*
X448341D02*
X489489Y530606D01*
X446101D02*
X487249Y571754D01*
X453285Y530606D02*
X494434Y571754D01*
X438917Y530606D02*
X480065Y571754D01*
X441157D02*
X482305Y530606D01*
X77629Y514160D02*
X545433Y981964D01*
X460470Y530606D02*
X501618Y571754D01*
X4826Y907506D02*
X483326Y429006D01*
X455525Y571754D02*
X496673Y530606D01*
X423528Y429006D02*
X515476Y520954D01*
X423528Y429006D02*
X515476Y520954D01*
X427299D02*
X519247Y429006D01*
X416343D02*
X508291Y520954D01*
X420115D02*
X512063Y429006D01*
X437896D02*
X529844Y520954D01*
X459449Y429006D02*
X551397Y520954D01*
X430712Y429006D02*
X522660Y520954D01*
X434483D02*
X526431Y429006D01*
X398562Y520954D02*
X490510Y429006D01*
X397256Y520954D02*
X672704D01*
X264009Y429006D02*
X672704D01*
X387607D02*
X479554Y520954D01*
X394791Y429006D02*
X486739Y520954D01*
X409159Y429006D02*
X501107Y520954D01*
X412930D02*
X504879Y429006D01*
X401975D02*
X493923Y520954D01*
X405746D02*
X497694Y429006D01*
X410180Y530606D02*
X451328Y571754D01*
X402996Y530606D02*
X444144Y571754D01*
X410845Y558960D02*
X439200Y530606D01*
X407253Y555368D02*
X432015Y530606D01*
X405526Y549911D02*
X424831Y530606D01*
X426788Y571754D02*
X467937Y530606D01*
X417364D02*
X458512Y571754D01*
X421622Y569737D02*
X460752Y530606D01*
X418030Y566144D02*
X453568Y530606D01*
X414437Y562552D02*
X446384Y530606D01*
X214452Y478562D02*
X447610Y711720D01*
X207268Y485746D02*
X455801Y734279D01*
X218044Y474970D02*
X452196Y709122D01*
X210860Y482154D02*
X444983Y716277D01*
X221637Y471378D02*
X444707Y694449D01*
X4826Y893138D02*
X468957Y429006D01*
X4826Y885953D02*
X461773Y429006D01*
X4826Y842848D02*
X418668Y429006D01*
X225229Y467786D02*
X445946Y688503D01*
X403110Y480431D02*
X443633Y520954D01*
X398973Y483478D02*
X436449Y520954D01*
X405372Y475508D02*
X450818Y520954D01*
X403928Y544325D02*
X417647Y530606D01*
X400281Y540788D02*
X410463Y530606D01*
X402744Y480851D02*
X454589Y429006D01*
X405221Y471190D02*
X447405Y429006D01*
X402702Y466524D02*
X440221Y429006D01*
X398337Y463705D02*
X433036Y429006D01*
X330133D02*
X422081Y520954D01*
X322949Y429006D02*
X414897Y520954D01*
X392210Y483899D02*
X429265Y520954D01*
X317187Y523302D02*
X411484Y429006D01*
X315764D02*
X407712Y520954D01*
X373238Y429006D02*
X465186Y520954D01*
X380422Y429006D02*
X472370Y520954D01*
X366054Y429006D02*
X458002Y520954D01*
X390879Y463979D02*
X425852Y429006D01*
X491957Y520954D02*
X583905Y429006D01*
X488186D02*
X580134Y520954D01*
X495370Y429006D02*
X587318Y520954D01*
X481001Y429006D02*
X572949Y520954D01*
X484773D02*
X576721Y429006D01*
X509738D02*
X601686Y520954D01*
X506325D02*
X598273Y429006D01*
X513509Y520954D02*
X605457Y429006D01*
X499141Y520954D02*
X591089Y429006D01*
X502554D02*
X594502Y520954D01*
X456036D02*
X547984Y429006D01*
X452264D02*
X544212Y520954D01*
X463220D02*
X555168Y429006D01*
X445080D02*
X537028Y520954D01*
X448852D02*
X540800Y429006D01*
X473817D02*
X565765Y520954D01*
X477589D02*
X569537Y429006D01*
X466633D02*
X558581Y520954D01*
X470404D02*
X562352Y429006D01*
X538475D02*
X630423Y520954D01*
X535062D02*
X627010Y429006D01*
X542246Y520954D02*
X634194Y429006D01*
X531291D02*
X623239Y520954D01*
X528899Y419354D02*
X557347Y390906D01*
X536296D02*
X564744Y419354D01*
X543267D02*
X571715Y390906D01*
X529112D02*
X557560Y419354D01*
X536083D02*
X564531Y390906D01*
X527878Y520954D02*
X619826Y429006D01*
X524107D02*
X616055Y520954D01*
X262010Y419354D02*
X672704D01*
X516922Y429006D02*
X608870Y520954D01*
X520694D02*
X612642Y429006D01*
X514743Y390906D02*
X543191Y419354D01*
X521928Y390906D02*
X550376Y419354D01*
X507559Y390906D02*
X536007Y419354D01*
X514530D02*
X542979Y390906D01*
X441667Y520954D02*
X533615Y429006D01*
X421136Y419354D02*
X449584Y390906D01*
X421349D02*
X449797Y419354D01*
X413952D02*
X442400Y390906D01*
X414164D02*
X442612Y419354D01*
X442688D02*
X471136Y390906D01*
X435717D02*
X464165Y419354D01*
X442901Y390906D02*
X471349Y419354D01*
X428533Y390906D02*
X456981Y419354D01*
X435504D02*
X463952Y390906D01*
X392399Y419354D02*
X420847Y390906D01*
X4826Y900322D02*
X476142Y429006D01*
X392612Y390906D02*
X421060Y419354D01*
X385215D02*
X413663Y390906D01*
X385428D02*
X413876Y419354D01*
X406767D02*
X435215Y390906D01*
X406980D02*
X435428Y419354D01*
X399583D02*
X428031Y390906D01*
X399796D02*
X428244Y419354D01*
X486007Y390906D02*
X514455Y419354D01*
X485794D02*
X514242Y390906D01*
X492978Y419354D02*
X521426Y390906D01*
X478610Y419354D02*
X507057Y390906D01*
X478822D02*
X507270Y419354D01*
X500375Y390906D02*
X528823Y419354D01*
X507346D02*
X535794Y390906D01*
X493191D02*
X521639Y419354D01*
X500162D02*
X528610Y390906D01*
X457057Y419354D02*
X485505Y390906D01*
X450085D02*
X478534Y419354D01*
X457270Y390906D02*
X485718Y419354D01*
X385428Y390906D02*
X413876Y419354D01*
X449873D02*
X478321Y390906D01*
X471425Y419354D02*
X499873Y390906D01*
X471638D02*
X500086Y419354D01*
X464241D02*
X492689Y390906D01*
X464454D02*
X492902Y419354D01*
X691340Y414965D02*
X698584Y407721D01*
X676241Y415696D02*
X691400Y400537D01*
X684847Y414274D02*
X694992Y404129D01*
X665612Y390906D02*
X689075Y414369D01*
X681355Y414274D02*
X687705D01*
X691041Y386528D02*
X719803Y357766D01*
X687449Y382936D02*
X712619Y357766D01*
X667578Y381254D02*
X703954Y344878D01*
X658428Y390906D02*
X681796Y414274D01*
X583024Y286766D02*
X677513Y381254D01*
X660394D02*
X703954Y337694D01*
X651244Y390906D02*
X676112Y415775D01*
X581367Y381254D02*
X675855Y286766D01*
X595736Y381254D02*
X690224Y286766D01*
X602920Y381254D02*
X697408Y286766D01*
X590209D02*
X684811Y381368D01*
X588552Y381254D02*
X683040Y286766D01*
X681946Y381254D02*
X705434Y357766D01*
X653210Y381254D02*
X706319Y328144D01*
X654867Y286766D02*
X703954Y335853D01*
X674762Y381254D02*
X703954Y352062D01*
X647682Y286766D02*
X703954Y343038D01*
X676419Y286766D02*
X705435Y315782D01*
X662051Y286766D02*
X710939Y335654D01*
X683604Y286766D02*
X708920Y312083D01*
X669235Y286766D02*
X703955Y321486D01*
X690788Y286766D02*
X705402Y301381D01*
X631657Y381254D02*
X708251Y304660D01*
X624473Y381254D02*
X705039Y300687D01*
X638841Y381254D02*
X713267Y306828D01*
X617289Y381254D02*
X704044Y294498D01*
X646025Y381254D02*
X704111Y323168D01*
X610104Y381254D02*
X704592Y286766D01*
X568960D02*
X708795D01*
X633314D02*
X703954Y357406D01*
X640498Y286766D02*
X703954Y350222D01*
X545446Y381254D02*
X639934Y286766D01*
X538262Y381254D02*
X632750Y286766D01*
X552631Y381254D02*
X647119Y286766D01*
X531078Y381254D02*
X560065Y352267D01*
X564144Y346912D02*
X598486Y381254D01*
X574183D02*
X668671Y286766D01*
X568646Y286756D02*
X663144Y381254D01*
X575840Y286766D02*
X670328Y381254D01*
X559815D02*
X654303Y286766D01*
X566999Y381254D02*
X661487Y286766D01*
X521715Y419354D02*
X550163Y390906D01*
X516710Y381254D02*
X547661Y350302D01*
X523894Y381254D02*
X551926Y353222D01*
X502341Y381254D02*
X543795Y339800D01*
X509525Y381254D02*
X545499Y345280D01*
X495157Y381254D02*
X540203Y336208D01*
X486763Y291084D02*
X576934Y381254D01*
X480788D02*
X533019Y329024D01*
X487973Y381254D02*
X536611Y332616D01*
X561350Y351302D02*
X591302Y381254D01*
X561122Y336841D02*
X611198Y286766D01*
X556101Y334679D02*
X604013Y286766D01*
X556474Y353610D02*
X584118Y381254D01*
X563087Y349245D02*
X625566Y286766D01*
X564041Y341106D02*
X618382Y286766D01*
X543436Y325791D02*
X582461Y286766D01*
X539844Y322199D02*
X575276Y286766D01*
X493948Y291084D02*
X545550Y342686D01*
X495079Y291084D02*
X545745Y341750D01*
X550620Y332975D02*
X596829Y286766D01*
X547028Y329383D02*
X589645Y286766D01*
X536252Y318607D02*
X568159Y286699D01*
X532659Y315014D02*
X563935Y283739D01*
X635218Y277114D02*
X907506Y4826D01*
X606481Y277114D02*
X794076Y89519D01*
X642402Y277114D02*
X914690Y4826D01*
X685507Y277114D02*
X785711Y176910D01*
X692692Y277114D02*
X786469Y183336D01*
X671139Y277114D02*
X943427Y4826D01*
X663955Y277114D02*
X936243Y4826D01*
X678323Y277114D02*
X950611Y4826D01*
X649586Y277114D02*
X921874Y4826D01*
X656770Y277114D02*
X929059Y4826D01*
X592113Y277114D02*
X786016Y83211D01*
X584928Y277114D02*
X786658Y75384D01*
X599297Y277114D02*
X788989Y87422D01*
X516611Y4826D02*
X780330Y268545D01*
X523795Y4826D02*
X782575Y263606D01*
X577744Y277114D02*
X850032Y4826D01*
X570760Y276915D02*
X842848Y4826D01*
X567167Y273322D02*
X835664Y4826D01*
X564510Y268795D02*
X828480Y4826D01*
X660295D02*
X869083Y213614D01*
X602821Y4826D02*
X826445Y228450D01*
X624374Y4826D02*
X790306Y170758D01*
X610006Y4826D02*
X785553Y180374D01*
X617190Y4826D02*
X786712Y174348D01*
X681848Y4826D02*
X890636Y213614D01*
X689032Y4826D02*
X897820Y213614D01*
X667479Y4826D02*
X876267Y213614D01*
X674663Y4826D02*
X883452Y213614D01*
X563140Y262981D02*
X821295Y4826D01*
X559429Y259508D02*
X814111Y4826D01*
X566900D02*
X808485Y246410D01*
X530979Y4826D02*
X786610Y260457D01*
X559716Y4826D02*
X804893Y250002D01*
X588453Y4826D02*
X819261Y235634D01*
X595637Y4826D02*
X822853Y232042D01*
X574085Y4826D02*
X812077Y242818D01*
X581269Y4826D02*
X815669Y239226D01*
X551617Y276911D02*
X655960Y381254D01*
X529067Y311422D02*
X560342Y280147D01*
X557410Y277215D02*
X565540Y285345D01*
X525475Y307830D02*
X555815Y277490D01*
X521883Y304238D02*
X550001Y276120D01*
X564235Y270390D02*
X570959Y277114D01*
X620849D02*
X712100Y185864D01*
X518291Y300646D02*
X546528Y272409D01*
X514699Y297054D02*
X545610Y266143D01*
X511107Y293462D02*
X715572Y88997D01*
X500498Y282853D02*
X552570Y334925D01*
X507515Y289870D02*
X711379Y86006D01*
X500327Y282689D02*
X778190Y4826D01*
X494400Y281432D02*
X771006Y4826D01*
X503923Y286278D02*
X709305Y80895D01*
X487216Y281432D02*
X763822Y4826D01*
X613665Y277114D02*
X709519Y181261D01*
X570959Y277114D02*
X706143D01*
X628034D02*
X716749Y188399D01*
X564541Y268282D02*
X573372Y277114D01*
X645927Y4826D02*
X713306Y72205D01*
X653111Y4826D02*
X718739Y70454D01*
X631558Y4826D02*
X709750Y83017D01*
X638742Y4826D02*
X710075Y76158D01*
X495058Y4826D02*
X767346Y277114D01*
X487874Y4826D02*
X760162Y277114D01*
X502243Y4826D02*
X774530Y277114D01*
X480690Y4826D02*
X752978Y277114D01*
X553163Y258590D02*
X723305Y88448D01*
X509427Y4826D02*
X779748Y275147D01*
X552532Y4826D02*
X717336Y169630D01*
X538163Y4826D02*
X709666Y176328D01*
X545348Y4826D02*
X712460Y171938D01*
X466420Y381254D02*
X525835Y321839D01*
X459236Y381254D02*
X522242Y318247D01*
X473604Y381254D02*
X529427Y325432D01*
X444867Y381254D02*
X515058Y311063D01*
X452052Y381254D02*
X518650Y314655D01*
X436474Y291084D02*
X526644Y381254D01*
X429290Y291084D02*
X519460Y381254D01*
X443658Y291084D02*
X533828Y381254D01*
X430499D02*
X507874Y303879D01*
X437683Y381254D02*
X511466Y307471D01*
X423315Y381254D02*
X504282Y300287D01*
X149860Y390906D02*
X681769D01*
X403205Y381254D02*
X683768D01*
X408946D02*
X497098Y293103D01*
X416130Y381254D02*
X500690Y296695D01*
X422106Y291084D02*
X512276Y381254D01*
X399486Y131965D02*
X648776Y381254D01*
X407737Y291084D02*
X497907Y381254D01*
X414921Y291084D02*
X505091Y381254D01*
X465211Y291084D02*
X555381Y381254D01*
X458027Y291084D02*
X548197Y381254D01*
X472395Y291084D02*
X562565Y381254D01*
X450843Y291084D02*
X541012Y381254D01*
X402531Y291084D02*
X495079D01*
X479579D02*
X569749Y381254D01*
X404754Y115680D02*
X549339Y260264D01*
X403895Y129189D02*
X546049Y271343D01*
X406458Y124568D02*
X546174Y264284D01*
X358347Y126746D02*
X612855Y381254D01*
X351162Y126746D02*
X605670Y381254D01*
X391864Y131526D02*
X641591Y381254D01*
X343978Y126746D02*
X499115Y281883D01*
X180307Y281432D02*
X497078D01*
X379899Y126746D02*
X634407Y381254D01*
X393821Y281432D02*
X670427Y4826D01*
X365531Y126746D02*
X620039Y381254D01*
X372715Y126746D02*
X627223Y381254D01*
X401691Y306590D02*
X476355Y381254D01*
X396768Y308852D02*
X469170Y381254D01*
X404738Y302453D02*
X483539Y381254D01*
X428320Y419354D02*
X456768Y390906D01*
X405518Y375075D02*
X411697Y381254D01*
X373025D02*
X463195Y291084D01*
X371816D02*
X461986Y381254D01*
X405159Y295690D02*
X490723Y381254D01*
X358657D02*
X448827Y291084D01*
X364632D02*
X454802Y381254D01*
X337104D02*
X427274Y291084D01*
X335895D02*
X426065Y381254D01*
X343079Y291084D02*
X433249Y381254D01*
X328711Y291084D02*
X418881Y381254D01*
X329920D02*
X420090Y291084D01*
X351473Y381254D02*
X441643Y291084D01*
X357448D02*
X447618Y381254D01*
X344288D02*
X434458Y291084D01*
X350263D02*
X440434Y381254D01*
X404962Y378054D02*
X491932Y291084D01*
X404863Y370969D02*
X484748Y291084D01*
X401932Y366715D02*
X477564Y291084D01*
X397143Y364320D02*
X470379Y291084D01*
X405526Y298464D02*
X412906Y291084D01*
X405689Y202826D02*
X484296Y281432D01*
X406692Y196644D02*
X491480Y281432D01*
X397133Y208638D02*
X469927Y281432D01*
X402384Y206704D02*
X477112Y281432D01*
X365841Y381254D02*
X456011Y291084D01*
X316959Y171569D02*
X426822Y281432D01*
X315946Y163372D02*
X434006Y281432D01*
X310823Y179802D02*
X412454Y281432D01*
X314682Y176476D02*
X419638Y281432D01*
X317240Y143113D02*
X455559Y281432D01*
X318223Y136912D02*
X462743Y281432D01*
X312801Y153043D02*
X441190Y281432D01*
X315961Y149018D02*
X448375Y281432D01*
X436926D02*
X713532Y4826D01*
X429742Y281432D02*
X706348Y4826D01*
X444110Y281432D02*
X720716Y4826D01*
X415373Y281432D02*
X691980Y4826D01*
X422558Y281432D02*
X699164Y4826D01*
X472847Y281432D02*
X749453Y4826D01*
X465663Y281432D02*
X742269Y4826D01*
X480032Y281432D02*
X756637Y4826D01*
X451295Y281432D02*
X727901Y4826D01*
X458479Y281432D02*
X735085Y4826D01*
X365084Y281432D02*
X641690Y4826D01*
X357900Y281432D02*
X634506Y4826D01*
X372268Y281432D02*
X648874Y4826D01*
X350716Y281432D02*
X627322Y4826D01*
X351374D02*
X623662Y277114D01*
X401005Y281432D02*
X677611Y4826D01*
X408189Y281432D02*
X684795Y4826D01*
X379453Y281432D02*
X656059Y4826D01*
X386637Y281432D02*
X663243Y4826D01*
X437584D02*
X703977Y271218D01*
X430400Y4826D02*
X702688Y277114D01*
X444769Y4826D02*
X705253Y265310D01*
X416032Y4826D02*
X688320Y277114D01*
X423216Y4826D02*
X695504Y277114D01*
X466321Y4826D02*
X738609Y277114D01*
X473506Y4826D02*
X745794Y277114D01*
X451953Y4826D02*
X708617Y261490D01*
X459137Y4826D02*
X713829Y259517D01*
X380111Y4826D02*
X652399Y277114D01*
X372927Y4826D02*
X645215Y277114D01*
X4826Y4826D02*
X1369314D01*
X358558D02*
X630846Y277114D01*
X365742Y4826D02*
X638030Y277114D01*
X401664Y4826D02*
X673951Y277114D01*
X408848Y4826D02*
X681136Y277114D01*
X387295Y4826D02*
X659583Y277114D01*
X394479Y4826D02*
X666767Y277114D01*
X329163Y281432D02*
X605769Y4826D01*
X322637D02*
X594925Y277114D01*
X329821Y4826D02*
X602109Y277114D01*
X308269Y4826D02*
X580557Y277114D01*
X315453Y4826D02*
X587741Y277114D01*
X343531Y281432D02*
X620137Y4826D01*
X336347Y281432D02*
X612953Y4826D01*
X344190D02*
X616478Y277114D01*
X337006Y4826D02*
X609294Y277114D01*
X406701Y196709D02*
X598585Y4826D01*
X264505Y281432D02*
X541111Y4826D01*
X257321Y281432D02*
X533927Y4826D01*
X271689Y281432D02*
X548295Y4826D01*
X161340Y262465D02*
X418979Y4826D01*
X157748Y258873D02*
X411795Y4826D01*
X286058Y281432D02*
X562664Y4826D01*
X293242Y281432D02*
X569848Y4826D01*
X278874Y281432D02*
X555480Y4826D01*
X301084D02*
X554678Y258419D01*
X400556Y188487D02*
X584216Y4826D01*
X394068Y187790D02*
X577032Y4826D01*
X398424Y111592D02*
X505190Y4826D01*
X378554Y117094D02*
X490822Y4826D01*
X385738Y117094D02*
X498006Y4826D01*
X404579Y191648D02*
X591401Y4826D01*
X406226Y125343D02*
X526743Y4826D01*
X406137Y118248D02*
X519558Y4826D01*
X403209Y113991D02*
X512374Y4826D01*
X335448Y117094D02*
X447716Y4826D01*
X328264Y117094D02*
X440532Y4826D01*
X342632Y117094D02*
X454901Y4826D01*
X297706Y133284D02*
X426164Y4826D01*
X306927Y131247D02*
X433348Y4826D01*
X364185Y117094D02*
X476453Y4826D01*
X371369Y117094D02*
X483637Y4826D01*
X349817Y117094D02*
X462085Y4826D01*
X357001Y117094D02*
X469269Y4826D01*
X394521Y539364D02*
X403279Y530606D01*
X388874Y540987D02*
X399255Y530606D01*
X380643Y535568D02*
X393836Y522375D01*
X316038Y529859D02*
X379222Y593043D01*
X317229Y523866D02*
X379222Y585858D01*
X316908Y501992D02*
X379222Y564306D01*
X314562Y506830D02*
X379222Y571490D01*
X316187Y494087D02*
X379222Y557122D01*
X310646Y510098D02*
X379222Y578674D01*
X203676Y489339D02*
X397250Y682912D01*
X196492Y496523D02*
X335223Y635254D01*
X200084Y492931D02*
X342407Y635254D01*
X189307Y503707D02*
X320854Y635254D01*
X192900Y500115D02*
X328039Y635254D01*
X272659Y429006D02*
X380005Y536352D01*
X279843Y429006D02*
X383524Y532687D01*
X261150Y431865D02*
X379222Y549937D01*
X265475Y429006D02*
X379222Y542753D01*
X315369Y517937D02*
X404300Y429006D01*
X316600Y495153D02*
X382747Y429006D01*
X351685D02*
X388249Y465570D01*
X316896Y502041D02*
X389931Y429006D01*
X358870D02*
X393172Y463308D01*
X337317Y429006D02*
X384781Y476470D01*
X344501Y429006D02*
X385202Y469707D01*
X294212Y429006D02*
X390708Y525503D01*
X287028Y429006D02*
X387116Y529095D01*
X301396Y429006D02*
X394331Y521941D01*
X303464Y486736D02*
X361194Y429006D01*
X308580D02*
X400528Y520954D01*
X311861Y514261D02*
X397115Y429006D01*
X313924Y490645D02*
X375563Y429006D01*
X309711Y487674D02*
X368378Y429006D01*
X306724Y512214D02*
X307731Y511206D01*
X296645Y515108D02*
X300843Y510910D01*
X236005Y457010D02*
X295376Y516381D01*
X239597Y453418D02*
X299451Y513272D01*
X243189Y449826D02*
X292355Y498991D01*
X246781Y446233D02*
X293812Y493264D01*
X167755Y525260D02*
X297731Y655236D01*
X164163Y528852D02*
X294226Y658915D01*
X178531Y514483D02*
X295670Y631622D01*
X171347Y521668D02*
X292708Y643029D01*
X174939Y518075D02*
X292997Y636133D01*
X182123Y510891D02*
X299880Y628648D01*
X185715Y507299D02*
X306120Y627704D01*
X228821Y464194D02*
X292954Y528327D01*
X232413Y460602D02*
X292848Y521037D01*
X263296Y390906D02*
X291744Y419354D01*
X263083D02*
X291531Y390906D01*
X270267Y419354D02*
X298715Y390906D01*
X277664D02*
X306112Y419354D01*
X284636D02*
X313084Y390906D01*
X270480D02*
X298928Y419354D01*
X277451D02*
X305900Y390906D01*
X257558Y435457D02*
X309823Y487723D01*
X250373Y442641D02*
X297080Y489348D01*
X253965Y439049D02*
X301919Y487002D01*
X213006Y390906D02*
X250733Y428632D01*
X220191Y390906D02*
X254325Y425040D01*
X241743Y390906D02*
X270191Y419354D01*
X248928Y390906D02*
X277376Y419354D01*
X227375Y390906D02*
X257917Y421448D01*
X234559Y390906D02*
X263007Y419354D01*
X342109D02*
X370558Y390906D01*
X335138D02*
X363586Y419354D01*
X363662D02*
X392110Y390906D01*
X327954D02*
X356402Y419354D01*
X334925D02*
X363373Y390906D01*
X378031Y419354D02*
X406479Y390906D01*
X371059D02*
X399507Y419354D01*
X378243Y390906D02*
X406691Y419354D01*
X363875Y390906D02*
X392323Y419354D01*
X370846D02*
X399294Y390906D01*
X306401D02*
X334849Y419354D01*
X306188D02*
X334636Y390906D01*
X313373Y419354D02*
X341821Y390906D01*
X299004Y419354D02*
X327452Y390906D01*
X299217D02*
X327665Y419354D01*
X320770Y390906D02*
X349218Y419354D01*
X327741D02*
X356189Y390906D01*
X313585D02*
X342034Y419354D01*
X320557D02*
X349005Y390906D01*
X356478Y419354D02*
X384926Y390906D01*
X349506D02*
X377954Y419354D01*
X356691Y390906D02*
X385139Y419354D01*
X342322Y390906D02*
X370770Y419354D01*
X349294D02*
X377742Y390906D01*
X317174Y322652D02*
X375776Y381254D01*
X315551D02*
X389393Y307412D01*
X316562Y350778D02*
X347039Y381254D01*
X317174Y322652D02*
X375776Y381254D01*
X313852Y355252D02*
X339855Y381254D01*
X311773Y331619D02*
X361407Y381254D01*
X151859D02*
X386735D01*
X303297Y359065D02*
X325486Y381254D01*
X309607Y358190D02*
X332670Y381254D01*
X301183D02*
X384423Y298014D01*
X308367Y381254D02*
X385852Y303769D01*
X315312Y327974D02*
X368591Y381254D01*
X293999D02*
X384169Y291084D01*
X205822Y390906D02*
X247141Y432224D01*
X198638Y390906D02*
X243548Y435816D01*
X256112Y390906D02*
X284560Y419354D01*
X184270Y390906D02*
X236364Y443000D01*
X191454Y390906D02*
X239956Y439408D01*
X291820Y419354D02*
X320268Y390906D01*
X284849D02*
X313297Y419354D01*
X292033Y390906D02*
X320481Y419354D01*
X177817Y291059D02*
X268012Y381254D01*
X179051D02*
X269221Y291084D01*
X169901Y390906D02*
X229180Y450185D01*
X162717Y390906D02*
X225588Y453777D01*
X177085Y390906D02*
X232772Y446593D01*
X147958Y390515D02*
X218404Y460961D01*
X155533Y390906D02*
X221996Y457369D01*
X164683Y381254D02*
X254853Y291084D01*
X171867Y381254D02*
X262037Y291084D01*
X279631Y381254D02*
X302039Y358846D01*
X250894Y381254D02*
X299552Y332595D01*
X286815Y381254D02*
X310095Y357973D01*
X258078Y381254D02*
X292357Y346975D01*
X272446Y381254D02*
X297163Y356537D01*
X220948Y291084D02*
X311118Y381254D01*
X228132Y291084D02*
X318302Y381254D01*
X243709D02*
X295445Y329519D01*
X214973Y381254D02*
X305143Y291084D01*
X193420Y381254D02*
X283590Y291084D01*
X192211D02*
X282381Y381254D01*
X199395Y291084D02*
X289565Y381254D01*
X185027Y291084D02*
X275197Y381254D01*
X186236D02*
X276406Y291084D01*
X207788Y381254D02*
X297958Y291084D01*
X213764D02*
X303934Y381254D01*
X200604D02*
X290774Y291084D01*
X206579D02*
X296749Y381254D01*
X72874Y516589D02*
X390890Y834605D01*
X4826Y799743D02*
X296335Y508234D01*
X63848Y514747D02*
X340928Y791828D01*
X4826Y513199D02*
X289988Y798361D01*
X4826Y792559D02*
X293364Y504021D01*
X4826Y771006D02*
X346826Y429006D01*
X4826Y778190D02*
X354010Y429006D01*
X4826Y763822D02*
X339642Y429006D01*
X4826Y462910D02*
X333380Y791464D01*
X4826Y785374D02*
X292426Y497774D01*
X4826Y520383D02*
X295611Y811169D01*
X4826Y871585D02*
X392450Y483961D01*
X4826Y806927D02*
X295398Y516355D01*
X4826Y527568D02*
X291961Y814702D01*
X4826Y814111D02*
X292504Y526434D01*
X4826Y878769D02*
X402111Y481484D01*
X4826Y864401D02*
X387784Y481442D01*
X4826Y857216D02*
X384965Y477077D01*
X4826Y850032D02*
X385239Y469619D01*
X145816Y547199D02*
X264009Y429006D01*
X145518Y510207D02*
X157338Y522027D01*
X146227Y503731D02*
X160930Y518435D01*
X137593Y516650D02*
X150154Y529211D01*
X142444Y514317D02*
X153746Y525619D01*
X146417Y550388D02*
X267799Y429006D01*
X138991Y540374D02*
X258590Y420775D01*
X73701Y395284D02*
X178890Y500474D01*
X78798Y393198D02*
X182483Y496882D01*
X4826Y749453D02*
X325273Y429006D01*
X4826Y756637D02*
X332458Y429006D01*
X4826Y742269D02*
X318089Y429006D01*
X4826Y735085D02*
X310905Y429006D01*
X4826Y727901D02*
X303721Y429006D01*
X4826Y720716D02*
X296536Y429006D01*
X4826Y713532D02*
X289352Y429006D01*
X4826Y706348D02*
X282168Y429006D01*
X4826Y699164D02*
X274984Y429006D01*
X81426Y557906D02*
X126678Y512654D01*
X80619Y509966D02*
X124838Y554185D01*
X81135Y503297D02*
X124953Y547116D01*
X81426Y550721D02*
X124471Y507677D01*
X4826Y484462D02*
X60127Y539764D01*
X4826Y412620D02*
X132381Y540175D01*
X4826Y419804D02*
X127791Y542770D01*
X4826Y405436D02*
X139377Y539987D01*
X4826Y477278D02*
X67312Y539764D01*
X4826Y470094D02*
X74496Y539764D01*
X4826Y641690D02*
X130683Y515833D01*
X4826Y648874D02*
X136936Y516765D01*
X4826Y584216D02*
X72344Y516699D01*
X4826Y577032D02*
X65918Y515940D01*
X4826Y569848D02*
X61831Y512843D01*
X4826Y562664D02*
X59524Y507965D01*
X4826Y491647D02*
X59314Y546135D01*
X4826Y506015D02*
X59314Y560503D01*
X4826Y498831D02*
X59314Y553319D01*
X4826Y441357D02*
X62031Y498562D01*
X4826Y434173D02*
X66224Y495571D01*
X4826Y455726D02*
X61443Y512343D01*
X4826Y448541D02*
X59601Y503317D01*
X4826Y398252D02*
X142969Y536395D01*
X4826Y426989D02*
X72893Y495056D01*
X4826Y462085D02*
X71576Y395335D01*
X4826Y454901D02*
X66297Y393430D01*
X81249Y507794D02*
X198136Y390906D01*
X78015Y539764D02*
X226873Y390906D01*
X80490Y501368D02*
X190952Y390906D01*
X77393Y497281D02*
X183768Y390906D01*
X72515Y494974D02*
X176584Y390906D01*
X146314Y507386D02*
X262794Y390906D01*
X135489Y539765D02*
X284347Y390906D01*
X145383Y501133D02*
X255610Y390906D01*
X81426Y543537D02*
X234057Y390906D01*
X142203Y497129D02*
X248426Y390906D01*
X4826Y656059D02*
X269979Y390906D01*
X4826Y663243D02*
X277163Y390906D01*
X63647Y539764D02*
X212505Y390906D01*
X4826Y591401D02*
X205321Y390906D01*
X4826Y555480D02*
X169400Y390906D01*
X70831Y539764D02*
X219689Y390906D01*
X4826Y333594D02*
X175298Y504066D01*
X4826Y347962D02*
X168114Y511250D01*
X4826Y340778D02*
X171706Y507658D01*
X137226Y494921D02*
X241242Y390906D01*
X68792Y318534D02*
X214811Y464553D01*
X63786Y191396D02*
X253644Y381254D01*
X81988Y389203D02*
X186075Y493290D01*
X82749Y382780D02*
X189667Y489698D01*
X4826Y175541D02*
X210539Y381254D01*
X70970Y191396D02*
X260828Y381254D01*
X4826Y189910D02*
X196170Y381254D01*
X4826Y182726D02*
X203354Y381254D01*
X4826Y276120D02*
X204035Y475330D01*
X4826Y283305D02*
X200443Y478922D01*
X4826Y268936D02*
X207627Y471737D01*
X4826Y297673D02*
X193259Y486106D01*
X4826Y290489D02*
X196851Y482514D01*
X4826Y261752D02*
X211219Y468145D01*
X4826Y197094D02*
X188986Y381254D01*
X4826Y211462D02*
X174618Y381254D01*
X4826Y204278D02*
X181802Y381254D01*
X4826Y498006D02*
X129893Y372938D01*
X4826Y505190D02*
X133485Y376530D01*
X4826Y369515D02*
X130983Y495672D01*
X4826Y383883D02*
X124540Y503597D01*
X4826Y376699D02*
X126873Y498746D01*
X4826Y490822D02*
X126301Y369346D01*
X4826Y362331D02*
X137458Y494963D01*
X4826Y483637D02*
X122709Y365754D01*
X4826Y476453D02*
X119117Y362162D01*
X4826Y469269D02*
X115525Y358570D01*
X4826Y541111D02*
X155031Y390906D01*
X4826Y548295D02*
X162215Y390906D01*
X4826Y533927D02*
X148157Y390596D01*
X4826Y391068D02*
X146561Y532803D01*
X4826Y526743D02*
X144262Y387307D01*
X4826Y519558D02*
X140670Y383715D01*
X4826Y355147D02*
X164522Y514843D01*
X4826Y4826D02*
Y981964D01*
Y512374D02*
X137078Y380123D01*
X75616Y318661D02*
X146440Y389485D01*
X82915Y383996D02*
X111933Y354978D01*
X4826Y326410D02*
X61916Y383499D01*
X4826Y383058D02*
X69209Y318675D01*
X4826Y225831D02*
X160249Y381254D01*
X4826Y218647D02*
X167433Y381254D01*
X82441Y311836D02*
X151859Y381254D01*
X82698Y310887D02*
X153065Y381254D01*
X4826Y426164D02*
X93972Y337017D01*
X4826Y433348D02*
X97564Y340610D01*
X4826Y418979D02*
X90380Y333425D01*
X4826Y447716D02*
X62969Y389573D01*
X4826Y440532D02*
X61924Y383434D01*
X4826Y411795D02*
X86788Y329833D01*
X4826Y404611D02*
X83196Y326241D01*
X4826Y397427D02*
X79604Y322649D01*
X4826Y390243D02*
X76012Y319057D01*
X403757Y380499D02*
X404512Y381254D01*
X316941Y343972D02*
X354223Y381254D01*
X380210D02*
X384640Y376823D01*
X322736Y381254D02*
X394984Y309006D01*
X321527Y291084D02*
X394545Y364103D01*
X316063Y352005D02*
X376985Y291084D01*
X316936Y343949D02*
X369800Y291084D01*
X314627Y339073D02*
X362616Y291084D01*
X292790D02*
X382960Y381254D01*
X222157D02*
X312327Y291084D01*
X307158D02*
X385691Y369617D01*
X314342Y291084D02*
X389121Y365863D01*
X299974Y291084D02*
X384454Y375564D01*
X310742Y335774D02*
X355432Y291084D01*
X379000D02*
X384568Y296652D01*
X386185Y291084D02*
X386830Y291729D01*
X317220Y322112D02*
X348248Y291084D01*
X316085Y316062D02*
X341064Y291084D01*
X403932Y292873D02*
X405722Y291084D01*
X321979Y281432D02*
X394829Y208581D01*
X313009Y311955D02*
X333879Y291084D01*
X178308D02*
X387409D01*
X314795Y281432D02*
X389768Y206459D01*
X301199Y309396D02*
X319511Y291084D01*
X308387Y309392D02*
X326695Y291084D01*
X307610Y281432D02*
X386607Y202436D01*
X305187Y181350D02*
X405269Y281432D01*
X300426D02*
X385910Y195948D01*
X236525Y381254D02*
X292882Y324897D01*
X265262Y381254D02*
X293864Y352652D01*
X229341Y381254D02*
X292887Y317708D01*
X157499Y381254D02*
X247669Y291084D01*
X235316D02*
X292445Y348213D01*
X151087Y380482D02*
X240485Y291084D01*
X147495Y376890D02*
X233300Y291084D01*
X136718Y366113D02*
X211748Y291084D01*
X133126Y362521D02*
X204564Y291084D01*
X129534Y358929D02*
X197379Y291084D01*
X125942Y355337D02*
X190195Y291084D01*
X122350Y351745D02*
X183011Y291084D01*
X143903Y373298D02*
X226116Y291084D01*
X140310Y369706D02*
X218932Y291084D01*
X118758Y348153D02*
X176276Y290635D01*
X115166Y344561D02*
X172476Y287251D01*
X306595Y333626D02*
X307538Y334569D01*
X256869Y291084D02*
X300732Y334948D01*
X278421Y291084D02*
X298136Y310798D01*
X264053Y291084D02*
X292484Y319515D01*
X271237Y291084D02*
X294491Y314337D01*
X285606Y291084D02*
X303458Y308937D01*
X285606Y291084D02*
X303458Y308937D01*
X249685Y291084D02*
X296258Y337658D01*
X242500Y291084D02*
X293320Y341903D01*
X111574Y340969D02*
X168884Y283659D01*
X199847Y281432D02*
X300639Y180640D01*
X207031Y281432D02*
X307377Y181086D01*
X185479Y281432D02*
X293283Y173628D01*
X192663Y281432D02*
X296194Y177901D01*
X242952Y281432D02*
X392568Y131817D01*
X235768Y281432D02*
X388311Y128889D01*
X250137Y281432D02*
X399663Y131906D01*
X321815Y133320D02*
X385722Y197227D01*
X325407Y129728D02*
X387656Y191976D01*
X228584Y281432D02*
X383270Y126746D01*
X154156Y255281D02*
X404611Y4826D01*
X150564Y251689D02*
X397427Y4826D01*
X214216Y281432D02*
X368902Y126746D01*
X221400Y281432D02*
X376086Y126746D01*
X121479Y4826D02*
X398085Y281432D01*
X114295Y4826D02*
X390901Y281432D01*
X132603Y233728D02*
X361506Y4826D01*
X129011Y230136D02*
X354322Y4826D01*
X125419Y226544D02*
X347137Y4826D01*
X146972Y248097D02*
X390243Y4826D01*
X143380Y244505D02*
X383058Y4826D01*
X139788Y240913D02*
X375874Y4826D01*
X136195Y237320D02*
X368690Y4826D01*
X329610Y126746D02*
X391535Y188671D01*
X316976Y171487D02*
X361717Y126746D01*
X328389D02*
X386852D01*
X316530Y164749D02*
X354533Y126746D01*
X313791Y160304D02*
X347349Y126746D01*
X336794D02*
X397716Y187668D01*
X326390Y117094D02*
X386852D01*
X257979Y4826D02*
X370247Y117094D01*
X250795Y4826D02*
X363063Y117094D01*
X265163Y4826D02*
X377431Y117094D01*
X236427Y4826D02*
X348695Y117094D01*
X243611Y4826D02*
X355879Y117094D01*
X293900Y4826D02*
X402480Y113406D01*
X286716Y4826D02*
X393592Y111702D01*
X272348Y4826D02*
X384616Y117094D01*
X279532Y4826D02*
X388971Y114265D01*
X308088Y155514D02*
X310338Y157764D01*
X179301Y280426D02*
X292463Y167263D01*
X303153Y156573D02*
X303810Y155917D01*
X309518Y157393D02*
X340165Y126746D01*
X300625Y155235D02*
X302141Y156751D01*
X175709Y276834D02*
X298374Y154169D01*
X172117Y273242D02*
X294648Y150710D01*
X118235Y219360D02*
X332769Y4826D01*
X114643Y215768D02*
X325585Y4826D01*
X111051Y212176D02*
X318400Y4826D01*
X168524Y269650D02*
X292537Y145637D01*
X164932Y266057D02*
X294574Y136416D01*
X121827Y222952D02*
X339953Y4826D01*
X143032D02*
X297234Y159028D01*
X128663Y4826D02*
X292360Y168523D01*
X135848Y4826D02*
X293909Y162887D01*
X317207Y142520D02*
X332980Y126746D01*
X316325Y138810D02*
X328389Y126746D01*
X309500Y131985D02*
X322970Y118515D01*
X222058Y4826D02*
X334326Y117094D01*
X229242Y4826D02*
X341510Y117094D01*
X214874Y4826D02*
X327142Y117094D01*
X171769Y4826D02*
X299292Y132349D01*
X164585Y4826D02*
X295267Y135508D01*
X178953Y4826D02*
X305197Y131070D01*
X150216Y4826D02*
X293075Y147685D01*
X157400Y4826D02*
X292796Y140222D01*
X200506Y4826D02*
X318582Y122903D01*
X207690Y4826D02*
X322174Y119311D01*
X186137Y4826D02*
X311398Y130087D01*
X193321Y4826D02*
X314990Y126495D01*
X107982Y337377D02*
X165292Y280067D01*
X81010Y378717D02*
X108341Y351386D01*
X104389Y333784D02*
X161700Y276474D01*
X77153Y375390D02*
X104749Y347794D01*
X71014Y374344D02*
X101157Y344202D01*
X100797Y330192D02*
X158107Y272882D01*
X97205Y326600D02*
X154515Y269290D01*
X93613Y323008D02*
X150923Y265698D01*
X4826Y325585D02*
X107818Y222593D01*
X90021Y319416D02*
X147331Y262106D01*
X4826Y354322D02*
X122186Y236961D01*
X4826Y168357D02*
X217723Y381254D01*
X4826Y347137D02*
X118594Y233369D01*
X4826Y339953D02*
X115002Y229777D01*
X4826Y332769D02*
X111410Y226185D01*
X4826Y146804D02*
X239276Y381254D01*
X4826Y139620D02*
X246460Y381254D01*
X4826Y161173D02*
X224907Y381254D01*
X4826Y153989D02*
X232091Y381254D01*
X86429Y315824D02*
X143739Y258514D01*
X82837Y312232D02*
X140147Y254922D01*
X83446Y184571D02*
X180307Y281432D01*
X82455Y305429D02*
X136555Y251330D01*
X79703Y300997D02*
X132963Y247738D01*
X82372Y159693D02*
X204111Y281432D01*
X83350Y153486D02*
X211296Y281432D01*
X83446Y182319D02*
X182559Y281432D01*
X83446Y175135D02*
X189743Y281432D01*
X66444Y299888D02*
X125778Y240553D01*
X4826Y318400D02*
X104226Y219001D01*
X75107Y298410D02*
X129370Y244146D01*
X4826Y311216D02*
X100634Y215409D01*
X4826Y304032D02*
X97042Y211817D01*
X76621Y191396D02*
X174888Y289663D01*
X79169Y163674D02*
X196927Y281432D01*
X4826Y296848D02*
X93449Y208224D01*
X4826Y289664D02*
X89857Y204632D01*
X4826Y282479D02*
X86265Y201040D01*
X4826Y233015D02*
X70113Y298302D01*
X4826Y275295D02*
X82673Y197448D01*
X4826Y260927D02*
X74357Y191396D01*
X4826Y268111D02*
X79081Y193856D01*
X4826Y253743D02*
X67173Y191396D01*
X4826Y246558D02*
X61334Y190050D01*
X4826Y239374D02*
X61334Y182866D01*
X4826Y312041D02*
X67997Y375212D01*
X4826Y375874D02*
X64777Y315923D01*
X4826Y304857D02*
X74420Y374451D01*
X4826Y319226D02*
X64002Y378401D01*
X4826Y368690D02*
X62189Y311327D01*
X4826Y361506D02*
X63668Y302663D01*
X4826Y240199D02*
X65361Y300734D01*
X4826Y254568D02*
X62466Y312208D01*
X4826Y247383D02*
X62463Y305020D01*
X83446Y169284D02*
Y184571D01*
X74164Y165853D02*
X77595Y169284D01*
X61334D02*
X83446D01*
X67732D02*
X71096Y165920D01*
X4826Y217822D02*
X62590Y160058D01*
X4826Y225006D02*
X65924Y163908D01*
X61334Y191396D02*
X76621D01*
X4826Y232190D02*
X61334Y175682D01*
Y169284D02*
Y191396D01*
X4826Y210637D02*
X61366Y154097D01*
X4826Y118068D02*
X61334Y174576D01*
X4826Y132436D02*
X61334Y188944D01*
X4826Y125252D02*
X61334Y181760D01*
X64005Y4826D02*
X340611Y281432D01*
X56821Y4826D02*
X333427Y281432D01*
X71190Y4826D02*
X347796Y281432D01*
X6532Y4826D02*
X283138Y281432D01*
X49637Y4826D02*
X326243Y281432D01*
X99927Y4826D02*
X376533Y281432D01*
X92742Y4826D02*
X369348Y281432D01*
X107111Y4826D02*
X383717Y281432D01*
X78374Y4826D02*
X354980Y281432D01*
X85558Y4826D02*
X362164Y281432D01*
X4826Y39041D02*
X247217Y281432D01*
X4826Y46226D02*
X240033Y281432D01*
X4826Y31857D02*
X254401Y281432D01*
X4826Y60594D02*
X225664Y281432D01*
X4826Y53410D02*
X232848Y281432D01*
X4826Y10304D02*
X275954Y281432D01*
X4826Y10304D02*
X275954Y281432D01*
X4826Y24673D02*
X261585Y281432D01*
X4826Y17489D02*
X268769Y281432D01*
X93090Y194215D02*
X282479Y4826D01*
X89498Y190623D02*
X275295Y4826D01*
X85906Y187031D02*
X268111Y4826D01*
X83446Y182307D02*
X260927Y4826D01*
X83446Y175123D02*
X253743Y4826D01*
X107459Y208584D02*
X311216Y4826D01*
X103867Y204992D02*
X304032Y4826D01*
X100274Y201399D02*
X296848Y4826D01*
X96682Y197807D02*
X289664Y4826D01*
X35269D02*
X311875Y281432D01*
X28084Y4826D02*
X304690Y281432D01*
X42453Y4826D02*
X319059Y281432D01*
X13716Y4826D02*
X290322Y281432D01*
X20900Y4826D02*
X297506Y281432D01*
X74916Y169284D02*
X239374Y4826D01*
X82100Y169284D02*
X246558Y4826D01*
X83370Y153646D02*
X232190Y4826D01*
X81358Y148474D02*
X225006Y4826D01*
X4826Y82147D02*
X67637Y144958D01*
X4826Y160348D02*
X160348Y4826D01*
X4826Y74962D02*
X73844Y143980D01*
X4826Y96515D02*
X61477Y153166D01*
X4826Y89331D02*
X63656Y148161D01*
X77508Y145140D02*
X217822Y4826D01*
X4826Y153164D02*
X153164Y4826D01*
X71547Y143916D02*
X210637Y4826D01*
X4826Y145979D02*
X145979Y4826D01*
X4826Y138795D02*
X138795Y4826D01*
X4826Y203453D02*
X203453Y4826D01*
X4826Y67778D02*
X218480Y281432D01*
X4826Y196269D02*
X196269Y4826D01*
X4826Y110883D02*
X63227Y169284D01*
X4826Y103699D02*
X70411Y169284D01*
X4826Y189085D02*
X189085Y4826D01*
X4826Y181901D02*
X181901Y4826D01*
X4826Y174716D02*
X174716Y4826D01*
X4826Y167532D02*
X167532Y4826D01*
X4826Y59769D02*
X59769Y4826D01*
X4826Y66953D02*
X66953Y4826D01*
X4826Y52585D02*
X52585Y4826D01*
X4826Y45400D02*
X45400Y4826D01*
X4826Y38216D02*
X38216Y4826D01*
X4826Y31032D02*
X31032Y4826D01*
X4826Y23848D02*
X23848Y4826D01*
X4826Y16664D02*
X16664Y4826D01*
X4826Y9479D02*
X9479Y4826D01*
X4826Y124427D02*
X124427Y4826D01*
X4826Y131611D02*
X131611Y4826D01*
X4826Y117243D02*
X117243Y4826D01*
X4826Y110058D02*
X110058Y4826D01*
X4826Y102874D02*
X102874Y4826D01*
X4826Y95690D02*
X95690Y4826D01*
X4826Y88506D02*
X88506Y4826D01*
X4826Y81321D02*
X81321Y4826D01*
X4826Y74137D02*
X74137Y4826D01*
M02*
