G04*
G04 #@! TF.GenerationSoftware,Altium Limited,Altium Designer,26.4.1 (12)*
G04*
G04 Layer_Color=16711935*
%FSLAX44Y44*%
%MOMM*%
G71*
G04*
G04 #@! TF.SameCoordinates,B310F62A-042E-47FD-AD67-7B7DF690AD95*
G04*
G04*
G04 #@! TF.FilePolarity,Positive*
G04*
G01*
G75*
%ADD10C,0.2000*%
G36*
X490181Y782313D02*
X490257D01*
X490340Y782306D01*
X490437Y782299D01*
X490548Y782285D01*
X490777Y782258D01*
X491020Y782216D01*
X491262Y782154D01*
X491498Y782070D01*
X491505D01*
X491526Y782057D01*
X491553Y782043D01*
X491595Y782022D01*
X491644Y781994D01*
X491699Y781966D01*
X491831Y781883D01*
X491977Y781779D01*
X492129Y781647D01*
X492282Y781495D01*
X492413Y781315D01*
X492420Y781308D01*
X492427Y781294D01*
X492441Y781266D01*
X492462Y781225D01*
X492490Y781176D01*
X492517Y781121D01*
X492552Y781051D01*
X492580Y780975D01*
X492615Y780899D01*
X492642Y780808D01*
X492698Y780607D01*
X492739Y780392D01*
X492753Y780275D01*
X492760Y780157D01*
X491963Y780087D01*
Y780094D01*
Y780108D01*
X491956Y780136D01*
X491949Y780171D01*
X491942Y780212D01*
X491935Y780254D01*
X491907Y780372D01*
X491872Y780496D01*
X491831Y780628D01*
X491775Y780760D01*
X491706Y780885D01*
X491699Y780899D01*
X491665Y780933D01*
X491616Y780989D01*
X491547Y781058D01*
X491456Y781141D01*
X491345Y781217D01*
X491214Y781301D01*
X491061Y781377D01*
X491054D01*
X491040Y781384D01*
X491020Y781391D01*
X490985Y781405D01*
X490943Y781419D01*
X490895Y781439D01*
X490839Y781453D01*
X490777Y781467D01*
X490631Y781502D01*
X490458Y781536D01*
X490278Y781557D01*
X490076Y781564D01*
X489993D01*
X489952Y781557D01*
X489903D01*
X489792Y781543D01*
X489660Y781530D01*
X489515Y781509D01*
X489369Y781474D01*
X489231Y781426D01*
X489224D01*
X489217Y781419D01*
X489196Y781412D01*
X489168Y781398D01*
X489106Y781363D01*
X489022Y781322D01*
X488932Y781266D01*
X488835Y781197D01*
X488752Y781121D01*
X488676Y781030D01*
X488669Y781016D01*
X488648Y780989D01*
X488613Y780933D01*
X488579Y780864D01*
X488551Y780781D01*
X488516Y780691D01*
X488495Y780586D01*
X488489Y780482D01*
Y780476D01*
Y780469D01*
Y780434D01*
X488495Y780372D01*
X488509Y780302D01*
X488530Y780219D01*
X488565Y780129D01*
X488606Y780039D01*
X488669Y779956D01*
X488676Y779949D01*
X488704Y779921D01*
X488745Y779879D01*
X488808Y779824D01*
X488884Y779768D01*
X488988Y779706D01*
X489106Y779643D01*
X489244Y779581D01*
X489258Y779574D01*
X489272Y779567D01*
X489300Y779560D01*
X489328Y779553D01*
X489369Y779539D01*
X489425Y779519D01*
X489480Y779505D01*
X489557Y779484D01*
X489633Y779456D01*
X489730Y779435D01*
X489834Y779408D01*
X489952Y779373D01*
X490076Y779345D01*
X490222Y779304D01*
X490382Y779269D01*
X490389D01*
X490416Y779262D01*
X490465Y779248D01*
X490520Y779234D01*
X490597Y779214D01*
X490680Y779193D01*
X490763Y779165D01*
X490860Y779137D01*
X491068Y779075D01*
X491269Y779006D01*
X491366Y778971D01*
X491456Y778936D01*
X491540Y778902D01*
X491609Y778867D01*
X491616D01*
X491630Y778853D01*
X491651Y778839D01*
X491685Y778825D01*
X491768Y778777D01*
X491866Y778707D01*
X491983Y778617D01*
X492094Y778520D01*
X492205Y778402D01*
X492295Y778277D01*
Y778270D01*
X492302Y778264D01*
X492316Y778243D01*
X492330Y778215D01*
X492365Y778139D01*
X492406Y778042D01*
X492448Y777924D01*
X492483Y777785D01*
X492510Y777633D01*
X492517Y777473D01*
Y777466D01*
Y777452D01*
Y777424D01*
X492510Y777390D01*
Y777348D01*
X492504Y777300D01*
X492483Y777175D01*
X492448Y777036D01*
X492406Y776891D01*
X492337Y776731D01*
X492247Y776572D01*
Y776565D01*
X492233Y776551D01*
X492219Y776530D01*
X492198Y776502D01*
X492129Y776426D01*
X492039Y776329D01*
X491928Y776225D01*
X491789Y776121D01*
X491630Y776017D01*
X491443Y775927D01*
X491436D01*
X491422Y775920D01*
X491387Y775906D01*
X491352Y775892D01*
X491304Y775878D01*
X491241Y775857D01*
X491172Y775837D01*
X491096Y775816D01*
X491013Y775795D01*
X490923Y775774D01*
X490728Y775740D01*
X490507Y775712D01*
X490271Y775705D01*
X490153D01*
X490090Y775712D01*
X490014Y775719D01*
X489938Y775726D01*
X489848Y775733D01*
X489654Y775760D01*
X489439Y775802D01*
X489224Y775864D01*
X489016Y775941D01*
X489009D01*
X488995Y775955D01*
X488960Y775961D01*
X488926Y775982D01*
X488884Y776010D01*
X488828Y776038D01*
X488711Y776107D01*
X488572Y776204D01*
X488433Y776322D01*
X488301Y776454D01*
X488184Y776613D01*
X488177Y776620D01*
X488170Y776634D01*
X488156Y776655D01*
X488135Y776690D01*
X488114Y776731D01*
X488086Y776780D01*
X488066Y776842D01*
X488031Y776905D01*
X487976Y777050D01*
X487927Y777223D01*
X487885Y777411D01*
X487864Y777619D01*
X488676Y777681D01*
Y777674D01*
X488683Y777653D01*
Y777626D01*
X488690Y777584D01*
X488704Y777529D01*
X488717Y777473D01*
X488759Y777341D01*
X488815Y777196D01*
X488898Y777043D01*
X488995Y776898D01*
X489057Y776835D01*
X489127Y776773D01*
X489133Y776766D01*
X489140Y776759D01*
X489168Y776745D01*
X489196Y776724D01*
X489238Y776703D01*
X489286Y776676D01*
X489342Y776648D01*
X489404Y776613D01*
X489480Y776585D01*
X489563Y776558D01*
X489654Y776530D01*
X489751Y776509D01*
X489862Y776488D01*
X489980Y776475D01*
X490104Y776461D01*
X490305D01*
X490361Y776468D01*
X490423D01*
X490493Y776475D01*
X490576Y776481D01*
X490659Y776495D01*
X490846Y776530D01*
X491026Y776579D01*
X491200Y776648D01*
X491283Y776696D01*
X491352Y776745D01*
X491359D01*
X491366Y776759D01*
X491408Y776794D01*
X491463Y776856D01*
X491526Y776939D01*
X491588Y777036D01*
X491644Y777154D01*
X491685Y777279D01*
X491692Y777348D01*
X491699Y777424D01*
Y777431D01*
Y777438D01*
X491692Y777480D01*
X491685Y777542D01*
X491671Y777619D01*
X491637Y777709D01*
X491595Y777806D01*
X491540Y777896D01*
X491456Y777986D01*
X491443Y777993D01*
X491429Y778007D01*
X491401Y778028D01*
X491366Y778049D01*
X491325Y778069D01*
X491269Y778097D01*
X491207Y778132D01*
X491130Y778167D01*
X491040Y778201D01*
X490936Y778236D01*
X490818Y778277D01*
X490680Y778319D01*
X490534Y778361D01*
X490368Y778409D01*
X490181Y778451D01*
X490167D01*
X490132Y778458D01*
X490084Y778472D01*
X490014Y778492D01*
X489931Y778506D01*
X489834Y778534D01*
X489730Y778555D01*
X489619Y778589D01*
X489383Y778652D01*
X489147Y778714D01*
X489036Y778749D01*
X488939Y778784D01*
X488842Y778818D01*
X488766Y778853D01*
X488759D01*
X488738Y778867D01*
X488711Y778881D01*
X488676Y778902D01*
X488627Y778922D01*
X488572Y778957D01*
X488454Y779033D01*
X488315Y779123D01*
X488184Y779234D01*
X488052Y779366D01*
X487996Y779435D01*
X487941Y779505D01*
Y779512D01*
X487927Y779526D01*
X487913Y779546D01*
X487899Y779574D01*
X487878Y779609D01*
X487858Y779657D01*
X487802Y779768D01*
X487754Y779900D01*
X487712Y780053D01*
X487684Y780226D01*
X487670Y780413D01*
Y780420D01*
Y780434D01*
Y780462D01*
X487677Y780496D01*
Y780545D01*
X487684Y780593D01*
X487705Y780725D01*
X487740Y780871D01*
X487795Y781030D01*
X487872Y781197D01*
X487913Y781287D01*
X487968Y781370D01*
Y781377D01*
X487982Y781391D01*
X487996Y781412D01*
X488024Y781446D01*
X488086Y781523D01*
X488184Y781627D01*
X488301Y781738D01*
X488447Y781855D01*
X488613Y781966D01*
X488808Y782070D01*
X488815D01*
X488835Y782084D01*
X488863Y782091D01*
X488905Y782112D01*
X488953Y782126D01*
X489016Y782147D01*
X489085Y782175D01*
X489168Y782195D01*
X489251Y782216D01*
X489348Y782244D01*
X489557Y782279D01*
X489785Y782306D01*
X490035Y782320D01*
X490118D01*
X490181Y782313D01*
D02*
G37*
G36*
X487095Y775816D02*
X486221D01*
X485257Y780018D01*
Y780025D01*
X485250Y780046D01*
X485243Y780080D01*
X485229Y780129D01*
X485216Y780191D01*
X485202Y780261D01*
X485181Y780337D01*
X485160Y780427D01*
X485139Y780524D01*
X485119Y780628D01*
X485077Y780843D01*
X485028Y781079D01*
X484987Y781322D01*
Y781308D01*
X484973Y781280D01*
X484966Y781225D01*
X484945Y781162D01*
X484931Y781079D01*
X484911Y780989D01*
X484883Y780892D01*
X484862Y780795D01*
X484807Y780586D01*
X484786Y780489D01*
X484758Y780392D01*
X484737Y780309D01*
X484723Y780240D01*
X484710Y780184D01*
X484696Y780143D01*
X483475Y775816D01*
X482456D01*
X481548Y779061D01*
X481540Y779075D01*
X481534Y779117D01*
X481513Y779179D01*
X481492Y779269D01*
X481464Y779373D01*
X481430Y779498D01*
X481395Y779637D01*
X481353Y779796D01*
X481312Y779962D01*
X481270Y780143D01*
X481228Y780330D01*
X481187Y780524D01*
X481111Y780919D01*
X481041Y781322D01*
Y781315D01*
X481034Y781294D01*
X481027Y781259D01*
X481021Y781217D01*
X481007Y781155D01*
X480993Y781086D01*
X480972Y781010D01*
X480951Y780919D01*
X480930Y780822D01*
X480910Y780718D01*
X480882Y780600D01*
X480854Y780482D01*
X480792Y780219D01*
X480722Y779935D01*
X479717Y775816D01*
X478864D01*
X480618Y782216D01*
X481443D01*
X482782Y777341D01*
Y777334D01*
X482789Y777314D01*
X482796Y777286D01*
X482809Y777244D01*
X482823Y777196D01*
X482837Y777140D01*
X482872Y777015D01*
X482907Y776891D01*
X482941Y776766D01*
X482955Y776710D01*
X482969Y776662D01*
X482983Y776620D01*
X482990Y776592D01*
Y776599D01*
X482997Y776613D01*
Y776634D01*
X483011Y776669D01*
X483018Y776703D01*
X483024Y776752D01*
X483052Y776849D01*
X483080Y776967D01*
X483115Y777099D01*
X483149Y777223D01*
X483184Y777341D01*
X484529Y782216D01*
X485410D01*
X487095Y775816D01*
D02*
G37*
G36*
X476222Y777216D02*
X476236Y777230D01*
X476270Y777265D01*
X476333Y777314D01*
X476423Y777383D01*
X476527Y777466D01*
X476659Y777556D01*
X476805Y777653D01*
X476971Y777757D01*
X476978D01*
X476992Y777771D01*
X477012Y777785D01*
X477047Y777799D01*
X477089Y777827D01*
X477137Y777848D01*
X477248Y777910D01*
X477373Y777972D01*
X477512Y778042D01*
X477657Y778104D01*
X477796Y778160D01*
Y777404D01*
X477789Y777397D01*
X477768Y777390D01*
X477734Y777369D01*
X477685Y777348D01*
X477630Y777320D01*
X477560Y777279D01*
X477484Y777237D01*
X477408Y777196D01*
X477228Y777085D01*
X477033Y776953D01*
X476832Y776814D01*
X476645Y776655D01*
X476638Y776648D01*
X476624Y776634D01*
X476596Y776613D01*
X476562Y776579D01*
X476527Y776537D01*
X476479Y776495D01*
X476375Y776377D01*
X476257Y776253D01*
X476139Y776107D01*
X476035Y775955D01*
X475945Y775795D01*
X475438D01*
Y782216D01*
X476222D01*
Y777216D01*
D02*
G37*
G36*
X984930Y505306D02*
X984015D01*
X981394Y511706D01*
X982357D01*
X983099Y509771D01*
X985790D01*
X986483Y511706D01*
X987378D01*
X984930Y505306D01*
D02*
G37*
G36*
X978135Y511803D02*
X978218Y511796D01*
X978322Y511789D01*
X978433Y511775D01*
X978558Y511755D01*
X978689Y511734D01*
X978828Y511706D01*
X978967Y511671D01*
X979105Y511637D01*
X979251Y511588D01*
X979390Y511533D01*
X979521Y511470D01*
X979646Y511394D01*
X979653Y511387D01*
X979674Y511373D01*
X979708Y511352D01*
X979750Y511318D01*
X979806Y511269D01*
X979868Y511221D01*
X979937Y511158D01*
X980014Y511082D01*
X980090Y510999D01*
X980173Y510909D01*
X980249Y510812D01*
X980333Y510701D01*
X980416Y510583D01*
X980492Y510458D01*
X980561Y510319D01*
X980631Y510174D01*
X980638Y510167D01*
X980645Y510139D01*
X980658Y510090D01*
X980679Y510035D01*
X980707Y509959D01*
X980735Y509875D01*
X980762Y509771D01*
X980797Y509660D01*
X980825Y509536D01*
X980860Y509404D01*
X980887Y509265D01*
X980908Y509113D01*
X980950Y508794D01*
X980957Y508627D01*
X980964Y508461D01*
Y508447D01*
Y508419D01*
Y508364D01*
X980957Y508294D01*
X980950Y508204D01*
X980943Y508100D01*
X980929Y507989D01*
X980915Y507864D01*
X980894Y507733D01*
X980873Y507594D01*
X980804Y507296D01*
X980756Y507150D01*
X980707Y507005D01*
X980652Y506852D01*
X980582Y506713D01*
X980575Y506707D01*
X980561Y506679D01*
X980541Y506644D01*
X980513Y506589D01*
X980471Y506526D01*
X980423Y506457D01*
X980367Y506381D01*
X980305Y506291D01*
X980229Y506207D01*
X980152Y506110D01*
X980062Y506020D01*
X979965Y505923D01*
X979861Y505833D01*
X979750Y505743D01*
X979625Y505659D01*
X979501Y505583D01*
X979494Y505576D01*
X979466Y505569D01*
X979431Y505549D01*
X979376Y505521D01*
X979313Y505493D01*
X979230Y505458D01*
X979140Y505424D01*
X979043Y505389D01*
X978932Y505354D01*
X978807Y505320D01*
X978682Y505285D01*
X978544Y505257D01*
X978259Y505209D01*
X978107Y505202D01*
X977947Y505195D01*
X977857D01*
X977788Y505202D01*
X977704Y505209D01*
X977607Y505223D01*
X977504Y505237D01*
X977386Y505257D01*
X977261Y505285D01*
X977129Y505313D01*
X976997Y505354D01*
X976859Y505403D01*
X976720Y505458D01*
X976588Y505528D01*
X976456Y505597D01*
X976332Y505687D01*
X976325Y505694D01*
X976304Y505708D01*
X976269Y505736D01*
X976228Y505777D01*
X976172Y505826D01*
X976110Y505888D01*
X976047Y505958D01*
X975971Y506041D01*
X975895Y506131D01*
X975818Y506235D01*
X975742Y506346D01*
X975673Y506471D01*
X975597Y506603D01*
X975534Y506748D01*
X975472Y506901D01*
X975416Y507060D01*
X976248Y507254D01*
Y507247D01*
X976262Y507227D01*
X976269Y507185D01*
X976290Y507136D01*
X976311Y507081D01*
X976345Y507019D01*
X976415Y506866D01*
X976505Y506700D01*
X976623Y506526D01*
X976748Y506367D01*
X976824Y506297D01*
X976900Y506235D01*
X976907Y506228D01*
X976921Y506221D01*
X976942Y506207D01*
X976976Y506186D01*
X977018Y506159D01*
X977067Y506131D01*
X977122Y506103D01*
X977191Y506076D01*
X977268Y506048D01*
X977344Y506020D01*
X977524Y505965D01*
X977732Y505930D01*
X977843Y505916D01*
X978030D01*
X978086Y505923D01*
X978148Y505930D01*
X978225Y505937D01*
X978308Y505944D01*
X978391Y505958D01*
X978592Y506006D01*
X978800Y506069D01*
X978904Y506110D01*
X979008Y506159D01*
X979105Y506214D01*
X979202Y506277D01*
X979209Y506283D01*
X979223Y506291D01*
X979251Y506311D01*
X979286Y506339D01*
X979320Y506374D01*
X979369Y506422D01*
X979417Y506471D01*
X979473Y506526D01*
X979528Y506596D01*
X979591Y506665D01*
X979702Y506824D01*
X979806Y507012D01*
X979896Y507227D01*
Y507234D01*
X979903Y507254D01*
X979917Y507289D01*
X979923Y507331D01*
X979937Y507386D01*
X979958Y507449D01*
X979972Y507525D01*
X979993Y507601D01*
X980014Y507691D01*
X980027Y507788D01*
X980062Y507996D01*
X980083Y508218D01*
X980090Y508454D01*
Y508461D01*
Y508489D01*
Y508530D01*
X980083Y508593D01*
Y508662D01*
X980076Y508745D01*
X980069Y508835D01*
X980062Y508939D01*
X980048Y509050D01*
X980034Y509161D01*
X979993Y509404D01*
X979930Y509647D01*
X979854Y509882D01*
Y509889D01*
X979840Y509910D01*
X979826Y509938D01*
X979812Y509979D01*
X979785Y510035D01*
X979750Y510090D01*
X979674Y510222D01*
X979570Y510375D01*
X979445Y510520D01*
X979293Y510666D01*
X979209Y510728D01*
X979119Y510791D01*
X979112D01*
X979098Y510805D01*
X979071Y510818D01*
X979029Y510839D01*
X978980Y510860D01*
X978925Y510888D01*
X978863Y510909D01*
X978793Y510936D01*
X978634Y510992D01*
X978447Y511040D01*
X978245Y511075D01*
X978141Y511082D01*
X978030Y511089D01*
X977961D01*
X977913Y511082D01*
X977850Y511075D01*
X977781Y511068D01*
X977698Y511054D01*
X977614Y511040D01*
X977420Y510992D01*
X977323Y510957D01*
X977219Y510916D01*
X977115Y510867D01*
X977018Y510812D01*
X976921Y510749D01*
X976824Y510680D01*
X976817Y510673D01*
X976803Y510659D01*
X976775Y510638D01*
X976741Y510603D01*
X976706Y510562D01*
X976657Y510506D01*
X976609Y510444D01*
X976553Y510375D01*
X976498Y510291D01*
X976442Y510201D01*
X976387Y510104D01*
X976332Y509993D01*
X976283Y509875D01*
X976235Y509744D01*
X976186Y509605D01*
X976151Y509459D01*
X975305Y509674D01*
Y509688D01*
X975319Y509723D01*
X975333Y509771D01*
X975361Y509848D01*
X975388Y509931D01*
X975430Y510035D01*
X975472Y510146D01*
X975527Y510264D01*
X975590Y510396D01*
X975659Y510520D01*
X975735Y510659D01*
X975825Y510791D01*
X975922Y510916D01*
X976027Y511040D01*
X976144Y511158D01*
X976269Y511269D01*
X976276Y511276D01*
X976304Y511290D01*
X976339Y511318D01*
X976394Y511352D01*
X976456Y511394D01*
X976540Y511443D01*
X976630Y511491D01*
X976741Y511540D01*
X976859Y511588D01*
X976983Y511637D01*
X977122Y511685D01*
X977275Y511727D01*
X977434Y511762D01*
X977600Y511789D01*
X977774Y511803D01*
X977961Y511810D01*
X978058D01*
X978135Y511803D01*
D02*
G37*
G36*
X993140Y505306D02*
X990755D01*
X990685Y505313D01*
X990602D01*
X990519Y505320D01*
X990332Y505327D01*
X990145Y505347D01*
X989957Y505368D01*
X989874Y505389D01*
X989798Y505403D01*
X989791D01*
X989770Y505410D01*
X989742Y505417D01*
X989708Y505431D01*
X989659Y505444D01*
X989604Y505458D01*
X989472Y505507D01*
X989326Y505569D01*
X989174Y505646D01*
X989014Y505743D01*
X988862Y505860D01*
X988855Y505868D01*
X988841Y505881D01*
X988813Y505902D01*
X988779Y505937D01*
X988737Y505978D01*
X988688Y506034D01*
X988633Y506089D01*
X988577Y506159D01*
X988515Y506235D01*
X988453Y506318D01*
X988390Y506408D01*
X988328Y506505D01*
X988210Y506720D01*
X988106Y506956D01*
Y506963D01*
X988092Y506984D01*
X988085Y507025D01*
X988064Y507074D01*
X988043Y507136D01*
X988023Y507213D01*
X988002Y507296D01*
X987974Y507393D01*
X987953Y507504D01*
X987933Y507622D01*
X987912Y507747D01*
X987891Y507878D01*
X987870Y508017D01*
X987863Y508163D01*
X987849Y508475D01*
Y508482D01*
Y508509D01*
Y508544D01*
Y508600D01*
X987856Y508662D01*
Y508738D01*
X987863Y508821D01*
X987870Y508912D01*
X987891Y509113D01*
X987926Y509328D01*
X987967Y509549D01*
X988023Y509771D01*
Y509778D01*
X988030Y509799D01*
X988043Y509827D01*
X988050Y509862D01*
X988071Y509910D01*
X988092Y509966D01*
X988140Y510097D01*
X988203Y510243D01*
X988279Y510402D01*
X988362Y510555D01*
X988459Y510701D01*
Y510708D01*
X988473Y510714D01*
X988487Y510735D01*
X988508Y510763D01*
X988557Y510825D01*
X988633Y510909D01*
X988716Y511006D01*
X988813Y511103D01*
X988924Y511193D01*
X989042Y511283D01*
X989049D01*
X989056Y511290D01*
X989097Y511318D01*
X989167Y511352D01*
X989257Y511401D01*
X989368Y511450D01*
X989500Y511505D01*
X989652Y511553D01*
X989812Y511602D01*
X989819D01*
X989833Y511609D01*
X989853D01*
X989888Y511616D01*
X989930Y511623D01*
X989985Y511637D01*
X990041Y511644D01*
X990103Y511651D01*
X990255Y511671D01*
X990429Y511692D01*
X990623Y511699D01*
X990831Y511706D01*
X993140D01*
Y505306D01*
D02*
G37*
%LPC*%
G36*
X985547Y509085D02*
X983363D01*
X984035Y507310D01*
Y507303D01*
X984049Y507275D01*
X984063Y507234D01*
X984084Y507171D01*
X984112Y507109D01*
X984139Y507025D01*
X984174Y506935D01*
X984209Y506838D01*
X984278Y506623D01*
X984354Y506401D01*
X984431Y506180D01*
X984493Y505971D01*
Y505978D01*
X984500Y505999D01*
X984507Y506034D01*
X984514Y506076D01*
X984528Y506138D01*
X984542Y506200D01*
X984563Y506277D01*
X984583Y506360D01*
X984604Y506450D01*
X984632Y506547D01*
X984694Y506755D01*
X984764Y506977D01*
X984840Y507206D01*
X985547Y509085D01*
D02*
G37*
G36*
X992294Y510950D02*
X990824D01*
X990769Y510943D01*
X990706D01*
X990567Y510936D01*
X990408Y510923D01*
X990242Y510902D01*
X990082Y510874D01*
X989937Y510839D01*
X989930D01*
X989923Y510832D01*
X989902Y510825D01*
X989874Y510818D01*
X989812Y510791D01*
X989728Y510756D01*
X989638Y510708D01*
X989541Y510652D01*
X989444Y510583D01*
X989361Y510506D01*
X989354Y510499D01*
X989347Y510493D01*
X989312Y510451D01*
X989257Y510382D01*
X989188Y510291D01*
X989118Y510174D01*
X989042Y510035D01*
X988966Y509875D01*
X988896Y509695D01*
Y509688D01*
X988889Y509674D01*
X988883Y509647D01*
X988869Y509605D01*
X988855Y509557D01*
X988841Y509494D01*
X988827Y509425D01*
X988806Y509348D01*
X988792Y509265D01*
X988779Y509168D01*
X988765Y509071D01*
X988751Y508960D01*
X988730Y508724D01*
X988723Y508461D01*
Y508447D01*
Y508419D01*
Y508364D01*
X988730Y508294D01*
Y508211D01*
X988737Y508114D01*
X988751Y508010D01*
X988765Y507892D01*
X988806Y507643D01*
X988862Y507386D01*
X988945Y507143D01*
X989000Y507025D01*
X989056Y506922D01*
X989063Y506914D01*
X989070Y506901D01*
X989090Y506873D01*
X989118Y506831D01*
X989146Y506790D01*
X989188Y506741D01*
X989278Y506630D01*
X989396Y506505D01*
X989534Y506387D01*
X989687Y506277D01*
X989770Y506235D01*
X989860Y506193D01*
X989867D01*
X989874Y506186D01*
X989895Y506180D01*
X989923Y506173D01*
X989964Y506166D01*
X990006Y506152D01*
X990061Y506138D01*
X990124Y506124D01*
X990193Y506117D01*
X990276Y506103D01*
X990366Y506089D01*
X990463Y506082D01*
X990574Y506076D01*
X990692Y506069D01*
X990817Y506062D01*
X992294D01*
Y510950D01*
D02*
G37*
%LPD*%
D10*
X538310Y667570D02*
Y897070D01*
X447210D02*
X538310D01*
X447210Y667570D02*
Y897070D01*
Y667570D02*
X538310D01*
X1040577Y458740D02*
Y564880D01*
X945703D02*
X1040577D01*
X945703Y458740D02*
Y564880D01*
Y458740D02*
X1040577D01*
M02*
