G04*
G04 #@! TF.GenerationSoftware,Altium Limited,Altium Designer,26.4.1 (12)*
G04*
G04 Layer_Color=65535*
%FSLAX44Y44*%
%MOMM*%
G71*
G04*
G04 #@! TF.SameCoordinates,B310F62A-042E-47FD-AD67-7B7DF690AD95*
G04*
G04*
G04 #@! TF.FilePolarity,Positive*
G04*
G01*
G75*
%ADD10C,0.2000*%
%ADD11C,0.2500*%
%ADD12C,0.6000*%
%ADD13C,0.2540*%
%ADD14C,0.1270*%
D10*
X746760Y360110D02*
G03*
X759460Y360110I6350J0D01*
G01*
X1266190Y788670D02*
X1291590D01*
X1266190D02*
Y890270D01*
X1291590Y788670D02*
Y890270D01*
X1266190D02*
X1291590D01*
X726610Y257110D02*
Y360110D01*
X779610Y257110D02*
Y360110D01*
X726610D02*
X746760D01*
X759460D02*
X779610D01*
X726610Y257110D02*
X779610D01*
X1264920Y229870D02*
X1290320D01*
Y179070D02*
Y229870D01*
X1264920Y179070D02*
X1290320D01*
X1264920D02*
Y229870D01*
X607060Y899160D02*
X619760D01*
X607060Y670560D02*
Y899160D01*
Y670560D02*
X619760D01*
X573194Y890693D02*
X607060D01*
X568960Y886460D02*
X573194Y890693D01*
X568960Y886460D02*
X573194Y882227D01*
X607060D01*
X573194Y865293D02*
X607060D01*
X568960Y861060D02*
X573194Y865293D01*
X568960Y861060D02*
X573194Y856827D01*
X607060D01*
X573194Y839893D02*
X607060D01*
X568960Y835660D02*
X573194Y839893D01*
X568960Y835660D02*
X573194Y831427D01*
X607060D01*
X573194Y814493D02*
X607060D01*
X568960Y810260D02*
X573194Y814493D01*
X568960Y810260D02*
X573194Y806027D01*
X607060D01*
X573194Y789093D02*
X607060D01*
X568960Y784860D02*
X573194Y789093D01*
X568960Y784860D02*
X573194Y780627D01*
X607060D01*
X573194Y763694D02*
X607060D01*
X568960Y759460D02*
X573194Y763694D01*
X568960Y759460D02*
X573194Y755227D01*
X607060D01*
X573194Y738294D02*
X607060D01*
X568960Y734060D02*
X573194Y738294D01*
X568960Y734060D02*
X573194Y729827D01*
X607060D01*
X573194Y712894D02*
X607060D01*
X568960Y708660D02*
X573194Y712894D01*
X568960Y708660D02*
X573194Y704427D01*
X607060D01*
X573194Y687494D02*
X607060D01*
X568960Y683260D02*
X573194Y687494D01*
X568960Y683260D02*
X573194Y679027D01*
X607060D01*
X615527Y899160D02*
X619760Y894927D01*
Y670560D02*
Y899160D01*
X932020Y64130D02*
X1039020D01*
X932020Y59130D02*
X1039020D01*
X932020Y106130D02*
X1039020D01*
Y59130D02*
Y106130D01*
X932020Y59130D02*
Y106130D01*
X1144270Y151130D02*
X1182370D01*
X1144270D02*
Y265430D01*
X1182370D01*
Y151130D02*
Y265430D01*
X814070Y60960D02*
Y99060D01*
X699770Y60960D02*
X814070D01*
X699770D02*
Y99060D01*
X814070D01*
Y160020D02*
Y198120D01*
X699770Y160020D02*
X814070D01*
X699770D02*
Y198120D01*
X814070D01*
X531760Y668570D02*
Y683220D01*
Y881420D02*
Y896070D01*
X453760D02*
X531760D01*
X453760Y668570D02*
Y683220D01*
Y881420D02*
Y896070D01*
Y668570D02*
X531760D01*
X999536Y461010D02*
X1015525D01*
X999536D02*
Y466010D01*
X986744D02*
X999536D01*
X986744Y461010D02*
Y466010D01*
X970755Y461010D02*
X986744D01*
X970755D02*
Y562610D01*
X1015525D01*
Y461010D02*
Y562610D01*
X935990Y340360D02*
Y378460D01*
X1050290D01*
Y340360D02*
Y378460D01*
X935990Y340360D02*
X1050290D01*
X1092200Y636270D02*
X1130300D01*
Y521970D02*
Y636270D01*
X1092200Y521970D02*
X1130300D01*
X1092200D02*
Y636270D01*
X388620Y185420D02*
X396240D01*
X388620Y134620D02*
Y185420D01*
Y134620D02*
X403860D01*
Y185420D01*
X396240D02*
X403860D01*
X396240Y132334D02*
Y134620D01*
Y185420D02*
Y187706D01*
X1184910Y637540D02*
X1223010D01*
Y523240D02*
Y637540D01*
X1184910Y523240D02*
X1223010D01*
X1184910D02*
Y637540D01*
X387350Y537210D02*
X394970D01*
X387350Y486410D02*
Y537210D01*
Y486410D02*
X402590D01*
Y537210D01*
X394970D02*
X402590D01*
X394970Y484124D02*
Y486410D01*
Y537210D02*
Y539496D01*
X1023620Y770890D02*
Y778510D01*
X972820D02*
X1023620D01*
X972820Y763270D02*
Y778510D01*
Y763270D02*
X1023620D01*
Y770890D01*
X970534D02*
X972820D01*
X1023620D02*
X1025906D01*
X394970Y311150D02*
X402590D01*
Y361950D01*
X387350D02*
X402590D01*
X387350Y311150D02*
Y361950D01*
Y311150D02*
X394970D01*
Y361950D02*
Y364236D01*
Y308864D02*
Y311150D01*
X1271270Y670560D02*
X1278890D01*
X1271270Y619760D02*
Y670560D01*
Y619760D02*
X1286510D01*
Y670560D01*
X1278890D02*
X1286510D01*
X1278890Y617474D02*
Y619760D01*
Y670560D02*
Y672846D01*
X396240Y629920D02*
X403860D01*
Y680720D01*
X388620D02*
X403860D01*
X388620Y629920D02*
Y680720D01*
Y629920D02*
X396240D01*
Y680720D02*
Y683006D01*
Y627634D02*
Y629920D01*
X535940Y248920D02*
X574040D01*
X535940D02*
Y363220D01*
X574040D01*
Y248920D02*
Y363220D01*
X1140460Y342900D02*
X1178560D01*
X1140460D02*
Y457200D01*
X1178560D01*
Y342900D02*
Y457200D01*
X1270000Y438150D02*
X1277620D01*
X1270000Y387350D02*
Y438150D01*
Y387350D02*
X1285240D01*
Y438150D01*
X1277620D02*
X1285240D01*
X1277620Y385064D02*
Y387350D01*
Y438150D02*
Y440436D01*
X81870Y558320D02*
X126650D01*
X132870Y517050D02*
Y539590D01*
X79090Y498320D02*
X126650D01*
X72870Y517050D02*
Y539320D01*
X387350Y781050D02*
X394970D01*
Y831850D01*
X379730D02*
X394970D01*
X379730Y781050D02*
Y831850D01*
Y781050D02*
X387350D01*
Y831850D02*
Y834136D01*
Y778764D02*
Y781050D01*
X64770Y372110D02*
X72390D01*
X64770Y321310D02*
Y372110D01*
Y321310D02*
X80010D01*
Y372110D01*
X72390D02*
X80010D01*
X72390Y319024D02*
Y321310D01*
Y372110D02*
Y374396D01*
X59690Y142240D02*
X85090D01*
X59690D02*
Y193040D01*
X85090D01*
Y142240D02*
Y193040D01*
D11*
X716260Y359710D02*
G03*
X716260Y359710I-1250J0D01*
G01*
X1033770Y99630D02*
G03*
X1033770Y99630I-1250J0D01*
G01*
X544010Y693420D02*
G03*
X544010Y693420I-1250J0D01*
G01*
X1046328Y473710D02*
G03*
X1046328Y473710I-1250J0D01*
G01*
X58620Y550820D02*
G03*
X58620Y550820I-1250J0D01*
G01*
D12*
X739610Y350110D02*
G03*
X739610Y350110I-3000J0D01*
G01*
D13*
X767080Y919480D02*
G03*
X779780Y919480I6350J0D01*
G01*
X1017270Y236982D02*
G03*
X1017270Y236982I-16510J0D01*
G01*
X1016000Y668782D02*
G03*
X1016000Y668782I-16510J0D01*
G01*
X702945Y919480D02*
X767080D01*
X779780D02*
X843915D01*
Y411480D02*
Y919480D01*
X702945Y411480D02*
X843915D01*
X702945D02*
Y919480D01*
X1045210Y189230D02*
Y285750D01*
X949960D02*
X1045210D01*
X949960Y189230D02*
Y285750D01*
Y189230D02*
X1045210D01*
X1043940Y621030D02*
Y717550D01*
X948690D02*
X1043940D01*
X948690Y621030D02*
Y717550D01*
Y621030D02*
X1043940D01*
X713747Y368302D02*
Y378459D01*
X718825Y383537D01*
X723903Y378459D01*
Y368302D01*
Y375920D01*
X713747D01*
X728982Y368302D02*
Y383537D01*
X734060Y378459D01*
X739138Y383537D01*
Y368302D01*
X744217D02*
Y383537D01*
X751834D01*
X754373Y380998D01*
Y375920D01*
X751834Y373381D01*
X744217D01*
X947166Y588767D02*
Y573532D01*
X954783D01*
X957323Y576071D01*
Y586228D01*
X954783Y588767D01*
X947166D01*
X962401Y573532D02*
Y583689D01*
X967479Y588767D01*
X972558Y583689D01*
Y573532D01*
Y581149D01*
X962401D01*
X987793Y586228D02*
X985254Y588767D01*
X980175D01*
X977636Y586228D01*
Y576071D01*
X980175Y573532D01*
X985254D01*
X987793Y576071D01*
X933450Y130043D02*
Y114808D01*
X943607D01*
X948685Y130043D02*
Y114808D01*
X956303D01*
X958842Y117347D01*
Y127504D01*
X956303Y130043D01*
X948685D01*
X971538D02*
X966459D01*
X963920Y127504D01*
Y117347D01*
X966459Y114808D01*
X971538D01*
X974077Y117347D01*
Y127504D01*
X971538Y130043D01*
X677418Y928370D02*
Y943605D01*
X685035D01*
X687575Y941066D01*
Y935987D01*
X685035Y933448D01*
X677418D01*
X692653Y943605D02*
X697731D01*
X695192D01*
Y928370D01*
X692653D01*
X697731D01*
X715506Y941066D02*
X712967Y943605D01*
X707888D01*
X705349Y941066D01*
Y930909D01*
X707888Y928370D01*
X712967D01*
X715506Y930909D01*
X728202Y943605D02*
X723123D01*
X720584Y941066D01*
Y930909D01*
X723123Y928370D01*
X728202D01*
X730741Y930909D01*
Y941066D01*
X728202Y943605D01*
X67561Y580894D02*
X65022Y583433D01*
X59943D01*
X57404Y580894D01*
Y578355D01*
X59943Y575816D01*
X65022D01*
X67561Y573276D01*
Y570737D01*
X65022Y568198D01*
X59943D01*
X57404Y570737D01*
X72639Y583433D02*
Y568198D01*
X77717Y573276D01*
X82796Y568198D01*
Y583433D01*
X98031Y568198D02*
X87874D01*
X98031Y578355D01*
Y580894D01*
X95492Y583433D01*
X90413D01*
X87874Y580894D01*
X458975Y918460D02*
X456436Y920999D01*
X451357D01*
X448818Y918460D01*
Y915921D01*
X451357Y913382D01*
X456436D01*
X458975Y910842D01*
Y908303D01*
X456436Y905764D01*
X451357D01*
X448818Y908303D01*
X464053Y920999D02*
Y905764D01*
X469131Y910842D01*
X474210Y905764D01*
Y920999D01*
X479288Y905764D02*
X484366D01*
X481827D01*
Y920999D01*
X479288Y918460D01*
X381254Y859282D02*
Y874517D01*
X388871D01*
X391411Y871978D01*
Y866899D01*
X388871Y864360D01*
X381254D01*
X386332D02*
X391411Y859282D01*
X396489D02*
X401567D01*
X399028D01*
Y874517D01*
X396489Y871978D01*
X409185Y859282D02*
X414263D01*
X411724D01*
Y874517D01*
X409185Y871978D01*
X66294Y399542D02*
Y414777D01*
X73911D01*
X76451Y412238D01*
Y407160D01*
X73911Y404620D01*
X66294D01*
X71372D02*
X76451Y399542D01*
X81529D02*
X86607D01*
X84068D01*
Y414777D01*
X81529Y412238D01*
X94225D02*
X96764Y414777D01*
X101842D01*
X104382Y412238D01*
Y402081D01*
X101842Y399542D01*
X96764D01*
X94225Y402081D01*
Y412238D01*
X1271524Y465582D02*
Y480817D01*
X1279141D01*
X1281681Y478278D01*
Y473200D01*
X1279141Y470660D01*
X1271524D01*
X1276602D02*
X1281681Y465582D01*
X1286759Y468121D02*
X1289298Y465582D01*
X1294377D01*
X1296916Y468121D01*
Y478278D01*
X1294377Y480817D01*
X1289298D01*
X1286759Y478278D01*
Y475739D01*
X1289298Y473200D01*
X1296916D01*
X390144Y708152D02*
Y723387D01*
X397761D01*
X400301Y720848D01*
Y715770D01*
X397761Y713230D01*
X390144D01*
X395222D02*
X400301Y708152D01*
X405379Y720848D02*
X407918Y723387D01*
X412997D01*
X415536Y720848D01*
Y718309D01*
X412997Y715770D01*
X415536Y713230D01*
Y710691D01*
X412997Y708152D01*
X407918D01*
X405379Y710691D01*
Y713230D01*
X407918Y715770D01*
X405379Y718309D01*
Y720848D01*
X407918Y715770D02*
X412997D01*
X1272794Y697992D02*
Y713227D01*
X1280412D01*
X1282951Y710688D01*
Y705610D01*
X1280412Y703070D01*
X1272794D01*
X1277872D02*
X1282951Y697992D01*
X1288029Y713227D02*
X1298186D01*
Y710688D01*
X1288029Y700531D01*
Y697992D01*
X951230Y294640D02*
Y309875D01*
X958848D01*
X961387Y307336D01*
Y302257D01*
X958848Y299718D01*
X951230D01*
X956308D02*
X961387Y294640D01*
X976622Y309875D02*
X971543Y307336D01*
X966465Y302257D01*
Y297179D01*
X969004Y294640D01*
X974083D01*
X976622Y297179D01*
Y299718D01*
X974083Y302257D01*
X966465D01*
X949960Y726440D02*
Y741675D01*
X957578D01*
X960117Y739136D01*
Y734057D01*
X957578Y731518D01*
X949960D01*
X955038D02*
X960117Y726440D01*
X975352Y741675D02*
X965195D01*
Y734057D01*
X970273Y736597D01*
X972813D01*
X975352Y734057D01*
Y728979D01*
X972813Y726440D01*
X967734D01*
X965195Y728979D01*
X388874Y389382D02*
Y404617D01*
X396492D01*
X399031Y402078D01*
Y397000D01*
X396492Y394460D01*
X388874D01*
X393952D02*
X399031Y389382D01*
X411727D02*
Y404617D01*
X404109Y397000D01*
X414266D01*
X955548Y787146D02*
Y802381D01*
X963166D01*
X965705Y799842D01*
Y794763D01*
X963166Y792224D01*
X955548D01*
X960626D02*
X965705Y787146D01*
X970783Y799842D02*
X973322Y802381D01*
X978401D01*
X980940Y799842D01*
Y797303D01*
X978401Y794763D01*
X975861D01*
X978401D01*
X980940Y792224D01*
Y789685D01*
X978401Y787146D01*
X973322D01*
X970783Y789685D01*
X388874Y564642D02*
Y579877D01*
X396492D01*
X399031Y577338D01*
Y572259D01*
X396492Y569720D01*
X388874D01*
X393952D02*
X399031Y564642D01*
X414266D02*
X404109D01*
X414266Y574799D01*
Y577338D01*
X411727Y579877D01*
X406648D01*
X404109Y577338D01*
X390144Y212852D02*
Y228087D01*
X397761D01*
X400301Y225548D01*
Y220469D01*
X397761Y217930D01*
X390144D01*
X395222D02*
X400301Y212852D01*
X405379D02*
X410457D01*
X407918D01*
Y228087D01*
X405379Y225548D01*
X61214Y201676D02*
Y216911D01*
X68832D01*
X71371Y214372D01*
Y209293D01*
X68832Y206754D01*
X61214D01*
X84067Y201676D02*
Y216911D01*
X76449Y209293D01*
X86606D01*
X570484Y907796D02*
Y923031D01*
X578102D01*
X580641Y920492D01*
Y915414D01*
X578102Y912874D01*
X570484D01*
X585719Y920492D02*
X588258Y923031D01*
X593337D01*
X595876Y920492D01*
Y917953D01*
X593337Y915414D01*
X590797D01*
X593337D01*
X595876Y912874D01*
Y910335D01*
X593337Y907796D01*
X588258D01*
X585719Y910335D01*
X1210333Y919477D02*
Y904242D01*
X1220490D01*
X1235725Y916938D02*
X1233186Y919477D01*
X1228108D01*
X1225568Y916938D01*
Y906782D01*
X1228108Y904242D01*
X1233186D01*
X1235725Y906782D01*
X1240804Y919477D02*
Y904242D01*
X1248421D01*
X1250960Y906782D01*
Y916938D01*
X1248421Y919477D01*
X1240804D01*
X1271274D02*
Y904242D01*
Y911860D01*
X1281430D01*
Y919477D01*
Y904242D01*
X1294126D02*
X1289048D01*
X1286509Y906782D01*
Y911860D01*
X1289048Y914399D01*
X1294126D01*
X1296665Y911860D01*
Y909321D01*
X1286509D01*
X1304283Y914399D02*
X1309361D01*
X1311901Y911860D01*
Y904242D01*
X1304283D01*
X1301744Y906782D01*
X1304283Y909321D01*
X1311901D01*
X1327136Y919477D02*
Y904242D01*
X1319518D01*
X1316979Y906782D01*
Y911860D01*
X1319518Y914399D01*
X1327136D01*
X1339832Y904242D02*
X1334753D01*
X1332214Y906782D01*
Y911860D01*
X1334753Y914399D01*
X1339832D01*
X1342371Y911860D01*
Y909321D01*
X1332214D01*
X1347449Y914399D02*
Y904242D01*
Y909321D01*
X1349988Y911860D01*
X1352527Y914399D01*
X1355067D01*
X1266444Y238506D02*
Y253741D01*
X1274062D01*
X1276601Y251202D01*
Y246124D01*
X1274062Y243584D01*
X1266444D01*
X1281679Y238506D02*
X1286757D01*
X1284218D01*
Y253741D01*
X1281679Y251202D01*
X202692Y863087D02*
Y847852D01*
X210310D01*
X212849Y850391D01*
Y860548D01*
X210310Y863087D01*
X202692D01*
X228084D02*
X217927D01*
Y855470D01*
X223005Y858009D01*
X225545D01*
X228084Y855470D01*
Y850391D01*
X225545Y847852D01*
X220466D01*
X217927Y850391D01*
X205232Y706623D02*
Y691388D01*
X212850D01*
X215389Y693927D01*
Y704084D01*
X212850Y706623D01*
X205232D01*
X228085Y691388D02*
Y706623D01*
X220467Y699006D01*
X230624D01*
X205232Y565907D02*
Y550672D01*
X212850D01*
X215389Y553211D01*
Y563368D01*
X212850Y565907D01*
X205232D01*
X220467Y563368D02*
X223006Y565907D01*
X228085D01*
X230624Y563368D01*
Y560829D01*
X228085Y558289D01*
X225545D01*
X228085D01*
X230624Y555750D01*
Y553211D01*
X228085Y550672D01*
X223006D01*
X220467Y553211D01*
X205232Y388107D02*
Y372872D01*
X212850D01*
X215389Y375411D01*
Y385568D01*
X212850Y388107D01*
X205232D01*
X230624Y372872D02*
X220467D01*
X230624Y383029D01*
Y385568D01*
X228085Y388107D01*
X223006D01*
X220467Y385568D01*
X205232Y210307D02*
Y195072D01*
X212850D01*
X215389Y197611D01*
Y207768D01*
X212850Y210307D01*
X205232D01*
X220467Y195072D02*
X225545D01*
X223006D01*
Y210307D01*
X220467Y207768D01*
X547621Y384552D02*
X545081Y387091D01*
X540003D01*
X537464Y384552D01*
Y374395D01*
X540003Y371856D01*
X545081D01*
X547621Y374395D01*
X552699Y384552D02*
X555238Y387091D01*
X560317D01*
X562856Y384552D01*
Y382013D01*
X560317Y379473D01*
X562856Y376934D01*
Y374395D01*
X560317Y371856D01*
X555238D01*
X552699Y374395D01*
Y376934D01*
X555238Y379473D01*
X552699Y382013D01*
Y384552D01*
X555238Y379473D02*
X560317D01*
X1152141Y478532D02*
X1149602Y481071D01*
X1144523D01*
X1141984Y478532D01*
Y468375D01*
X1144523Y465836D01*
X1149602D01*
X1152141Y468375D01*
X1157219Y481071D02*
X1167376D01*
Y478532D01*
X1157219Y468375D01*
Y465836D01*
X1196591Y658872D02*
X1194052Y661411D01*
X1188973D01*
X1186434Y658872D01*
Y648715D01*
X1188973Y646176D01*
X1194052D01*
X1196591Y648715D01*
X1211826Y661411D02*
X1206747Y658872D01*
X1201669Y653793D01*
Y648715D01*
X1204208Y646176D01*
X1209287D01*
X1211826Y648715D01*
Y651254D01*
X1209287Y653793D01*
X1201669D01*
X947671Y399792D02*
X945132Y402331D01*
X940053D01*
X937514Y399792D01*
Y389635D01*
X940053Y387096D01*
X945132D01*
X947671Y389635D01*
X962906Y402331D02*
X952749D01*
Y394714D01*
X957827Y397253D01*
X960367D01*
X962906Y394714D01*
Y389635D01*
X960367Y387096D01*
X955288D01*
X952749Y389635D01*
X1103881Y657602D02*
X1101341Y660141D01*
X1096263D01*
X1093724Y657602D01*
Y647445D01*
X1096263Y644906D01*
X1101341D01*
X1103881Y647445D01*
X1116577Y644906D02*
Y660141D01*
X1108959Y652523D01*
X1119116D01*
X711451Y120392D02*
X708912Y122931D01*
X703833D01*
X701294Y120392D01*
Y110235D01*
X703833Y107696D01*
X708912D01*
X711451Y110235D01*
X716529Y120392D02*
X719068Y122931D01*
X724147D01*
X726686Y120392D01*
Y117853D01*
X724147Y115314D01*
X721607D01*
X724147D01*
X726686Y112774D01*
Y110235D01*
X724147Y107696D01*
X719068D01*
X716529Y110235D01*
X711451Y219452D02*
X708912Y221991D01*
X703833D01*
X701294Y219452D01*
Y209295D01*
X703833Y206756D01*
X708912D01*
X711451Y209295D01*
X726686Y206756D02*
X716529D01*
X726686Y216913D01*
Y219452D01*
X724147Y221991D01*
X719068D01*
X716529Y219452D01*
X1155951Y286762D02*
X1153411Y289301D01*
X1148333D01*
X1145794Y286762D01*
Y276605D01*
X1148333Y274066D01*
X1153411D01*
X1155951Y276605D01*
X1161029Y274066D02*
X1166107D01*
X1163568D01*
Y289301D01*
X1161029Y286762D01*
D14*
X227330Y180340D02*
G03*
X227330Y132080I0J-24130D01*
G01*
Y358140D02*
G03*
X227330Y309880I0J-24130D01*
G01*
Y535940D02*
G03*
X227330Y487680I0J-24130D01*
G01*
Y676910D02*
G03*
X227330Y628650I0J-24130D01*
G01*
X224790Y833120D02*
G03*
X224790Y784860I0J-24130D01*
G01*
X252730Y186690D02*
X342900D01*
X252730Y125730D02*
Y186690D01*
Y125730D02*
X342900D01*
X227330Y180340D02*
X252730D01*
X227330Y132080D02*
X252730D01*
X342900Y175260D02*
Y186690D01*
X317500Y175260D02*
X342900D01*
X317500Y137160D02*
Y175260D01*
Y137160D02*
X342900D01*
Y125730D02*
Y137160D01*
X252730Y364490D02*
X342900D01*
X252730Y303530D02*
Y364490D01*
Y303530D02*
X342900D01*
X227330Y358140D02*
X252730D01*
X227330Y309880D02*
X252730D01*
X342900Y353060D02*
Y364490D01*
X317500Y353060D02*
X342900D01*
X317500Y314960D02*
Y353060D01*
Y314960D02*
X342900D01*
Y303530D02*
Y314960D01*
X252730Y542290D02*
X342900D01*
X252730Y481330D02*
Y542290D01*
Y481330D02*
X342900D01*
X227330Y535940D02*
X252730D01*
X227330Y487680D02*
X252730D01*
X342900Y530860D02*
Y542290D01*
X317500Y530860D02*
X342900D01*
X317500Y492760D02*
Y530860D01*
Y492760D02*
X342900D01*
Y481330D02*
Y492760D01*
X252730Y683260D02*
X342900D01*
X252730Y622300D02*
Y683260D01*
Y622300D02*
X342900D01*
X227330Y676910D02*
X252730D01*
X227330Y628650D02*
X252730D01*
X342900Y671830D02*
Y683260D01*
X317500Y671830D02*
X342900D01*
X317500Y633730D02*
Y671830D01*
Y633730D02*
X342900D01*
Y622300D02*
Y633730D01*
X250190Y839470D02*
X340360D01*
X250190Y778510D02*
Y839470D01*
Y778510D02*
X340360D01*
X224790Y833120D02*
X250190D01*
X224790Y784860D02*
X250190D01*
X340360Y828040D02*
Y839470D01*
X314960Y828040D02*
X340360D01*
X314960Y789940D02*
Y828040D01*
Y789940D02*
X340360D01*
Y778510D02*
Y789940D01*
M02*
